<svg xmlns="http://www.w3.org/2000/svg" viewBox="-3225 21864.018 100 80">
  <g id="Exchange" transform="translate(-3225 21864.018)">
    <g id="Group_2312" data-name="Group 2312" transform="translate(0 0)">
      <g id="Group_2311" data-name="Group 2311" transform="translate(0 0)">
        <path id="Path_1489" data-name="Path 1489" d="M50.06,47.608A38.915,38.915,0,0,0,22.182,59.379L3.578,78.291V65.816H0V84H17.888V80.361H6.614l18.105-18.4a35.386,35.386,0,0,1,25.341-10.7c18.514,0,33.785,14.373,35.586,32.717h3.588C87.424,63.587,70.587,47.608,50.06,47.608Z" transform="translate(0 -47.608)"/>
      </g>
    </g>
    <g id="Group_2314" data-name="Group 2314" transform="translate(10.888 43.605)">
      <g id="Group_2313" data-name="Group 2313" transform="translate(0 0)">
        <path id="Path_1490" data-name="Path 1490" d="M119.915,239.573v3.636h11.277l-18.105,18.4a35.364,35.364,0,0,1-25.223,10.608c-18.525,0-33.8-14.39-35.584-32.749H48.691c1.8,20.4,18.635,36.395,39.172,36.395a38.894,38.894,0,0,0,27.76-11.676l18.6-18.907v12.472H137.8V239.573Z" transform="translate(-48.691 -239.471)"/>
      </g>
    </g>
    <g id="package" transform="translate(24.359 9.122)">
      <path id="Path_1491" data-name="Path 1491" d="M71.89,13.824a1.558,1.558,0,0,0-.146-.656,1.415,1.415,0,0,0-.986-.792L45.954.149a1.45,1.45,0,0,0-1.279,0L19.628,12.488a1.492,1.492,0,0,0-.828,1.287V44.8a1.477,1.477,0,0,0,.828,1.337L44.675,58.478c.012,0,.012,0,.024.012a.429.429,0,0,1,.11.05c.012,0,.024.012.049.012l.11.037c.012,0,.024.012.037.012.037.012.085.012.122.025h.037c.049,0,.11.012.158.012a.683.683,0,0,0,.158-.012h.037a.427.427,0,0,0,.122-.025c.012,0,.024-.012.037-.012l.11-.037c.012,0,.024-.012.049-.012a.429.429,0,0,0,.11-.05c.012,0,.012,0,.024-.012L71.086,46.1a1.5,1.5,0,0,0,.828-1.337v-30.9C71.89,13.849,71.89,13.837,71.89,13.824ZM45.308,3.131,67.031,13.837l-8,3.948L37.308,7.079Zm0,21.411L23.585,13.837,33.96,8.725,55.683,19.431ZM21.722,16.225l22.125,10.9V54.765l-22.125-10.9ZM46.769,54.765V27.129L57.156,22v7.228a1.461,1.461,0,1,0,2.922,0V20.557l8.889-4.381V43.812Z" transform="translate(-18.8)"/>
    </g>
  </g>
</svg>
