<svg xmlns="http://www.w3.org/2000/svg" viewBox="-2831.954 21691.5 159.959 95.975">
  <defs>
    <style>
      .cls-1 {
        fill: #fff;
      }

      .cls-2 {
        fill: #3d3d3d;
        font-size: 29px;
        font-family: OpenSans-SemiboldItalic, Open Sans;
        font-weight: 600;
        font-style: italic;
      }

      .cls-3 {
        fill: #f7981d;
        font-size: 33px;
        font-family: OpenSans-Bold, Open Sans;
        font-weight: 700;
      }

      .cls-4, .cls-5 {
        stroke: none;
      }

      .cls-5 {
        fill: #95989a;
      }
    </style>
  </defs>
  <g id="Money" transform="translate(-3225 21452)">
    <g id="Path_2072" data-name="Path 2072" class="cls-1" transform="translate(393.046 239.5)">
      <path class="cls-4" d="M 134.9581298828125 93.47547912597656 L 25.00102424621582 93.47547912597656 C 21.96230697631836 93.47547912597656 19.01580810546875 92.88089752197266 16.24337196350098 91.70826721191406 C 13.56426429748535 90.57508850097656 11.15765571594238 88.95235443115234 9.090394973754883 86.88509368896484 C 7.023133754730225 84.81783294677734 5.400372982025146 82.41122436523438 4.267220497131348 79.73211669921875 C 3.094590187072754 76.95967864990234 2.500003337860107 74.01317596435547 2.500003337860107 70.97446441650391 L 2.500003337860107 25.00102615356445 C 2.500003337860107 21.96230888366699 3.094590187072754 19.01580810546875 4.267220497131348 16.24337387084961 C 5.400372982025146 13.56426525115967 7.023133754730225 11.1576566696167 9.090394973754883 9.090395927429199 C 11.15765571594238 7.023134708404541 13.56426429748535 5.400373935699463 16.24337196350098 4.267221450805664 C 19.01580810546875 3.09459114074707 21.96230697631836 2.500004291534424 25.00102424621582 2.500004291534424 L 134.9581298828125 2.500004291534424 C 137.9968566894531 2.500004291534424 140.9433288574219 3.09459114074707 143.7157592773438 4.267221450805664 C 146.3948669433594 5.400373935699463 148.8014831542969 7.023134708404541 150.8687438964844 9.090395927429199 C 152.9360046386719 11.1576566696167 154.5587463378906 13.56426525115967 155.6919097900391 16.24337387084961 C 156.8645477294922 19.01580810546875 157.4591369628906 21.96230888366699 157.4591369628906 25.00102615356445 L 157.4591369628906 70.97446441650391 C 157.4591369628906 74.01317596435547 156.8645477294922 76.95967864990234 155.6919097900391 79.73211669921875 C 154.5587463378906 82.41120147705078 152.9360046386719 84.81783294677734 150.8687438964844 86.88509368896484 C 148.8014831542969 88.95235443115234 146.3948669433594 90.57508850097656 143.7157592773438 91.70826721191406 C 140.9433288574219 92.88089752197266 137.9968566894531 93.47547912597656 134.9581298828125 93.47547912597656 Z"/>
      <path class="cls-5" d="M 134.9581451416016 90.97549438476563 C 140.3005981445313 90.97549438476563 145.3232879638672 88.89501953125 149.1009674072266 85.11731719970703 C 152.878662109375 81.33961486816406 154.9591369628906 76.31691741943359 154.9591369628906 70.97447204589844 L 154.9591369628906 25.00101852416992 C 154.9591369628906 19.65856742858887 152.878662109375 14.63586807250977 149.1009674072266 10.85816860198975 C 145.3232879638672 7.08046817779541 140.3005981445313 4.999993324279785 134.9581451416016 4.999993324279785 L 25.00101852416992 4.999993324279785 C 19.65854263305664 4.999993324279785 14.63586807250977 7.08046817779541 10.85816860198975 10.85816860198975 C 7.080468654632568 14.63586807250977 4.999993324279785 19.65854263305664 4.999993324279785 25.00101852416992 L 4.999993324279785 70.97447204589844 C 4.999993324279785 76.31694030761719 7.080468654632568 81.33961486816406 10.85816860198975 85.11731719970703 C 14.63586807250977 88.89501953125 19.65854263305664 90.97549438476563 25.00101852416992 90.97549438476563 L 134.9581451416016 90.97549438476563 M 134.9581451416016 95.97549438476563 L 25.00101852416992 95.97549438476563 C 11.19334316253662 95.97549438476563 -6.518554528156528e-06 84.78214263916016 -6.518554528156528e-06 70.97447204589844 L -6.518554528156528e-06 25.00101852416992 C -6.518554528156528e-06 11.19334316253662 11.19334316253662 -6.622314685955644e-06 25.00101852416992 -6.622314685955644e-06 L 134.9581451416016 -6.622314685955644e-06 C 148.7657928466797 -6.622314685955644e-06 159.9591369628906 11.19334316253662 159.9591369628906 25.00101852416992 L 159.9591369628906 70.97447204589844 C 159.9591369628906 84.78214263916016 148.7657928466797 95.97549438476563 134.9581451416016 95.97549438476563 Z"/>
    </g>
    <g id="Group_2323" data-name="Group 2323" transform="translate(408.046 244.498)">
      <text id="TIỀN_MẶT" data-name="TIỀN MẶT" class="cls-2" transform="translate(0 73.656)"><tspan x="0" y="0">TIỀN MẶT</tspan></text>
      <text id="_" data-name="$" class="cls-3" transform="translate(61.318 35)"><tspan x="0" y="0">$</tspan></text>
    </g>
  </g>
</svg>
