<svg xmlns="http://www.w3.org/2000/svg" viewBox="-2956 21621.732 100 62.068">
  <g id="Vip_card" data-name="Vip card" transform="translate(-2956 21621.732)">
    <g id="Group_2302" data-name="Group 2302" transform="translate(0 0)">
      <g id="Group_2301" data-name="Group 2301" transform="translate(0 0)">
        <rect id="Rectangle_1263" data-name="Rectangle 1263" width="10.345" height="3.448" transform="translate(10.345 34.483)"/>
        <path id="Path_1483" data-name="Path 1483" d="M95,22.725H74.31v-6.9a6.9,6.9,0,0,0-6.9-6.9H8.793a6.9,6.9,0,0,0-6.9,6.9V50.311a6.9,6.9,0,0,0,6.9,6.9h20.69v6.9a6.9,6.9,0,0,0,6.9,6.9H95a6.9,6.9,0,0,0,6.9-6.9V29.622A6.9,6.9,0,0,0,95,22.725Zm-65.517,6.9V43.415H26.034v3.448h3.448v6.9H8.793a3.452,3.452,0,0,1-3.448-3.448V15.829A3.452,3.452,0,0,1,8.793,12.38H67.413a3.452,3.452,0,0,1,3.448,3.448v6.9H36.379A6.9,6.9,0,0,0,29.482,29.622ZM98.448,64.1A3.452,3.452,0,0,1,95,67.553H36.379A3.452,3.452,0,0,1,32.93,64.1V29.622a3.452,3.452,0,0,1,3.448-3.448H95a3.452,3.452,0,0,1,3.448,3.448Z" transform="translate(-1.896 -8.932)"/>
        <rect id="Rectangle_1264" data-name="Rectangle 1264" width="10.345" height="3.448" transform="translate(37.931 48.276)"/>
        <rect id="Rectangle_1265" data-name="Rectangle 1265" width="10.345" height="3.448" transform="translate(51.724 48.276)"/>
        <rect id="Rectangle_1266" data-name="Rectangle 1266" width="10.345" height="3.448" transform="translate(65.517 48.276)"/>
        <rect id="Rectangle_1267" data-name="Rectangle 1267" width="10.345" height="3.448" transform="translate(79.31 48.276)"/>
        <path id="Path_1484" data-name="Path 1484" d="M177.9,131.277h10.345V120.932H177.9Zm3.448-6.9h3.448v3.448h-3.448Z" transform="translate(-139.965 -96.794)"/>
        <path id="Path_1485" data-name="Path 1485" d="M49.9,67.277H60.241V56.932H49.9Zm3.448-6.9h3.448v3.448H53.344Z" transform="translate(-39.551 -46.587)"/>
      </g>
    </g>
  </g>
</svg>
