<svg xmlns="http://www.w3.org/2000/svg" viewBox="8899 172 127.834 109.999">
  <defs>
    <style>
      .cls-1 {
        fill: #fff;
      }
    </style>
  </defs>
  <g id="Build_PC" data-name="Build PC" transform="translate(8897.351 150.143)">
    <g id="Group_941" data-name="Group 941" transform="translate(1.649 21.857)">
      <g id="Asset_1" data-name="Asset 1" transform="translate(0 0)">
        <g id="Layer_1" data-name="Layer 1" transform="translate(0)">
          <path id="Exclusion_1" data-name="Exclusion 1" class="cls-1" d="M-8851.134-62h-41.821A6.051,6.051,0,0,1-8899-68.044v-97.913a6.051,6.051,0,0,1,6.046-6.043h3.5a6,6,0,0,0-2.705.643,6.007,6.007,0,0,1,2.712-.643h38.317a6.051,6.051,0,0,1,6.046,6.043v97.913A6.051,6.051,0,0,1-8851.134-62Zm-33.782-14.081-7.5,6.829,1.927,2.813,1.881,2.746a1.274,1.274,0,0,0,1.088.666l7.676.967a1.642,1.642,0,0,0,1.147-.482,1.571,1.571,0,0,0,.605-1.21l-.346-2.6-.684-5.139a1.747,1.747,0,0,0-.663-1.148ZM-8854.151-172a6.01,6.01,0,0,1,4.141,1.818,6.015,6.015,0,0,1,1.718,4.222V-72.4a6.055,6.055,0,0,1-5.994,6.045,6.056,6.056,0,0,0,6-6.045v-93.56A6.009,6.009,0,0,0-8854.151-172ZM-8871.5-78.44a3.083,3.083,0,0,0-.607.06,3.092,3.092,0,0,0-2.475,3.022,3.089,3.089,0,0,0,2.475,3.022,3.075,3.075,0,0,0,.61.061,3.076,3.076,0,0,0,2.559-1.368,3.071,3.071,0,0,0,0-3.428A3.075,3.075,0,0,0-8871.5-78.44Zm-.066-18.173h0a7.422,7.422,0,0,0-7.422,7.077,7.39,7.39,0,0,0,6.881,7.772h.241c.1,0,.2.006.3.006a7.405,7.405,0,0,0,5.151-2.074,7.468,7.468,0,0,0,2.282-5.367,7.392,7.392,0,0,0-7.266-7.412l-.169,0Zm-17.523-53.144a1.877,1.877,0,0,0-1.876,1.874v7.736a1.877,1.877,0,0,0,1.876,1.874h34.51a1.876,1.876,0,0,0,1.874-1.874v-7.736a1.876,1.876,0,0,0-1.874-1.874Zm0-13.117a1.877,1.877,0,0,0-1.876,1.874v4.473a1.859,1.859,0,0,0,.529,1.365,1.877,1.877,0,0,0,1.347.569h34.51a1.883,1.883,0,0,0,1.347-.569,1.9,1.9,0,0,0,.527-1.365V-161a1.876,1.876,0,0,0-1.874-1.874Z" transform="translate(8972.922 172)"/>
          <path id="Path_2215" data-name="Path 2215" class="cls-1" d="M58.75,54.527l2.176-2.236A1.39,1.39,0,0,0,61.41,51.2a1.632,1.632,0,0,0-.484-1.148l-3.808-3.808,4.291-4.835a10.517,10.517,0,0,0,3.505,1.209h2.236a3.324,3.324,0,0,1,2.9,1.148,2.841,2.841,0,0,0-1.027,2.115,3.324,3.324,0,0,0,.967,2.418l5.56,5.56a4.775,4.775,0,0,0,3.385,1.39,4.593,4.593,0,0,0,3.324-1.39L93.443,42.68a4.533,4.533,0,0,0,1.39-3.324,4.775,4.775,0,0,0-1.39-3.385l-5.621-5.56a3.022,3.022,0,0,0-2.236-.725h0a3.385,3.385,0,0,0-2.236.907,3.082,3.082,0,0,1-1.209-2.78,15.834,15.834,0,0,0,0-2.236A11.242,11.242,0,0,0,79,19.532l-6.044-6.044a26.473,26.473,0,0,0-9.247-6.83C54.52,2.488,45.212,3.213,31.492,9.2a1.571,1.571,0,0,0,.6,3.022h1.995a18.5,18.5,0,0,1,16.984,6.044,7.495,7.495,0,0,1-.121,11.423h0L46,35.246,15.294,4.422a6.527,6.527,0,0,0-9.247,0L1.756,8.713A6.527,6.527,0,0,0,1.877,17.6L33.305,48.966,1.937,84.082A6.709,6.709,0,0,0,0,88.615a6.044,6.044,0,0,0,1.813,4.533l2.236,2.236A6.044,6.044,0,0,0,8.465,97.2h0A6.528,6.528,0,0,0,13.058,95.2L44.366,60.208l3.082,3.082a1.534,1.534,0,0,0,2.236,0l2.236-2.236L78.575,87.708l7.011-6.346ZM8.4,13.186a1.511,1.511,0,0,1,0-2.236,1.511,1.511,0,0,1,2.236,0L37.476,37.785a1.625,1.625,0,0,1-2.357,2.236ZM43.217,57h0L10.882,93.268A3.143,3.143,0,0,1,8.525,94.3a3.082,3.082,0,0,1-2.478-.967L3.811,91.093A3.022,3.022,0,0,1,2.9,88.856a3.989,3.989,0,0,1,1.088-2.418L52.1,32.889l6.648,6.588h0l-5.077,5.742h0Zm5.44,3.143L46.6,58.032l5.379-6.044L55,48.664l2.6,2.6Z" transform="translate(0.001 12.622)"/>
        </g>
      </g>
    </g>
  </g>
</svg>
