<svg xmlns="http://www.w3.org/2000/svg" viewBox="3142 780.5 97.924 36.019">
  <defs>
    <style>
      .cls-1 {
        fill: #fff;
        font-size: 10px;
      }

      .cls-1, .cls-2 {
        font-family: OpenSans-SemiboldItalic, Open Sans;
        font-weight: 600;
        font-style: italic;
      }

      .cls-2, .cls-3 {
        fill: #ff4a56;
      }

      .cls-2 {
        font-size: 14px;
      }
    </style>
  </defs>
  <g id="Group_2588" data-name="Group 2588" transform="translate(2933 768.5)">
    <text id="HỖ_TRỢ_TƯ_VẤN" data-name="HỖ TRỢ TƯ VẤN" class="cls-1" transform="translate(258 23)"><tspan x="-35.947" y="0">HỖ TRỢ TƯ VẤN</tspan></text>
    <g id="Group_2418" data-name="Group 2418" transform="translate(3.924)">
      <text id="_0886222136" data-name="0886222136" class="cls-2" transform="translate(264 42.52)"><tspan x="-38.555" y="0">0886222136</tspan></text>
      <g id="phone-receiver" transform="matrix(0.921, 0.391, -0.391, 0.921, 211.08, 27.866)">
        <g id="Group_1555" data-name="Group 1555" transform="translate(0 0)">
          <path id="Path_988" data-name="Path 988" class="cls-3" d="M15.369,12.127a.743.743,0,0,1-.228.651l-2.165,2.149a1.218,1.218,0,0,1-.382.277,1.581,1.581,0,0,1-.464.146l-.1.008q-.081.008-.212.008a7.5,7.5,0,0,1-1-.106,7.6,7.6,0,0,1-1.693-.521,14.209,14.209,0,0,1-2.271-1.245,16.93,16.93,0,0,1-2.7-2.279A17.837,17.837,0,0,1,2.265,9.067a15.309,15.309,0,0,1-1.2-1.9A10.214,10.214,0,0,1,.377,5.591,8.377,8.377,0,0,1,.068,4.371,4.032,4.032,0,0,1,0,3.565q.016-.293.016-.326a1.582,1.582,0,0,1,.146-.464,1.22,1.22,0,0,1,.277-.383L2.607.228A.717.717,0,0,1,3.128,0,.607.607,0,0,1,3.5.122a1.132,1.132,0,0,1,.277.3l1.742,3.3A.792.792,0,0,1,5.6,4.3a1.015,1.015,0,0,1-.277.521l-.8.8a.271.271,0,0,0-.057.106.4.4,0,0,0-.024.122,2.939,2.939,0,0,0,.293.781,7.172,7.172,0,0,0,.6.952A10.573,10.573,0,0,0,6.5,8.871a10.782,10.782,0,0,0,1.3,1.164,7.52,7.52,0,0,0,.952.61,2.531,2.531,0,0,0,.586.236l.2.041a.388.388,0,0,0,.106-.024.272.272,0,0,0,.106-.057l.928-.944a1,1,0,0,1,.684-.26.851.851,0,0,1,.439.1h.016l3.142,1.856A.819.819,0,0,1,15.369,12.127Z" transform="translate(0 0)"/>
        </g>
      </g>
    </g>
  </g>
</svg>
