<svg xmlns="http://www.w3.org/2000/svg" viewBox="-11503.001 -6108.999 115 115.167">
  <g id="phone-call" transform="translate(-11503.001 -6108.999)">
    <g id="Group_2599" data-name="Group 2599" transform="translate(0 0)">
      <path id="Path_2191" data-name="Path 2191" d="M91.279,92.087a11.327,11.327,0,0,0-8.216-3.768,11.713,11.713,0,0,0-8.313,3.743L67.07,99.719c-.632-.34-1.264-.656-1.872-.972-.875-.437-1.7-.851-2.406-1.288a83.481,83.481,0,0,1-20-18.23,49.251,49.251,0,0,1-6.563-10.355c1.993-1.823,3.84-3.719,5.639-5.542.681-.681,1.361-1.385,2.042-2.066,5.1-5.1,5.1-11.716,0-16.82l-6.636-6.636c-.754-.754-1.531-1.531-2.261-2.309-1.458-1.507-2.99-3.063-4.57-4.521A11.506,11.506,0,0,0,22.3,27.406a11.906,11.906,0,0,0-8.264,3.573l-.049.049L5.719,39.365a17.783,17.783,0,0,0-5.275,11.3c-.583,7.1,1.507,13.709,3.111,18.036,3.938,10.622,9.82,20.466,18.595,31.016a114.386,114.386,0,0,0,38.089,29.825c5.591,2.649,13.053,5.785,21.39,6.32.51.024,1.045.049,1.531.049a18.316,18.316,0,0,0,14.025-6.028c.024-.049.073-.073.1-.122a55.26,55.26,0,0,1,4.254-4.4c1.045-1,2.115-2.042,3.16-3.136a12.126,12.126,0,0,0,3.67-8.41,11.682,11.682,0,0,0-3.743-8.337Zm8.7,25.6c-.024,0-.024.024,0,0-.948,1.021-1.92,1.945-2.965,2.965a63.917,63.917,0,0,0-4.691,4.861,11.718,11.718,0,0,1-9.139,3.865c-.365,0-.754,0-1.118-.024-7.219-.462-13.928-3.281-18.959-5.688a107.973,107.973,0,0,1-35.877-28.1C18.942,85.572,13.4,76.336,9.73,66.419,7.469,60.366,6.643,55.651,7.007,51.2a11.158,11.158,0,0,1,3.354-7.219l8.289-8.289a5.525,5.525,0,0,1,3.695-1.726,5.2,5.2,0,0,1,3.549,1.7l.073.073c1.483,1.385,2.893,2.82,4.375,4.351.754.778,1.531,1.556,2.309,2.358l6.636,6.636c2.577,2.577,2.577,4.959,0,7.535-.7.7-1.385,1.41-2.09,2.09-2.042,2.09-3.986,4.035-6.1,5.931-.049.049-.1.073-.122.122a4.958,4.958,0,0,0-1.264,5.518l.073.219a53.275,53.275,0,0,0,7.851,12.81l.024.024a89.215,89.215,0,0,0,21.584,19.64,33.183,33.183,0,0,0,2.99,1.629c.875.438,1.7.851,2.406,1.288.1.049.194.122.292.17a5.269,5.269,0,0,0,2.406.608,5.2,5.2,0,0,0,3.695-1.677l8.313-8.313a5.5,5.5,0,0,1,3.67-1.823,4.95,4.95,0,0,1,3.5,1.774l.049.049,13.393,13.393C102.46,112.553,102.46,115.105,99.981,117.682Z" transform="translate(-0.344 -20.745)"/>
      <path id="Path_2192" data-name="Path 2192" d="M247.645,92.435a31.282,31.282,0,0,1,25.474,25.474,3.261,3.261,0,0,0,3.233,2.722,4.333,4.333,0,0,0,.559-.049,3.285,3.285,0,0,0,2.7-3.792,37.826,37.826,0,0,0-30.821-30.821A3.3,3.3,0,0,0,245,88.643,3.246,3.246,0,0,0,247.645,92.435Z" transform="translate(-185.489 -65.04)"/>
      <path id="Path_2193" data-name="Path 2193" d="M303.34,50.8A62.285,62.285,0,0,0,252.587.05a3.277,3.277,0,1,0-1.069,6.466,55.634,55.634,0,0,1,45.357,45.357,3.261,3.261,0,0,0,3.233,2.722,4.338,4.338,0,0,0,.559-.049A3.22,3.22,0,0,0,303.34,50.8Z" transform="translate(-188.39 0)"/>
    </g>
  </g>
</svg>
