<svg xmlns="http://www.w3.org/2000/svg" viewBox="-11503 -5559.005 115 115">
  <g id="settings" transform="translate(-11503 -5559.005)">
    <g id="Group_2598" data-name="Group 2598" transform="translate(0 0)">
      <path id="Path_2189" data-name="Path 2189" d="M109.114,45.429l-8.072-1.369A45.577,45.577,0,0,0,97.8,36.228l4.757-6.654a7.083,7.083,0,0,0-.769-9.153l-7.159-7.159a7.052,7.052,0,0,0-5.021-2.09A6.98,6.98,0,0,0,85.5,12.493L78.82,17.25A45.1,45.1,0,0,0,70.7,13.91L69.355,5.935A7.1,7.1,0,0,0,62.34,0H52.227a7.1,7.1,0,0,0-7.015,5.934L43.818,14.1a44.455,44.455,0,0,0-7.808,3.291L29.4,12.637a7.1,7.1,0,0,0-9.153.769l-7.183,7.159a7.111,7.111,0,0,0-.769,9.153l4.8,6.751a44.519,44.519,0,0,0-3.2,7.856L5.934,45.669A7.1,7.1,0,0,0,0,52.684V62.8a7.1,7.1,0,0,0,5.934,7.015L14.1,71.206a44.454,44.454,0,0,0,3.291,7.808L12.66,85.6a7.083,7.083,0,0,0,.769,9.153l7.159,7.159A7.052,7.052,0,0,0,25.609,104a6.98,6.98,0,0,0,4.108-1.321l6.751-4.8a45.445,45.445,0,0,0,7.591,3.123l1.345,8.072A7.1,7.1,0,0,0,52.419,115H62.557a7.1,7.1,0,0,0,7.015-5.934l1.369-8.072a45.578,45.578,0,0,0,7.832-3.243l6.654,4.757a7.053,7.053,0,0,0,4.132,1.321h0a7.052,7.052,0,0,0,5.021-2.09l7.159-7.159a7.111,7.111,0,0,0,.769-9.153l-4.757-6.678a45.251,45.251,0,0,0,3.243-7.832l8.072-1.345A7.1,7.1,0,0,0,115,62.558V52.444A7.011,7.011,0,0,0,109.114,45.429Zm-.553,17.129a.622.622,0,0,1-.529.625l-10.09,1.682a3.225,3.225,0,0,0-2.595,2.378,38.457,38.457,0,0,1-4.18,10.066,3.248,3.248,0,0,0,.144,3.531l5.934,8.36a.654.654,0,0,1-.072.817l-7.159,7.159a.61.61,0,0,1-.456.192.59.59,0,0,1-.36-.12l-8.336-5.934a3.246,3.246,0,0,0-3.531-.144,38.458,38.458,0,0,1-10.066,4.18,3.189,3.189,0,0,0-2.378,2.595l-1.706,10.09a.622.622,0,0,1-.625.529H52.443a.622.622,0,0,1-.625-.529l-1.682-10.09a3.225,3.225,0,0,0-2.378-2.595,39.932,39.932,0,0,1-9.85-4.036,3.325,3.325,0,0,0-1.634-.432,3.164,3.164,0,0,0-1.874.6l-8.408,5.982a.715.715,0,0,1-.36.12.644.644,0,0,1-.456-.192l-7.159-7.159a.651.651,0,0,1-.072-.817l5.91-8.288A3.289,3.289,0,0,0,24,77.572,38.1,38.1,0,0,1,19.771,67.53a3.29,3.29,0,0,0-2.595-2.378L7.015,63.422a.622.622,0,0,1-.529-.625V52.684a.622.622,0,0,1,.529-.625l10.018-1.682a3.248,3.248,0,0,0,2.619-2.4,38.418,38.418,0,0,1,4.108-10.09,3.207,3.207,0,0,0-.168-3.507L17.609,25.97a.654.654,0,0,1,.072-.817l7.159-7.159A.61.61,0,0,1,25.3,17.8a.59.59,0,0,1,.36.12l8.288,5.91a3.289,3.289,0,0,0,3.555.144,38.1,38.1,0,0,1,10.042-4.228,3.29,3.29,0,0,0,2.378-2.595L51.65,6.992a.622.622,0,0,1,.625-.529H62.388a.622.622,0,0,1,.625.529l1.682,10.018a3.248,3.248,0,0,0,2.4,2.619A38.993,38.993,0,0,1,77.4,23.856a3.248,3.248,0,0,0,3.531-.144l8.288-5.958a.715.715,0,0,1,.36-.12.644.644,0,0,1,.456.192L97.2,24.985a.651.651,0,0,1,.072.817l-5.934,8.336a3.246,3.246,0,0,0-.144,3.531,38.458,38.458,0,0,1,4.18,10.066,3.189,3.189,0,0,0,2.595,2.378l10.09,1.706a.622.622,0,0,1,.529.625V62.558Z" transform="translate(0 -0.001)"/>
      <path id="Path_2190" data-name="Path 2190" d="M160.916,136a24.816,24.816,0,1,0,24.816,24.816A24.832,24.832,0,0,0,160.916,136Zm0,43.146a18.33,18.33,0,1,1,18.33-18.33A18.342,18.342,0,0,1,160.916,179.147Z" transform="translate(-103.404 -103.329)"/>
    </g>
  </g>
</svg>
