<svg xmlns="http://www.w3.org/2000/svg" viewBox="-3609.1 3193.023 436 316">
  <defs>
    <style>
      .cls-1 {
        fill: #ff7f00;
      }

      .cls-2 {
        fill: #e56505;
      }

      .cls-3 {
        fill: #528099;
      }

      .cls-4 {
        fill: #c1e5f4;
      }

      .cls-5 {
        fill: #d9f5ff;
      }

      .cls-6 {
        fill: #1d5777;
      }

      .cls-7 {
        fill: #1e759b;
      }

      .cls-8 {
        fill: #ffc41f;
      }

      .cls-9 {
        fill: #ffa522;
      }

      .cls-10 {
        fill: #1a3d5b;
      }

      .cls-11 {
        fill: #ffd400;
      }
    </style>
  </defs>
  <g id="delivery-truck" transform="translate(-3609.1 3124.691)">
    <path id="Path_578" data-name="Path 578" class="cls-1" d="M15.306,68.332H208.9V74c0-13.47,10.935,11.152,24.388,11.152h113.83A24.39,24.39,0,0,1,371.5,109.54l53.85,180.94a24.376,24.376,0,0,1-24.388,24.394H15.307a10.871,10.871,0,0,1-10.88-10.868V79.2A10.857,10.857,0,0,1,15.306,68.332Z" transform="translate(6.757 0)"/>
    <path id="Path_579" data-name="Path 579" class="cls-2" d="M413.263,274.857l12.09,40.655a24.375,24.375,0,0,1-24.388,24.393H15.307a10.87,10.87,0,0,1-10.88-10.867V274.857Z" transform="translate(6.757 -25.031)"/>
    <path id="Path_580" data-name="Path 580" class="cls-3" d="M63.379,114.475h77.172c0,.221.062.436.062.664L164.1,194.031a24.956,24.956,0,0,1-3.841.4H63.379A24.4,24.4,0,0,1,38.991,170.04V138.869A24.389,24.389,0,0,1,63.379,114.475Z" transform="translate(237.647 -5.593)"/>
    <path id="Path_581" data-name="Path 581" class="cls-4" d="M40.267,279.068c0,12.522,2.879,22.684,6.443,22.684,3.543,0,6.43-10.168,6.43-22.684,0-12.551-2.886-22.7-6.43-22.7C43.146,256.362,40.267,266.517,40.267,279.068Z" transform="translate(347.482 -22.79)"/>
    <path id="Path_582" data-name="Path 582" class="cls-5" d="M40.266,301.759c3.543,0,6.43-10.168,6.43-22.684,0-12.55-2.886-22.7-6.43-22.7" transform="translate(353.927 -22.791)"/>
    <g id="Group_939" data-name="Group 939" transform="translate(0 108.882)">
      <path id="Path_583" data-name="Path 583" class="cls-6" d="M137.551,194.668,74.539,131.642a24.31,24.31,0,0,1,14.339-15.236l78.238,78.262Z" transform="translate(203.394 -114.709)"/>
      <path id="Path_584" data-name="Path 584" class="cls-6" d="M174.588,198.68H149.812a24.4,24.4,0,0,1-24.388-24.394V149.505Z" transform="translate(151.215 -118.721)"/>
      <path id="Path_585" data-name="Path 585" class="cls-6" d="M54.232,114.475H78.613c0,.221.062.436.062.664L88.766,149Z" transform="translate(299.586 -114.475)"/>
      <path id="Path_586" data-name="Path 586" class="cls-6" d="M0,354.375a9.089,9.089,0,0,0,9.086,9.089H426.92a9.069,9.069,0,0,0,9.08-9.089V323.087A9.065,9.065,0,0,0,426.92,314H9.093a9.08,9.08,0,0,0-9.086,9.089v31.288Z" transform="translate(0 -138.658)"/>
    </g>
    <path id="Path_587" data-name="Path 587" class="cls-7" d="M9.079,314H426.913a9.072,9.072,0,0,1,9.08,9.1v6.894a9.069,9.069,0,0,1-9.08,9.083H9.086A9.083,9.083,0,0,1,0,329.988v-6.894A9.076,9.076,0,0,1,9.079,314Z" transform="translate(0.007 -29.776)"/>
    <path id="Path_588" data-name="Path 588" class="cls-8" d="M65.653,372.363A30.666,30.666,0,1,0,96.326,341.67,30.679,30.679,0,0,0,65.653,372.363Z" transform="translate(251.333 -33.13)"/>
    <path id="Path_589" data-name="Path 589" class="cls-9" d="M131.23,341.669a30.679,30.679,0,0,0,0,61.358" transform="translate(216.421 -33.13)"/>
    <path id="Path_590" data-name="Path 590" class="cls-10" d="M94.333,415.471a45.112,45.112,0,1,0-45.1-45.106A45.155,45.155,0,0,0,94.333,415.471Zm0-61.352a16.24,16.24,0,1,1-16.25,16.253A16.262,16.262,0,0,1,94.333,354.119Z" transform="translate(253.318 -31.139)"/>
    <ellipse id="Ellipse_168" data-name="Ellipse 168" class="cls-8" cx="30.673" cy="30.68" rx="30.673" ry="30.68" transform="translate(52.098 308.539)"/>
    <path id="Path_591" data-name="Path 591" class="cls-9" d="M429.679,350.656a30.674,30.674,0,0,0-43.371,43.389" transform="translate(-325.199 -33.131)"/>
    <path id="Path_592" data-name="Path 592" class="cls-10" d="M363.883,402.258a45.107,45.107,0,1,0,0-63.788A45.145,45.145,0,0,0,363.883,402.258Zm43.365-43.389a16.234,16.234,0,1,1-22.948,0A16.235,16.235,0,0,1,407.248,358.869Z" transform="translate(-312.989 -31.141)"/>
    <g id="Group_940" data-name="Group 940" transform="translate(45.517 133.339)">
      <path id="Path_593" data-name="Path 593" class="cls-11" d="M282.435,150.216a7.909,7.909,0,0,0,7.917,7.9h126.5a7.919,7.919,0,0,0,7.924-7.9h0a7.925,7.925,0,0,0-7.924-7.911h-126.5a7.913,7.913,0,0,0-7.918,7.911Z" transform="translate(-282.435 -142.305)"/>
      <path id="Path_594" data-name="Path 594" class="cls-11" d="M246.163,186.483a7.91,7.91,0,0,0,7.91,7.919h126.51a7.909,7.909,0,0,0,7.9-7.919h0a7.906,7.906,0,0,0-7.9-7.9H254.073a7.912,7.912,0,0,0-7.91,7.9Z" transform="translate(-214.28 -146.701)"/>
      <path id="Path_595" data-name="Path 595" class="cls-11" d="M209.881,222.772a7.922,7.922,0,0,0,7.924,7.918H344.314a7.913,7.913,0,0,0,7.9-7.918h0a7.911,7.911,0,0,0-7.9-7.905H217.805a7.919,7.919,0,0,0-7.924,7.905Z" transform="translate(-146.135 -151.1)"/>
    </g>
  </g>
</svg>
