<svg xmlns="http://www.w3.org/2000/svg" viewBox="0 0 389.38 389.38"><defs><style>.cls-1{fill:#0084ff;}.cls-2{fill:#fff;}</style></defs><title>Messenger</title><g id="Layer_2" data-name="Layer 2"><g id="Layer_1-2" data-name="Layer 1"><path class="cls-1" d="M194.69,0C87.17,0,0,87.17,0,194.69S87.17,389.38,194.69,389.38s194.69-87.17,194.69-194.69S302.21,0,194.69,0Zm2.57,306.26a120,120,0,0,1-43.36-8.09l-35.45,21.51,1.13-41.91a120.22,120.22,0,1,1,77.68,28.49Z"/><path class="cls-2" d="M197.26,65.74a120.24,120.24,0,0,0-77.68,212l-1.13,41.91,35.45-21.51A120.26,120.26,0,1,0,197.26,65.74Zm11.21,161.6-33.25-35.46-64.86,35.46,46.35-49.21,25-26.54,34,35.45,62.63-33.93Z"/><polygon class="cls-1" points="181.71 151.59 156.71 178.13 110.36 227.34 175.22 191.88 208.47 227.34 278.39 153.11 215.76 187.04 181.71 151.59"/></g></g></svg>