<svg id="Layer_1" data-name="Layer 1" xmlns="http://www.w3.org/2000/svg" viewBox="0 0 1024 1024"><defs><style>.cls-1{fill:#9e0707;}.cls-2{fill:#870f0f;}.cls-3{fill:#ea5f21;}.cls-4{fill:#d82121;}</style></defs><title>icon gift</title><rect class="cls-1" x="184" y="474.08" width="656" height="434.7"/><rect class="cls-2" x="184" y="471.88" width="656" height="34.47"/><rect class="cls-3" x="468.4" y="474.08" width="87.21" height="434.7"/><path class="cls-3" d="M503.52,259h17a61.64,61.64,0,0,1,61.64,61.64V324a4.36,4.36,0,0,1-4.36,4.36H446.24a4.36,4.36,0,0,1-4.36-4.36v-3.33A61.64,61.64,0,0,1,503.52,259Z"/><path class="cls-3" d="M464.53,262s-110.06-72.25-143.27-38.72,91.54,87.07,91.54,87.07H327.64s-163.49-61.38-54.92-124.37S512,252.35,512,252.35C491.78,251.77,474.26,254.41,464.53,262Z"/><path class="cls-3" d="M563.62,266.5S680.23,156.63,715.7,199.35s-97.76,111-97.76,111h90.93s174.6-78.22,58.66-158.49S515.26,252.91,515.26,252.91C536.86,252.18,553.23,256.88,563.62,266.5Z"/><rect class="cls-4" x="114" y="317.26" width="796" height="156.82"/></svg>