<?xml version="1.0" encoding="utf-8"?>
<!-- Generator: Adobe Illustrator 22.0.1, SVG Export Plug-In . SVG Version: 6.00 Build 0)  -->
<svg version="1.1" id="Layer_1" xmlns="http://www.w3.org/2000/svg" xmlns:xlink="http://www.w3.org/1999/xlink" x="0px" y="0px"
	 viewBox="0 0 500 500" style="enable-background:new 0 0 500 500;" xml:space="preserve">
<style type="text/css">
	.st0{fill:#1DB24B;}
</style>
<path class="st0" d="M289.8,394c-2.5-3.2-6.5-4.9-10.5-4.3c-20.4,2.9-37.6,2.5-47.7,1.2c-78-10.5-132.7-82.3-122.1-160.2
	S191.8,98,269.8,108.6c78,10.5,132.7,82.3,122.1,160.2c-1.2,9.1-9.4,30.3-14.3,42.9c-1.5,3.9-0.7,8.3,2.1,11.4l23.2,26.2
	c4.9,5.6,13.9,4.9,17.8-1.4c1.8-2.8,3.4-5.7,4.7-8.2c2.2-4.1,6.7-6.4,11.3-5.8l38,5.1c5.2,0.7,10.3-2.3,12-7.3
	c5.3-15.4,9.3-31.6,11.5-48.4c2.1-15.7,2.7-31.3,2-46.5c-0.3-5.4-4.3-9.9-9.7-10.6l-37.5-5.1c-4.8-0.6-8.5-4.3-9.5-9
	c-1.6-8.4-3.8-16.7-6.5-24.8c-1.5-4.5,0-9.5,3.8-12.4L471,152c4.2-3.2,5.7-9,3.3-13.8c-14.5-28.9-34.4-54.8-58.8-76.2
	c-4-3.5-9.9-3.6-14.1-0.4l-29.8,22.7c-3.8,2.9-9,3-13,0.4c-6.5-4.3-13.3-8.3-20.3-11.8c-4.3-2.2-6.7-6.7-6.1-11.5l4.9-36.5
	c0.7-5.4-2.5-10.4-7.6-12.1C315,8,299.8,4.4,284.1,2.3c-16.8-2.2-33.5-2.8-49.8-1.8c-5.3,0.3-9.6,4.4-10.3,9.7l-4.8,36
	c-0.6,4.8-4.3,8.5-9,9.5c-7,1.4-13.9,3.2-20.7,5.3c-4.5,1.4-9.5,0-12.4-3.8l-21.9-28.8c-3.2-4.2-8.9-5.6-13.7-3.3
	c-29.1,14.1-55.2,33.8-76.9,57.9c-3.6,4-3.7,9.9-0.5,14.2L85.5,125c2.9,3.9,3,9.2,0.3,13.2c-4.7,6.8-8.9,13.9-12.7,21.3
	c-2.2,4.3-6.7,6.7-11.5,6.1l-35-4.7c-5.2-0.7-10.3,2.3-12,7.3C9.2,183.6,5.3,199.8,3,216.6c-2.1,15.7-2.7,31.3-2,46.5
	c0.3,5.4,4.3,9.9,9.7,10.6l34.7,4.7c4.8,0.6,8.6,4.3,9.5,9c1.7,9,4.1,17.9,7.1,26.6c1.6,4.6,0.1,9.6-3.8,12.6l-28,21.3
	c-4.2,3.2-5.6,9-3.3,13.8c14.5,28.9,34.4,54.8,58.8,76.2c4,3.5,9.9,3.6,14.1,0.4l28.8-22c3.8-2.9,8.9-3,12.9-0.5
	c6.8,4.4,13.8,8.4,21.1,11.9c4.4,2.1,6.9,6.8,6.3,11.6l-4.8,35.6c-0.7,5.4,2.5,10.4,7.6,12.1c14.5,4.8,29.7,8.4,45.4,10.5
	c16.8,2.2,33.5,2.8,49.8,1.8c5.3-0.3,9.6-4.4,10.3-9.7l5-37.1c0.6-4.6,4.1-8.4,8.6-9.4c4.1-0.9,9.2-2.2,14.4-3.5
	c7.7-2,10.8-11.2,6-17.5L289.8,394z"/>
<path class="st0" d="M224.2,156.6l54.9,67.8c9.5,11.1,11.1,33.3-3.7,48.8l-8.7,6.7c-13.5,8.4-36.7,5-45.6-6.5l-54.9-67.8
	c-44.4,53.4,20.4,190.3,125.9,146.2l100.3,126.2l50.2-40.8L340.8,311.5C406.5,216.8,286,124,224.2,156.6z"/>
<path class="st0" d="M142.4,148.1l74.7,93.8c4.7,6.1,13.6,7.1,19.7,2.4l9.9-7.5c6.2-4.7,7.4-13.8,2.5-20L174,120.2
	c-5.5-7-15.8-7.4-21.7-0.7l-9.5,10.5C138.2,135,138.1,142.7,142.4,148.1z"/>
</svg>
