<svg xmlns="http://www.w3.org/2000/svg" viewBox="250.237 1552.999 383 383">
  <defs>
    <style>
      .cls-1 {
        fill: #183544;
      }

      .cls-2 {
        fill: #001f30;
      }

      .cls-3 {
        fill: #40596b;
      }

      .cls-4 {
        fill: #f2f2f2;
      }

      .cls-5 {
        fill: #cdd6e0;
      }

      .cls-6 {
        fill: #eaa443;
      }
    </style>
  </defs>
  <g id="email" transform="translate(250.237 1552.999)">
    <path id="Path_58" data-name="Path 58" class="cls-1" d="M383.261,408.567a16.212,16.212,0,0,1-4.787,11.956,17.306,17.306,0,0,1-11.171,3.985H16.219a19.081,19.081,0,0,1-11.171-3.985A16.21,16.21,0,0,1,.261,408.567V175.02h383Z" transform="translate(-0.261 -41.508)"/>
    <path id="Path_59" data-name="Path 59" class="cls-2" d="M379.955,447.039a17.306,17.306,0,0,1-11.171,3.985H17.7A19.084,19.084,0,0,1,6.53,447.039L193.242,286.825Z" transform="translate(-1.743 -68.024)"/>
    <path id="Path_60" data-name="Path 60" class="cls-3" d="M383.261,133.512,329,172.569,202.134,263.437a17.969,17.969,0,0,1-21.544,0L54.519,172.569.261,133.512,54.519,94.454,172.611,9.963l8.777-6.377a17.969,17.969,0,0,1,21.544,0l8.777,6.377,56.652,40.652,27.927,19.927L329,94.454Z" transform="translate(-0.261 0)"/>
    <path id="Path_61" data-name="Path 61" class="cls-4" d="M345.8,62.481V175.666L218.928,266.535a17.969,17.969,0,0,1-21.544,0L71.314,175.666V29A16,16,0,0,1,87.272,13.061H295.528Z" transform="translate(-17.056 -3.098)"/>
    <path id="Path_62" data-name="Path 62" class="cls-5" d="M365.975,49.727a12.6,12.6,0,0,0,12.766,12.753h36.7l-49.471-49.42V49.727Z" transform="translate(-86.704 -3.098)"/>
    <path id="Path_63" data-name="Path 63" class="cls-6" d="M279.59,194.588h12.766c-3.989,8.768-10.373,15.145-19.151,19.927-9.575,5.58-21.544,7.971-35.906,7.971-13.564,0-25.534-2.391-35.109-7.174s-17.554-11.16-22.342-20.724a62.014,62.014,0,0,1-7.181-29.492,66.082,66.082,0,0,1,7.979-32.681c5.585-10.362,12.766-17.536,22.342-22.318s20.745-7.174,32.715-7.174a62.651,62.651,0,0,1,27.926,6.377c7.979,3.985,14.363,9.565,18.352,17.536a51.737,51.737,0,0,1,6.383,24.71,47.725,47.725,0,0,1-9.575,28.695c-7.979,11.16-18.352,15.942-31.119,15.942a20.04,20.04,0,0,1-7.979-1.594c-1.6-1.594-3.192-3.189-3.192-5.579a22.977,22.977,0,0,1-16.756,7.173q-10.772,0-16.757-7.173-7.181-7.173-7.181-19.13a48.679,48.679,0,0,1,7.979-27.1c6.384-9.565,15.161-14.347,25.534-14.347a19.764,19.764,0,0,1,16.756,8.768l1.6-7.174h16.756l-9.575,44.637a21.011,21.011,0,0,0-.8,5.579,2.926,2.926,0,0,0,.8,2.391c.8.8.8.8,1.6.8,1.6,0,4.787-1.594,7.979-3.985,3.989-3.189,7.979-7.174,10.373-12.753s3.99-11.159,3.99-16.739a33.128,33.128,0,0,0-11.171-25.507c-7.181-7.174-17.554-10.363-31.119-10.363q-16.757,0-28.725,7.174a45.051,45.051,0,0,0-17.554,19.13c-3.99,7.971-5.585,16.739-5.585,26.3A48.659,48.659,0,0,0,191.02,190.6c4.787,7.174,10.373,12.753,18.353,15.942s16.756,4.782,27.129,4.782a81.746,81.746,0,0,0,25.534-3.985A47.6,47.6,0,0,0,279.59,194.588Zm-67.823-25.507c0,5.579.8,8.768,3.192,11.956,2.394,2.392,4.787,3.985,7.979,3.985a15.039,15.039,0,0,0,6.383-1.594,21.151,21.151,0,0,0,4.787-3.985c2.394-2.391,3.99-6.377,5.585-11.16a44.169,44.169,0,0,0,2.394-13.55c0-4.782-.8-7.971-3.192-11.159-2.394-2.392-4.787-3.985-7.979-3.985a14.732,14.732,0,0,0-9.575,3.985q-4.788,3.587-7.182,11.956A44.208,44.208,0,0,0,211.766,169.081Z" transform="translate(-41.013 -24.41)"/>
  </g>
</svg>
