<svg xmlns="http://www.w3.org/2000/svg" viewBox="3492.039 -14042 209.703 250">
  <defs>
    <style>
      .cls-1 {
        fill: #2b383a;
      }
    </style>
  </defs>
  <g id="User" transform="translate(3492.039 -14042)">
    <g id="Layer_1" data-name="Layer 1" transform="translate(0 0)">
      <path id="Path_2155" data-name="Path 2155" class="cls-1" d="M139.541,141.6a75.061,75.061,0,1,0-69.378,0A104.653,104.653,0,0,0,0,239.587v9.8H31.553v-9.8c0-2.94,1.568-73.3,73.3-73.3a69.379,69.379,0,0,1,51.936,19.99,87.405,87.405,0,0,1,21.558,53.894v9.8H209.7v-9.8A104.653,104.653,0,0,0,139.541,141.6ZM104.851,28.125A47.427,47.427,0,1,1,57.423,75.552a47.427,47.427,0,0,1,47.428-47.427Z" transform="translate(0 0.026)"/>
    </g>
  </g>
</svg>
