<svg xmlns="http://www.w3.org/2000/svg" viewBox="0 0 275.25 243.33"><defs><style>.cls-1{fill:none;}.cls-2{fill:#fff;}</style></defs><title>Menuicon_Office</title><g id="Layer_2" data-name="Layer 2"><g id="Layer_1-2" data-name="Layer 1"><rect class="cls-1" x="53.42" y="151" width="168" height="37.33"/><path class="cls-1" d="M221.42,15a5,5,0,0,0-5-5h-158a5,5,0,0,0-5,5V38h168Z"/><path class="cls-1" d="M53.42,228.33a5,5,0,0,0,5,5h158a5,5,0,0,0,5-5v-30h-168Z"/><path class="cls-1" d="M260.25,48H15a5,5,0,0,0-5,5V165a5,5,0,0,0,5,5H43.42V141h188v29h28.83a5,5,0,0,0,5-5V53A5,5,0,0,0,260.25,48ZM27.87,82.08a9.63,9.63,0,1,1,9.63-9.62A9.62,9.62,0,0,1,27.87,82.08Z"/><path class="cls-2" d="M260.25,38H231.42V15a15,15,0,0,0-15-15h-158a15,15,0,0,0-15,15V38H15A15,15,0,0,0,0,53V165a15,15,0,0,0,15,15H43.42v48.33a15,15,0,0,0,15,15h158a15,15,0,0,0,15-15V180h28.83a15,15,0,0,0,15-15V53A15,15,0,0,0,260.25,38ZM53.42,15a5,5,0,0,1,5-5h158a5,5,0,0,1,5,5V38h-168Zm168,213.33a5,5,0,0,1-5,5h-158a5,5,0,0,1-5-5v-30h168Zm0-40h-168V151h168ZM265.25,165a5,5,0,0,1-5,5H231.42V141h-188v29H15a5,5,0,0,1-5-5V53a5,5,0,0,1,5-5H260.25a5,5,0,0,1,5,5Z"/><circle class="cls-2" cx="27.87" cy="72.46" r="9.63"/></g></g></svg>