<svg xmlns="http://www.w3.org/2000/svg" viewBox="0 0 330.33 243.33"><defs><style>.cls-1,.cls-3{fill:none;}.cls-2{fill:#fff;}.cls-3{stroke:#fcfcfc;stroke-linecap:round;stroke-linejoin:round;stroke-width:0;}</style></defs><title>Menuicon_BuildPC</title><g id="Layer_2" data-name="Layer 2"><g id="Layer_1-2" data-name="Layer 1"><rect class="cls-1" x="97" y="172.13" width="59.67" height="22.7"/><path class="cls-1" d="M15,46.67a5,5,0,0,0-5,5v101a5,5,0,0,0,5,5H209.33v-111Zm1.21,28.66a5,5,0,0,1,0-7.07L27.8,56.67a5,5,0,0,1,7.08,7.07L23.28,75.33A5,5,0,0,1,16.21,75.33ZM32.61,97.5a5,5,0,0,1-6.84-7.3L59.52,58.6a5,5,0,0,1,7.06.23h0a5,5,0,0,1-.23,7.07Z"/><path class="cls-1" d="M84.83,204.83a13,13,0,0,0-13,13v15.5H182.34v-15.5a13,13,0,0,0-13-13H84.83Z"/><path class="cls-1" d="M243.33,152.67v-101a5,5,0,0,0-5-5h-19v111h19A5,5,0,0,0,243.33,152.67Z"/><path class="cls-1" d="M315.33,10h-91a5,5,0,0,0-5,5V36.67h19a15,15,0,0,1,15,15v101a15,15,0,0,1-15,15h-19v60.66a5,5,0,0,0,5,5h91a5,5,0,0,0,5-5V15A5,5,0,0,0,315.33,10ZM258.15,65.33a10,10,0,0,1,10-10H298.7a10,10,0,0,1,10,10v8.25a10,10,0,0,1-10,10H268.15a10,10,0,0,1-10-10ZM248.33,222a5.36,5.36,0,0,1-5.37,5.37h0a5.37,5.37,0,0,1-5.38-5.37v-6a5.38,5.38,0,0,1,5.38-5.38h0a5.37,5.37,0,0,1,5.37,5.38Zm33,5.37a16.75,16.75,0,1,1,16.75-16.75A16.75,16.75,0,0,1,281.33,227.33Zm22.21-48.25H246.33a4.75,4.75,0,0,1,0-9.5h57.21a4.75,4.75,0,0,1,0,9.5Zm.27-21.25H262.9a4.75,4.75,0,0,1,0-9.5h40.91a4.75,4.75,0,0,1,0,9.5Zm5.73-49a10,10,0,0,1-10,10H269a10,10,0,0,1-10-10v-8.25a10,10,0,0,1,10-10h30.55a10,10,0,0,1,10,10Z"/><path class="cls-2" d="M303.81,148.33H262.9a4.75,4.75,0,0,0,0,9.5h40.91a4.75,4.75,0,0,0,0-9.5Z"/><rect class="cls-2" x="258.15" y="55.33" width="50.56" height="28.25" rx="10" ry="10"/><rect class="cls-2" x="258.99" y="90.58" width="50.56" height="28.25" rx="10" ry="10"/><path class="cls-2" d="M315.33,0h-91a15,15,0,0,0-15,15V36.67H15a15,15,0,0,0-15,15v101a15,15,0,0,0,15,15H87v27.16H84.83a23,23,0,0,0-23,23v15.5a10,10,0,0,0,10,10h110.5a10,10,0,0,0,10-10v-15.5a23,23,0,0,0-23-23h-2.66V167.67h42.66v60.66a15,15,0,0,0,15,15h91a15,15,0,0,0,15-15V15A15,15,0,0,0,315.33,0Zm-146,204.83a13,13,0,0,1,13,13v15.5H71.83v-15.5a13,13,0,0,1,13-13h84.5ZM97,194.83v-22.7h59.67v22.7ZM15,157.67a5,5,0,0,1-5-5v-101a5,5,0,0,1,5-5H209.33v111Zm204.33-111h19a5,5,0,0,1,5,5v101a5,5,0,0,1-5,5h-19Zm101,181.66a5,5,0,0,1-5,5h-91a5,5,0,0,1-5-5V167.67h19a15,15,0,0,0,15-15v-101a15,15,0,0,0-15-15h-19V15a5,5,0,0,1,5-5h91a5,5,0,0,1,5,5Z"/><path class="cls-2" d="M34.87,56.67a5,5,0,0,0-7.07,0L16.21,68.26a5,5,0,0,0,7.07,7.07l11.6-11.59A5,5,0,0,0,34.87,56.67Z"/><line class="cls-3" x1="66.58" y1="58.83" x2="66.58" y2="58.83"/><path class="cls-2" d="M66.58,58.83h0a5,5,0,0,0-7.06-.23L25.77,90.2a5,5,0,0,0,6.84,7.3L66.35,65.9A5,5,0,0,0,66.58,58.83Z"/><path class="cls-2" d="M303.54,169.58H246.33a4.75,4.75,0,0,0,0,9.5h57.21a4.75,4.75,0,0,0,0-9.5Z"/><rect class="cls-2" x="237.58" y="210.58" width="10.75" height="16.75" rx="5.37" ry="5.37"/><circle class="cls-2" cx="281.33" cy="210.58" r="16.75"/></g></g></svg>