<svg xmlns="http://www.w3.org/2000/svg" viewBox="1547 998 35.5 23.546">
  <defs>
    <style>
      .cls-1 {
        fill: none;
      }

      .cls-2 {
        fill: #3d3d3d;
      }
    </style>
  </defs>
  <g id="Layer_1" data-name="Layer 1" transform="translate(1547 998)">
    <path id="Path_1081" data-name="Path 1081" class="cls-1" d="M24.554,205.993H37.11l-.2-.323H24.35v.118A.2.2,0,0,0,24.554,205.993Z" transform="translate(-21.863 -184.676)"/>
    <path id="Path_1082" data-name="Path 1082" class="cls-1" d="M200.88,205.993h12.3a.2.2,0,0,0,.2-.2v-.118H201.046Z" transform="translate(-180.374 -184.676)"/>
    <path id="Path_1083" data-name="Path 1083" class="cls-1" d="M43.351,28.7h-1.23V10.51a.51.51,0,0,0-.51-.51H11.835a.51.51,0,0,0-.51.51V28.7H10.281a.283.283,0,0,0-.283.294l.052,1.3a1.368,1.368,0,0,0,.856,1.209H42.485l.247-.153a1.522,1.522,0,0,0,.715-1.422ZM11.631,11.667a1.531,1.531,0,0,1,1.531-1.531H40.249a1.531,1.531,0,0,1,1.531,1.531V28.7H11.631ZM43,30.092a1.225,1.225,0,0,1-1.225,1.225H11.665a1.225,1.225,0,0,1-1.225-1.225V28.953H43Z" transform="translate(-8.976 -8.979)"/>
    <path id="Path_1084" data-name="Path 1084" class="cls-1" d="M63.6,21.33H36.51a.51.51,0,0,0-.51.51V37.85H64.107V21.84A.51.51,0,0,0,63.6,21.33Z" transform="translate(-32.324 -19.153)"/>
    <path id="Path_1085" data-name="Path 1085" class="cls-2" d="M56.149,12.861a1.531,1.531,0,0,0-1.531-1.531H27.531A1.531,1.531,0,0,0,26,12.861V29.892H56.149Zm-1.021,16.01H27.021V12.861a.51.51,0,0,1,.51-.51H54.617a.51.51,0,0,1,.51.51Z" transform="translate(-23.345 -10.173)"/>
    <path id="Path_1086" data-name="Path 1086" class="cls-2" d="M35.481,20.869l-.115-1.429a.81.81,0,0,0-.8-.741h-.408V1.531A1.531,1.531,0,0,0,32.623,0H2.849A1.531,1.531,0,0,0,1.317,1.531V18.7H1.292a1.3,1.3,0,0,0-1.3,1.356l.052,1.3A2.391,2.391,0,0,0,1.668,23.52l.079.027H33.788l.493-.306a2.535,2.535,0,0,0,1.2-2.371Zm-1.735,1.5-.247.153H1.92a1.368,1.368,0,0,1-.856-1.209l-.052-1.3a.283.283,0,0,1,.283-.294H2.338V1.531a.51.51,0,0,1,.51-.51H32.624a.51.51,0,0,1,.51.51V19.718h1.23l.1,1.232a1.522,1.522,0,0,1-.721,1.422Z" transform="translate(0.011)"/>
    <path id="Path_1087" data-name="Path 1087" class="cls-2" d="M14.35,196.809a1.225,1.225,0,0,0,1.225,1.225H45.688a1.225,1.225,0,0,0,1.225-1.225V195.67H14.35Zm14.214-.067v-.561h4.211v.561a.51.51,0,0,1-.51.51h-3.19A.51.51,0,0,1,28.564,196.742Zm17.328.067a.2.2,0,0,1-.2.2h-12.3l.166-.323H45.892Zm-30.521-.118H27.933l.2.323H15.582a.2.2,0,0,1-.2-.2Z" transform="translate(-12.884 -175.697)"/>
  </g>
</svg>
