<svg xmlns="http://www.w3.org/2000/svg" viewBox="0 0 327.6 327.63"><defs><style>.cls-1{fill:none;}.cls-2{fill:#fff;}</style></defs><title>Menuicon_Promotion</title><g id="Layer_2" data-name="Layer 2"><g id="Layer_1-2" data-name="Layer 1"><path class="cls-1" d="M133.34,199.49l12.82-12.56L129.34,178c-1.16-.57-2.91-1.53-5.27-2.88s-4.07-2.36-5.12-3a109.22,109.22,0,0,1,6.2,11.09Z"/><path class="cls-1" d="M288.37,72.66c0,.18,0,.35,0,.52.22,5.51.74,18.41-12.52,29.8-10.62,9.11-31.12,8.72-41,2.32-14.53-9.4-19.64-24.29-14.4-41.92l.14-.48c3-11,16.88-24.26,35.54-22.29L271,25.12c-37.46-3.84-86.44-8.69-91.71-8.7a5.24,5.24,0,0,0-2.58,1.83c-.31.32-.59.62-.85.86-2.4,2.32-163.09,163.08-165.72,165.72a1,1,0,0,0-.16.29c0,.27,0,.93,1.25,2.18L139.51,315.55l.12.14c.42.47,2.07,1.92,3.58,1.94.29,0,1.22,0,2.66-1.44,2.11-2.16,17.73-17.73,39.35-39.28,45-44.83,119.84-119.43,125.25-125.4.09-.15.17-.3.26-.44.83-1.43,1.24-2.15,1.39-5.22.08-3.81-4.4-51.88-8-88.87ZM129,237q-.71,7.77-8.16,15.08t-14.68,9.46L99,254.16a44,44,0,0,0,8.76-3.85,35.4,35.4,0,0,0,7.16-5.3q4.27-4.19,4.58-7.94a8.29,8.29,0,0,0-2.6-6.71,8.59,8.59,0,0,0-6.3-2.7q-3.67,0-12,3.16-8.59,3.26-14.38,2.29a18.88,18.88,0,0,1-10.45-5.73q-5.83-6-5.28-13.21t7.15-13.71a40.38,40.38,0,0,1,15.51-9.33l3.94,8.59q-8.49,3.09-13.09,7.59c-2.33,2.28-3.55,4.56-3.68,6.84a7.84,7.84,0,0,0,2.45,6.11,9.16,9.16,0,0,0,3.84,2.47,10.69,10.69,0,0,0,4.81.16,54.39,54.39,0,0,0,9-2.74,44.93,44.93,0,0,1,11.09-2.89,16.67,16.67,0,0,1,7.49,1,19.2,19.2,0,0,1,6.54,4.58Q129.73,229.21,129,237ZM172,200.7l-17.35-8.92-16.82,16.48,8.65,17.44-7.58,7.43L108.49,169.2l7.82-7.67,63.31,31.68Zm13.45-13.18-46.66-47.61,7.19-7,40.11,40.94,18.63-18.25,6.54,6.68Zm33.39-32.72-46.65-47.62L197.05,82.8l6.44,6.58L185.8,106.72l12.7,13,16.58-16.25,6.38,6.52-16.57,16.24,14.65,14.95,17.69-17.34,6.47,6.61Z"/><path class="cls-1" d="M10.14,184.85l-.08.08.09-.09Z"/><path class="cls-2" d="M312.08,35,279.15,67.73l-.38,1.08a12.73,12.73,0,0,0-.37,4.77c.2,5.07.54,13.57-9,21.81-7,6-22.26,5.91-29.05,1.51-10.78-7-14.23-17.29-10.25-30.67.08-.27.14-.49.19-.67,1.74-6.3,11.7-17.48,26.84-14.72l2.64.47,32.71-34-10.19-1.05C236.52,11.49,181.31,6,177.91,6.51a14.42,14.42,0,0,0-8.41,4.83c-.16.17-.3.32-.43.44-1.13,1.05-138.4,138.38-166,166A10.61,10.61,0,0,0,0,185.08a12.94,12.94,0,0,0,4.18,9.29l128,128c.9,1,4.95,5.06,10.66,5.23h.36a13.47,13.47,0,0,0,9.78-4.45c2.07-2.12,18.48-18.47,39.26-39.18C312.46,164.23,318.17,158.23,319,156.8l.4-.71c1.4-2.41,2.49-4.65,2.74-9.76s-7.46-84.86-9-100.82ZM10.14,184.85h0l-.09.09Zm302-39c-.15,3.07-.56,3.79-1.39,5.22-.09.14-.17.29-.26.44-5.41,6-80.26,80.57-125.25,125.4C163.6,298.46,148,314,145.87,316.19c-1.44,1.47-2.37,1.46-2.66,1.44-1.51,0-3.16-1.47-3.58-1.94l-.12-.14L11.25,187.3C10,186.05,10,185.39,10,185.12a1,1,0,0,1,.16-.29c2.63-2.64,163.32-163.4,165.72-165.72.26-.24.54-.54.85-.86a5.24,5.24,0,0,1,2.58-1.83c5.27,0,54.25,4.86,91.71,8.7L256.14,40.61c-18.66-2-32.51,11.3-35.54,22.29l-.14.48c-5.24,17.63-.13,32.52,14.4,41.92,9.89,6.4,30.39,6.79,41-2.32,13.26-11.39,12.74-24.29,12.52-29.8,0-.17,0-.34,0-.52L304.16,57C307.72,94,312.2,142,312.12,145.85Z"/><path class="cls-2" d="M325.4,2.2h0a7.51,7.51,0,0,0-10.62,0l-66,66a7.5,7.5,0,0,0,10.61,10.61l66-66A7.5,7.5,0,0,0,325.4,2.2Z"/><path class="cls-2" d="M117,218.28a16.67,16.67,0,0,0-7.49-1,44.93,44.93,0,0,0-11.09,2.89,54.39,54.39,0,0,1-9,2.74,10.69,10.69,0,0,1-4.81-.16,9.16,9.16,0,0,1-3.84-2.47,7.84,7.84,0,0,1-2.45-6.11c.13-2.28,1.35-4.56,3.68-6.84q4.61-4.5,13.09-7.59l-3.94-8.59a40.38,40.38,0,0,0-15.51,9.33q-6.58,6.45-7.15,13.71t5.28,13.21a18.88,18.88,0,0,0,10.45,5.73q5.78,1,14.38-2.29,8.33-3.18,12-3.16a8.59,8.59,0,0,1,6.3,2.7,8.29,8.29,0,0,1,2.6,6.71q-.3,3.75-4.58,7.94a35.4,35.4,0,0,1-7.16,5.3A44,44,0,0,1,99,254.16l7.21,7.36q7.22-2.14,14.68-9.46T129,237q.69-7.77-5.53-14.12A19.2,19.2,0,0,0,117,218.28Z"/><path class="cls-2" d="M108.49,169.2l30.39,63.93,7.58-7.43-8.65-17.44,16.82-16.48L172,200.7l7.64-7.49-63.31-31.68Zm15.58,5.93c2.36,1.35,4.11,2.31,5.27,2.88l16.82,8.92-12.82,12.56-8.19-16.3A109.22,109.22,0,0,0,119,172.1Q120.53,173.11,124.07,175.13Z"/><polygon class="cls-2" points="186.07 173.8 145.96 132.86 138.77 139.91 185.43 187.52 211.24 162.22 204.7 155.55 186.07 173.8"/><polygon class="cls-2" points="219.53 141.14 204.89 126.19 221.46 109.95 215.08 103.43 198.5 119.68 185.8 106.72 203.5 89.38 197.05 82.8 172.17 107.18 218.82 154.8 243.7 130.41 237.23 123.8 219.53 141.14"/></g></g></svg>