<svg xmlns="http://www.w3.org/2000/svg" viewBox="1555 919 17.985 26.79">
  <defs>
    <style>
      .cls-1 {
        fill: none;
      }

      .cls-2 {
        fill: #3d3d3d;
      }
    </style>
  </defs>
  <g id="Layer_1" data-name="Layer 1" transform="translate(1555 919)">
    <path id="Path_1064" data-name="Path 1064" class="cls-1" d="M110.329,52.806v-3.32a.594.594,0,0,0-.179-.425V53.23A.592.592,0,0,0,110.329,52.806Z" transform="translate(-100.267 -44.658)"/>
    <path id="Path_1065" data-name="Path 1065" class="cls-1" d="M98.9,53.606a.593.593,0,0,0,.112.346V49.94a.593.593,0,0,0-.112.346Z" transform="translate(-90.026 -45.458)"/>
    <path id="Path_1066" data-name="Path 1066" class="cls-1" d="M158.437,156.438c.232.486,1.483.254,2.243-.011a11.415,11.415,0,0,0,.333-2.289,14.438,14.438,0,0,0-.081-1.46c-.039-.222-.09-.449-.136-.682a9.155,9.155,0,0,1-.251-1.738c0-.023-.009-.046-.014-.069C159.156,152.775,157.966,155.452,158.437,156.438Z" transform="translate(-144.126 -136.713)"/>
    <path id="Path_1067" data-name="Path 1067" class="cls-1" d="M13.388,136.633a1.09,1.09,0,0,0,.785-.687c.659-1.293-.05-4.344-.734-6.526-.052.24-.111.49-.179.746a6.639,6.639,0,0,1-.236,1.135c-.109.352-.243.7-.383,1.052-.449,1.445-.915,2.766-1.131,3.362A2.859,2.859,0,0,0,13.388,136.633Z" transform="translate(-10.477 -117.807)"/>
    <path id="Path_1068" data-name="Path 1068" class="cls-1" d="M24.313,29.979a1.575,1.575,0,0,1-1.554-.8c-.639-1.336.3-3.953,3.354-9.308.294-2.178.457-5.4-.569-7.9-.756-1.848-4.558-2.071-6.406-1.991a.256.256,0,0,1,0,.026v2.461A1.494,1.494,0,0,1,20.214,13.9v3.32a1.494,1.494,0,0,1-1.077,1.436v2.145a.449.449,0,1,1-.9,0V18.63a1.493,1.493,0,0,1-1.007-1.41V13.9a1.493,1.493,0,0,1,1.009-1.41V9.984c-.2-.008-.431-.013-.681-.013-1.55,0-3.858.2-4.855,1.091-.952.855-1.286,2.559-.938,4.8l.021.135q.118.742.193,1.427l.441,1.126a33.308,33.308,0,0,1,1.128,3.546c.668,2.617.735,4.475.2,5.524a1.927,1.927,0,0,1-1.462,1.166,1.95,1.95,0,0,1-.249.016,3.3,3.3,0,0,1-1.872-.756,4.5,4.5,0,0,0,.2,1.166c.6,1.934,2.211,5.242,6.262,5.7a8.6,8.6,0,0,0,7.806-3.252c.052-.075.108-.153.165-.232a7.98,7.98,0,0,0,.963-1.63,5.079,5.079,0,0,1-1.254.179Z" transform="translate(-9.258 -9.073)"/>
    <path id="Path_1069" data-name="Path 1069" class="cls-2" d="M17.686,15.785a23.6,23.6,0,0,0-.37-2.345v-.075l.005-.1c.09-.359.26-1.145.409-2.184l.017-.047h-.01c.321-2.274.51-5.719-.619-8.478C15.92-.378,10-.018,9.433.024c-.473-.037-4.815-.3-6.579,1.282-.841.753-1.737,2.333-1.227,5.6l.021.136A19.747,19.747,0,0,1,1.9,12.162c-.171.672-.383,1.4-.6,2.117-.077.19-.157.381-.24.577a12.789,12.789,0,0,0-.978,3.032L0,18.112l.048.051a5.482,5.482,0,0,0,.21,2.227c.665,2.141,2.46,5.81,7.018,6.324a9.841,9.841,0,0,0,1.115.063,9.325,9.325,0,0,0,7.53-3.692l.16-.223a8.166,8.166,0,0,0,1.695-5.316c.013-.205.021-.413.023-.616a6.088,6.088,0,0,0-.112-1.143ZM16.4,13.463c.005.023.01.046.014.069a9.114,9.114,0,0,0,.251,1.738c.049.233.1.46.136.682.054.529.079,1.014.081,1.46a11.416,11.416,0,0,1-.333,2.289c-.758.265-2.009.5-2.243.011C13.84,18.725,15.03,16.048,16.4,13.463ZM8.986,8.481a.593.593,0,0,1-.112-.346V4.815a.593.593,0,0,1,.112-.346Zm.9-4.091a.594.594,0,0,1,.179.425v3.32a.592.592,0,0,1-.179.424ZM2.55,13.48a6.639,6.639,0,0,0,.236-1.135c.065-.256.124-.505.179-.746.684,2.181,1.393,5.233.734,6.526a1.09,1.09,0,0,1-.785.687,2.839,2.839,0,0,1-1.874-.918c.215-.6.684-1.916,1.131-3.362C2.307,14.184,2.44,13.832,2.55,13.48Zm12.8,8.859c-.057.08-.113.157-.165.232A8.608,8.608,0,0,1,7.38,25.823c-4.051-.457-5.662-3.768-6.262-5.7a4.5,4.5,0,0,1-.2-1.166,3.3,3.3,0,0,0,1.872.756,1.95,1.95,0,0,0,.249-.016A1.94,1.94,0,0,0,4.5,18.532c.538-1.049.467-2.907-.2-5.524A33.308,33.308,0,0,0,3.167,9.462L2.727,8.336Q2.65,7.65,2.534,6.909l-.022-.135c-.349-2.243-.015-3.943.939-4.8,1-.891,3.306-1.09,4.856-1.09.25,0,.479.005.681.013V3.4a1.493,1.493,0,0,0-1.012,1.41v3.32a1.493,1.493,0,0,0,1.009,1.41v2.168a.449.449,0,1,0,.9,0V9.566A1.494,1.494,0,0,0,10.96,8.131V4.811A1.494,1.494,0,0,0,9.883,3.375V.922a.255.255,0,0,0,0-.026c1.848-.08,5.653.143,6.406,1.991,1.026,2.506.863,5.725.569,7.9-3.051,5.355-3.993,7.972-3.354,9.308a1.56,1.56,0,0,0,1.551.795,5.079,5.079,0,0,0,1.256-.179,7.98,7.98,0,0,1-.961,1.626Z" transform="translate(0 0.014)"/>
  </g>
</svg>
