<svg xmlns="http://www.w3.org/2000/svg" viewBox="0 0 140.63 280.47"><defs><style>.cls-1{fill:none;}.cls-2{fill:#fff;}</style></defs><title>Menuicon_Chair</title><g id="Layer_2" data-name="Layer 2"><g id="Layer_1-2" data-name="Layer 1"><path class="cls-1" d="M57.61,60.56a96.58,96.58,0,0,0,.79-9.73c-.92.35-1.92.76-2.88,1.19-3.06,4.35-4.19,7.25-4.59,8.93A40.08,40.08,0,0,0,57.61,60.56Z"/><path class="cls-1" d="M90.07,61c-.4-1.68-1.53-4.58-4.59-8.93-1-.43-2-.84-2.88-1.19a96.58,96.58,0,0,0,.79,9.73A40.08,40.08,0,0,0,90.07,61Z"/><path class="cls-1" d="M114.52,154.33a3,3,0,0,0-1.1-1.16H32.49v.22l-4.15-.22h-.12a2.48,2.48,0,0,0-1.36,1.4c-.88,1.84-2.81,9.39,8,31.15h71.86C117.74,163.41,115.51,156.08,114.52,154.33Z"/><path class="cls-1" d="M32.49,88.14c2.44,7.32,1.19,40.58.51,55h75.5c-.68-14.45-1.93-47.71.51-55a34.39,34.39,0,0,1,4.72-8.67c3.07-4.51,5.72-8.4,5.36-16.19-.19-4-2.16-5.58-7-9.1C106.15,49.85,98,43.93,93.93,29,88.42,8.92,71.84,10,71.14,10l-.39,0-.39,0C69.69,10,53,9.16,47.57,29,43.49,43.93,35.35,49.85,29.41,54.18c-4.84,3.52-6.81,5.11-7,9.1C22.05,71.07,24.7,75,27.77,79.47A34.39,34.39,0,0,1,32.49,88.14ZM75.92,40.57c1.4-.8,4-2.3,15,3,0,0,9.83,20.91,8.21,23.81-1.4,2.53-12.76,2.71-12.76,2.71S75.57,68.5,74.53,66.28C74.53,66.28,72.94,42.27,75.92,40.57Zm-25.85,3c11-5.26,13.61-3.76,15-3,3,1.7,1.38,25.71,1.38,25.71-1,2.22-11.84,3.77-11.84,3.77s-11.36-.18-12.77-2.71C40.24,64.44,50.07,43.53,50.07,43.53Z"/><path class="cls-2" d="M136.25,248.3l-1.37-10.53-46.25-6.14L103.14,225a4,4,0,0,0-.15,1c0,2.61,2.59,4.72,5.77,4.72s5.78-2.11,5.78-4.72c0-2.32-2.05-4.24-4.74-4.64l-3.94-8.64L75.75,226.52v-30.8H112.8l1.39-2.71c1.15-2.22,2.19-4.35,3.16-6.43l19.15,6v-63.9h2.71v-10H123.79v10h2.71V179l-5.22-1.64c4.74-12.6,5.39-21.82,2-27.91a12.37,12.37,0,0,0-4.66-4.78c-1.16-23.5-1.5-49.1-.09-53.35A26.74,26.74,0,0,1,122,85.09c3.38-5,7.6-11.15,7.08-22.27-.42-9-6.1-13.09-11.11-16.73-5.53-4-11.24-8.18-14.4-19.69C97.52,4.32,79.69-.5,70.75,0,61.81-.5,44,4.32,37.93,26.4c-3.16,11.51-8.87,15.67-14.4,19.69-5,3.64-10.69,7.77-11.11,16.73-.52,11.12,3.7,17.3,7.08,22.27A26.74,26.74,0,0,1,23,91.3c1.41,4.25,1.07,29.85-.09,53.35a12.37,12.37,0,0,0-4.66,4.78c-3.44,6.13-2.78,15.4,2,28.11L15.71,179V128.72h2.71v-10H3v10H5.71v63.9l18.53-5.84c1,2,2,4.08,3.07,6.23l1.39,2.71H65.75v30.8L35.64,212.76,31.7,221.4C29,221.8,27,223.72,27,226c0,2.61,2.59,4.72,5.78,4.72s5.77-2.11,5.77-4.72a4,4,0,0,0-.15-1L52,231.23,6.6,236l-3.11,14.2A6,6,0,0,0,0,255.36c0,3.42,3.39,6.19,7.56,6.19s7.57-2.77,7.57-6.19a5.55,5.55,0,0,0-1.69-3.89l1.38-6.32,51.23-5.33,1.64,29.87a5.75,5.75,0,0,0-2.5,4.59c0,3.42,3.38,6.19,7.56,6.19s7.56-2.77,7.56-6.19a5.76,5.76,0,0,0-2.61-4.67l-1.63-29.56L126,246.67l.55,4.17a5.36,5.36,0,0,0-1,3.07c0,3.41,3.39,6.18,7.56,6.18s7.57-2.77,7.57-6.18A6.25,6.25,0,0,0,136.25,248.3ZM22.41,63.28c.19-4,2.16-5.58,7-9.1C35.35,49.85,43.49,43.93,47.57,29,53,9.16,69.69,10,70.36,10l.39,0,.39,0c.7-.06,17.28-1.12,22.79,19C98,43.93,106.15,49.85,112.09,54.18c4.84,3.52,6.81,5.11,7,9.1.36,7.79-2.29,11.68-5.36,16.19A34.39,34.39,0,0,0,109,88.14c-2.44,7.32-1.19,40.58-.51,55H33c.68-14.45,1.93-47.71-.51-55a34.39,34.39,0,0,0-4.72-8.67C24.7,75,22.05,71.07,22.41,63.28Zm4.44,91.29a2.48,2.48,0,0,1,1.36-1.4h.12l4.15.22v-.22h80.93a3,3,0,0,1,1.1,1.16c1,1.75,3.22,9.08-7.84,31.39H34.82C24,164,26,156.41,26.85,154.57Z"/><path class="cls-2" d="M54.62,70.05s10.81-1.55,11.84-3.77c0,0,1.6-24-1.38-25.71-1.4-.8-4-2.3-15,3,0,0-9.83,20.91-8.22,23.81C43.26,69.87,54.62,70.05,54.62,70.05Zm.9-18c1-.43,2-.84,2.88-1.19a96.58,96.58,0,0,1-.79,9.73,40.08,40.08,0,0,1-6.68.39C51.33,59.27,52.46,56.37,55.52,52Z"/><path class="cls-2" d="M86.38,70.05s11.36-.18,12.76-2.71c1.62-2.9-8.21-23.81-8.21-23.81-11-5.26-13.61-3.76-15-3-3,1.7-1.39,25.71-1.39,25.71C75.57,68.5,86.38,70.05,86.38,70.05Zm-.9-18c3.06,4.35,4.19,7.25,4.59,8.93a40.08,40.08,0,0,1-6.68-.39,96.58,96.58,0,0,1-.79-9.73C83.52,51.18,84.52,51.59,85.48,52Z"/></g></g></svg>