<svg xmlns="http://www.w3.org/2000/svg" viewBox="0 0 268.22 255.46"><defs><style>.cls-1{fill:none;}.cls-2{fill:#3d3d3d;}.cls-3{fill:#fff;}</style></defs><title>Black_CCTV</title><g id="Layer_2" data-name="Layer 2"><g id="Layer_1-2" data-name="Layer 1"><path class="cls-1" d="M12.67,183.46A2.68,2.68,0,0,0,10,186.13V242.8a2.67,2.67,0,0,0,5.33,0V186.13A2.67,2.67,0,0,0,12.67,183.46Z"/><path class="cls-1" d="M45.49,192H27.11v47.75H45.49a23.88,23.88,0,0,0,0-47.75ZM47,230.63a15.5,15.5,0,1,1,15.5-15.5A15.49,15.49,0,0,1,47,230.63Z"/><path class="cls-2" d="M267.41,71.15c-1.75-2.81-3.29-5.25-40.56,1.77l1.26-3.82a15.84,15.84,0,0,0-10.09-20L71.12.8a15.83,15.83,0,0,0-20,10.08L27.05,84.13a15.84,15.84,0,0,0,10.09,20L74,116.23a13.58,13.58,0,0,0,6.36,21.39L90.64,141l-33.1,43.2a33.75,33.75,0,0,0-12-2.23H24.62A12.66,12.66,0,0,0,0,186.13V242.8a12.66,12.66,0,0,0,23.26,6.92H45.49a33.86,33.86,0,0,0,20.84-60.55l34.37-44.86,11.56,3.81h0a13.54,13.54,0,0,0,17.81-13.45l54,17.76a16,16,0,0,0,5,.8,15.87,15.87,0,0,0,15-10.89l1.41-4.28c21.31,23,26.42,26,29.18,26a5.46,5.46,0,0,0,1.32-.19c2.88-.64,4.16-3,6.4-8.37,4.18-10,11.2-30.47,16.3-46.34C269.67,74.76,268.82,73.4,267.41,71.15ZM15.33,242.8a2.67,2.67,0,0,1-5.33,0V186.13a2.67,2.67,0,1,1,5.33,0Zm54-27a23.9,23.9,0,0,1-23.87,23.87H27.11V192H45.49A23.9,23.9,0,0,1,69.36,215.85Zm50.56-79.52a3.6,3.6,0,0,1-4.53,2.29h0l-31.91-10.5a3.59,3.59,0,1,1,2.25-6.81l31.9,10.49A3.6,3.6,0,0,1,119.92,136.33Z"/><path class="cls-3" d="M117.63,131.8l-31.9-10.49a3.59,3.59,0,1,0-2.25,6.81l31.91,10.5h0a3.59,3.59,0,0,0,2.24-6.82Z"/><path class="cls-2" d="M47,199.63a15.5,15.5,0,1,0,15.5,15.5A15.49,15.49,0,0,0,47,199.63Zm0,21.61a6.11,6.11,0,1,1,6.11-6.11A6.12,6.12,0,0,1,47,221.24Z"/><circle class="cls-3" cx="47.02" cy="215.13" r="6.11"/></g></g></svg>