<svg xmlns="http://www.w3.org/2000/svg" viewBox="0 0 330.35 244"><defs><style>.cls-1{fill:none;}.cls-2{fill:#3d3d3d;}.cls-3{fill:#474747;}</style></defs><title>Black_PCGaming</title><g id="Layer_2" data-name="Layer 2"><g id="Layer_1-2" data-name="Layer 1"><path class="cls-1" d="M35.46,56.16a5,5,0,0,0-7.07,0l-11.6,11.6a5,5,0,0,0,7.07,7.07l11.6-11.6A5,5,0,0,0,35.46,56.16Z"/><path class="cls-1" d="M252.88,157.33h51a4.75,4.75,0,0,0,0-9.5h-51v8.8C252.92,156.86,252.9,157.1,252.88,157.33Z"/><path class="cls-1" d="M300.13,118.33a10,10,0,0,0,10-10v-8.25a10,10,0,0,0-10-10H252.92v28.25Z"/><rect class="cls-1" x="97.59" y="166.8" width="59.67" height="26.05"/><path class="cls-1" d="M85.42,204.33a13,13,0,0,0-13,13v15.5H182.93v-15.5a13,13,0,0,0-13-13H85.42Z"/><path class="cls-1" d="M298.88,83.08a10,10,0,0,0,10-10V64.83a10,10,0,0,0-10-10h-46V83.08Z"/><circle class="cls-1" cx="281.92" cy="210.08" r="16.75"/><path class="cls-1" d="M243.54,210.08a5.38,5.38,0,0,0-5.37,5.37v6a5.38,5.38,0,1,0,10.75,0v-6A5.38,5.38,0,0,0,243.54,210.08Z"/><path class="cls-1" d="M67.17,58.33h0a5,5,0,0,0-7.07-.23L26.36,89.7A5,5,0,0,0,33.19,97L66.94,65.4a5,5,0,0,0,.23-7.07Z"/><path class="cls-1" d="M304.13,169.08H246.92a4.75,4.75,0,0,0,0,9.5h57.21a4.75,4.75,0,0,0,0-9.5Z"/><path class="cls-2" d="M87.59,194.33H85.42a23,23,0,0,0-23,23v15.5a10,10,0,0,0,10,10h110.5a10,10,0,0,0,10-10v-15.5a23,23,0,0,0-23-23h-2.67v-27.7H87.59Zm82.33,10a13,13,0,0,1,13,13v15.5H72.42v-15.5a13,13,0,0,1,13-13h84.5ZM97.59,166.8h59.66v26H97.59Z"/><path class="cls-2" d="M320.35,0h-98.2a10,10,0,0,0-10,10V38.33h30.77a10,10,0,0,1,10,10v6.5h46a10,10,0,0,1,10,10v8.25a10,10,0,0,1-10,10h-46v7h47.21a10,10,0,0,1,10,10v8.25a10,10,0,0,1-10,10H252.92v29.5h51a4.75,4.75,0,0,1,0,9.5h-51a10,10,0,0,1-10,9.3H212.15V234a10,10,0,0,0,10,10h98.2a10,10,0,0,0,10-10V10A10,10,0,0,0,320.35,0ZM248.92,221.45a5.38,5.38,0,1,1-10.75,0v-6a5.38,5.38,0,0,1,10.75,0Zm33,5.38a16.75,16.75,0,1,1,16.75-16.75A16.75,16.75,0,0,1,281.92,226.83Zm22.21-48.25H246.92a4.75,4.75,0,0,1,0-9.5h57.21a4.75,4.75,0,0,1,0,9.5Z"/><path class="cls-3" d="M252.88,157.33c0-.23,0-.47,0-.7V48.33a10,10,0,0,0-10-10H10a10,10,0,0,0-10,10v108.3a10,10,0,0,0,10,10H242.92A10,10,0,0,0,252.88,157.33ZM16.79,74.83a5,5,0,0,1,0-7.07l11.6-11.6a5,5,0,1,1,7.07,7.07l-11.6,11.6A5,5,0,0,1,16.79,74.83ZM66.94,65.4,33.19,97a5,5,0,0,1-6.83-7.3L60.1,58.1a5,5,0,0,1,7.07.23h0A5,5,0,0,1,66.94,65.4Z"/></g></g></svg>