<svg xmlns="http://www.w3.org/2000/svg" viewBox="1547 1152 35.5 23.15">
  <defs>
    <style>
      .cls-1 {
        fill: none;
      }

      .cls-2 {
        fill: #3d3d3d;
      }
    </style>
  </defs>
  <g id="Layer_1" data-name="Layer 1" transform="translate(1547 1152)">
    <path id="Path_1109" data-name="Path 1109" class="cls-1" d="M42.769,109.85H10.546A.546.546,0,0,0,10,110.4v7.865a.546.546,0,0,0,.546.546H42.769a.546.546,0,0,0,.546-.546V110.4A.546.546,0,0,0,42.769,109.85Zm-27.021,5.38H13.791a.97.97,0,1,1,0-1.939h1.957a.97.97,0,0,1,0,1.939Zm4.56,0H18.352a.97.97,0,1,1,0-1.939h1.957a.97.97,0,0,1,0,1.939Zm19.907,0H38.259a.97.97,0,1,1,0-1.939h1.957a.97.97,0,0,1,0,1.939Z" transform="translate(-8.908 -97.851)"/>
    <path id="Path_1110" data-name="Path 1110" class="cls-2" d="M33.862,43.417H28.975l3.27-6.1a.546.546,0,1,0-.962-.516l-3.547,6.616H1.638A1.638,1.638,0,0,0,0,45.056V52.92a1.638,1.638,0,0,0,1.638,1.638H4.781v.168a.966.966,0,0,0,1.93,0v-.168h22.21v.168a.966.966,0,0,0,1.93,0v-.168h3.01A1.638,1.638,0,0,0,35.5,52.92V45.056a1.638,1.638,0,0,0-1.638-1.638Zm.546,9.5a.546.546,0,0,1-.546.546H1.638a.546.546,0,0,1-.546-.546V45.056a.546.546,0,0,1,.546-.546H33.862a.546.546,0,0,1,.546.546Z" transform="translate(0 -32.51)"/>
    <path id="Path_1111" data-name="Path 1111" class="cls-2" d="M38.492,141.346H36.535a.97.97,0,1,0,0,1.939h1.957a.97.97,0,0,0,0-1.939Z" transform="translate(-31.651 -125.906)"/>
    <path id="Path_1112" data-name="Path 1112" class="cls-2" d="M80.242,141.346H78.285a.97.97,0,1,0,0,1.939h1.957a.97.97,0,0,0,0-1.939Z" transform="translate(-68.841 -125.906)"/>
    <path id="Path_1113" data-name="Path 1113" class="cls-2" d="M262.492,141.346h-1.957a.97.97,0,1,0,0,1.939h1.957a.97.97,0,0,0,0-1.939Z" transform="translate(-231.183 -125.906)"/>
    <path id="Path_1114" data-name="Path 1114" class="cls-2" d="M149.238,52.57h0a2.7,2.7,0,0,0-1.42.437.546.546,0,1,0,.584.92,1.613,1.613,0,0,1,.835-.259h0a1.538,1.538,0,0,1,.934.352.546.546,0,0,0,.711-.032h0a.546.546,0,0,0-.035-.824A2.605,2.605,0,0,0,149.238,52.57Z" transform="translate(-131.417 -46.828)"/>
    <path id="Path_1115" data-name="Path 1115" class="cls-2" d="M140.994,28.868h0a.546.546,0,0,0-.04-.809,4.259,4.259,0,0,0-4.08-.883,5.663,5.663,0,0,0-1.56.745.546.546,0,0,0,.614.9,3.448,3.448,0,0,1,4.342.084A.546.546,0,0,0,140.994,28.868Z" transform="translate(-120.349 -24.04)"/>
    <path id="Path_1116" data-name="Path 1116" class="cls-2" d="M121.756,2.469a.546.546,0,0,0,.726.036,6.08,6.08,0,0,1,3.655-1.412h.017a5.333,5.333,0,0,1,3.625,1.589.546.546,0,0,0,.735-.808A6.394,6.394,0,0,0,126.159,0h-.022a7.156,7.156,0,0,0-4.343,1.655.546.546,0,0,0-.038.814Z" transform="translate(-108.31)"/>
  </g>
</svg>
