<svg xmlns="http://www.w3.org/2000/svg" viewBox="0 0 200.43 298.59"><defs><style>.cls-1{fill:none;}.cls-2{fill:#fff;}</style></defs><title>Menuicon_GamingGear</title><g id="Layer_2" data-name="Layer 2"><g id="Layer_1-2" data-name="Layer 1"><path class="cls-1" d="M112.15,90.8v-37a6.62,6.62,0,0,0-2-4.74V95.53A6.6,6.6,0,0,0,112.15,90.8Z"/><path class="cls-1" d="M98.9,90.8a6.61,6.61,0,0,0,1.25,3.86V49.94A6.61,6.61,0,0,0,98.9,53.8Z"/><path class="cls-1" d="M159.5,219.83c2.59,5.42,16.53,2.83,25-.12a127.24,127.24,0,0,0,3.71-25.51c0-5-.3-10.37-.9-16.27-.44-2.47-1-5-1.52-7.6-1.35-6.39-2.72-13-2.8-19.37-.05-.26-.1-.51-.16-.77C167.52,179,154.25,208.84,159.5,219.83Z"/><path class="cls-1" d="M32.44,209.81c3.52-.49,6.38-3,8.75-7.66,7.35-14.41-.56-48.42-8.18-72.73-.58,2.68-1.24,5.46-2,8.31a74,74,0,0,1-2.63,12.65c-1.22,3.92-2.71,7.85-4.27,11.73-5,16.11-10.2,30.83-12.6,37.47C16.31,204,25.34,210.81,32.44,209.81Z"/><path class="cls-1" d="M167.8,233c-7.17,0-14.07-2.06-17.32-8.87-7.12-14.89,3.37-44.06,37.38-103.74,3.28-24.27,5.09-60.15-6.34-88.08-8.43-20.6-50.8-23.08-71.4-22.19a2.85,2.85,0,0,1,0,.29V37.84a16.65,16.65,0,0,1,12,16v37a16.65,16.65,0,0,1-12,16v23.91a5,5,0,0,1-10,0V106.51A16.64,16.64,0,0,1,88.9,90.8v-37a16.64,16.64,0,0,1,11.25-15.72V10.42c0-.09,0-.18,0-.28-2.25-.09-4.8-.15-7.59-.15-17.27,0-43,2.23-54.11,12.16C27.84,31.68,24.12,50.67,28,75.63l.23,1.51q1.31,8.27,2.15,15.91L35.3,105.6a371.23,371.23,0,0,1,12.57,39.52c7.44,29.17,8.19,49.88,2.23,61.57-4.88,9.58-11.55,12.37-16.29,13a21.74,21.74,0,0,1-2.78.18c-7.81,0-15.39-4.31-20.86-8.43a50.21,50.21,0,0,0,2.25,13C19.11,246,37.06,282.86,82.21,288c39.29,4.44,72.66-15.68,87-36.24.58-.84,1.2-1.7,1.84-2.59A88.94,88.94,0,0,0,181.78,231,56.61,56.61,0,0,1,167.8,233Z"/><path class="cls-2" d="M197.12,176.07A263,263,0,0,0,193,149.93c0-.28,0-.56,0-.84l.06-1.16c1-4,2.9-12.76,4.56-24.34.12-.33.19-.51.19-.52l-.11,0c3.58-25.35,5.68-63.74-6.9-94.49C177.43-4.07,111.51-.06,105.14.41,99.87,0,51.47-2.89,31.81,14.7c-9.37,8.39-19.36,26-13.68,62.47l.23,1.52c3.62,23,4.58,42.7,2.87,57-1.91,7.49-4.27,15.61-6.74,23.6-.86,2.12-1.75,4.25-2.67,6.43C7.44,176.16,2.73,187.4.92,199.51L0,202l.53.57a61.1,61.1,0,0,0,2.34,24.82c7.41,23.86,27.42,64.75,78.22,70.48a109.68,109.68,0,0,0,12.43.7c38,0,69-19.76,83.92-41.15l1.78-2.49c7.5-10.49,18.64-26,18.89-59.25.14-2.29.23-4.6.26-6.87A67.85,67.85,0,0,0,197.12,176.07Zm-14.31-25.88c.06.26.11.51.16.77.08,6.39,1.45,13,2.8,19.37.55,2.6,1.08,5.13,1.52,7.6.6,5.9.88,11.3.9,16.27a127.24,127.24,0,0,1-3.71,25.51c-8.45,2.95-22.39,5.54-25,.12C154.25,208.84,167.52,179,182.81,150.19ZM100.15,94.66A6.61,6.61,0,0,1,98.9,90.8v-37a6.61,6.61,0,0,1,1.25-3.86Zm10-45.6a6.62,6.62,0,0,1,2,4.74v37a6.6,6.6,0,0,1-2,4.73ZM28.42,150.38a74,74,0,0,0,2.63-12.65c.72-2.85,1.38-5.63,2-8.31,7.62,24.31,15.53,58.32,8.18,72.73-2.37,4.66-5.23,7.17-8.75,7.66-7.1,1-16.13-5.8-20.89-10.23,2.4-6.64,7.62-21.36,12.6-37.47C25.71,158.23,27.2,154.3,28.42,150.38Zm142.67,98.74c-.64.89-1.26,1.75-1.84,2.59-14.38,20.56-47.75,40.68-87,36.24-45.15-5.09-63.1-42-69.79-63.51a50.21,50.21,0,0,1-2.25-13c5.47,4.12,13.05,8.43,20.86,8.43a21.74,21.74,0,0,0,2.78-.18c4.74-.66,11.41-3.45,16.29-13,6-11.69,5.21-32.4-2.23-61.57A371.23,371.23,0,0,0,35.3,105.6L30.39,93.05q-.86-7.65-2.15-15.91L28,75.63c-3.89-25-.17-43.95,10.47-53.48C49.58,12.22,75.32,10,92.59,10c2.79,0,5.34.06,7.59.15,0,.1,0,.19,0,.28V38.08A16.64,16.64,0,0,0,88.9,53.8v37a16.64,16.64,0,0,0,11.25,15.71v24.16a5,5,0,0,0,10,0V106.76a16.65,16.65,0,0,0,12-16v-37a16.65,16.65,0,0,0-12-16V10.42a2.85,2.85,0,0,0,0-.29c20.6-.89,63,1.59,71.4,22.19,11.43,27.93,9.62,63.81,6.34,88.08-34,59.68-44.5,88.85-37.38,103.74C153.73,231,160.63,233,167.8,233a56.61,56.61,0,0,0,14-2A88.94,88.94,0,0,1,171.09,249.12Z"/></g></g></svg>