<svg xmlns="http://www.w3.org/2000/svg" viewBox="1550 1226 28.216 27.055">
  <defs>
    <style>
      .cls-1 {
        fill: none;
      }

      .cls-2 {
        fill: #3d3d3d;
      }
    </style>
  </defs>
  <g id="Layer_1" data-name="Layer 1" transform="translate(1550 1226)">
    <path id="Path_1121" data-name="Path 1121" class="cls-1" d="M39.777,209a.647.647,0,1,0,.647.647A.647.647,0,0,0,39.777,209Z" transform="translate(-34.986 -186.865)"/>
    <path id="Path_1122" data-name="Path 1122" class="cls-1" d="M10.56,183.6a.283.283,0,1,0-.564,0v6a.283.283,0,0,0,.564,0Z" transform="translate(-8.936 -163.884)"/>
    <path id="Path_1123" data-name="Path 1123" class="cls-1" d="M27.277,192H25.33v5.057h1.947a2.529,2.529,0,1,0,0-5.058Zm.162,4.094a1.642,1.642,0,1,1,1.642-1.642,1.642,1.642,0,0,1-1.642,1.642Z" transform="translate(-22.647 -171.661)"/>
    <path id="Path_1124" data-name="Path 1124" class="cls-2" d="M28.132,7.533c-.185-.3-.348-.556-4.3.187l.133-.4A1.676,1.676,0,0,0,22.9,5.2L7.343.082A1.676,1.676,0,0,0,5.225,1.15L2.677,8.907a1.676,1.676,0,0,0,1.068,2.118l3.9,1.285a1.4,1.4,0,0,0-.245.449,1.44,1.44,0,0,0,.917,1.816l1.089.355L5.905,19.505a3.574,3.574,0,0,0-1.271-.236H2.607A1.341,1.341,0,0,0,0,19.71v6a1.341,1.341,0,0,0,2.463.733H4.629a3.586,3.586,0,0,0,2.207-6.413l3.64-4.751,1.224.4h0a1.436,1.436,0,0,0,1.887-1.423l5.719,1.88a1.675,1.675,0,0,0,2.118-1.069l.149-.453c2.257,2.436,2.8,2.754,3.091,2.754a.577.577,0,0,0,.139-.02c.305-.068.441-.318.678-.886.443-1.059,1.186-3.227,1.726-4.908C28.371,7.915,28.277,7.771,28.132,7.533Zm-6.186,5.931,1.511-4.6c1.365-.264,2.869-.508,3.616-.572-.391,1.567-1.956,6.284-2.578,7.77-.56-.5-1.613-1.581-2.549-2.6Zm.7-5.517-1.9,5.774h0l-.335,1.017a.615.615,0,0,1-.778.393L4.075,10.016a.617.617,0,0,1-.393-.778L6.235,1.48a.617.617,0,0,1,.586-.424.611.611,0,0,1,.193.031L22.571,6.206a.616.616,0,0,1,.393.782l-.318.967ZM12.512,14.431a.379.379,0,0,1-.19.22.374.374,0,0,1-.29.022L8.652,13.566a.38.38,0,1,1,.238-.721l3.378,1.111a.381.381,0,0,1,.243.48ZM1.342,25.993a.283.283,0,0,1-.283-.282v-6a.283.283,0,1,1,.564,0v6a.282.282,0,0,1-.282.282Zm3.283-.608H2.683V20.331H4.629a2.529,2.529,0,1,1,0,5.058Z" transform="translate(0 0.003)"/>
    <path id="Path_1125" data-name="Path 1125" class="cls-2" d="M31.382,199.63a1.642,1.642,0,1,0,1.642,1.642,1.642,1.642,0,0,0-1.642-1.642Zm0,2.289a.647.647,0,1,1,.647-.647A.647.647,0,0,1,31.382,201.919Z" transform="translate(-26.59 -178.488)"/>
  </g>
</svg>
