<svg xmlns="http://www.w3.org/2000/svg" viewBox="0 0 183.91 238"><defs><style>.cls-1{fill:none;}.cls-2{fill:#fff;}</style></defs><title>Menuicon_Webcam_3</title><g id="Layer_2" data-name="Layer 2"><g id="Layer_1-2" data-name="Layer 1"><circle class="cls-1" cx="91.95" cy="91.95" r="10.82"/><path class="cls-1" d="M62.59,26.21a5.47,5.47,0,0,0,4.26.11,70.12,70.12,0,0,1,50.22,0,5.45,5.45,0,0,0,4.25-.11,5.32,5.32,0,0,0,2.81-3l1.81-4.85a80.22,80.22,0,0,0-68,0l1.82,4.84A5.28,5.28,0,0,0,62.59,26.21Z"/><path class="cls-1" d="M129.82,92A37.87,37.87,0,1,0,92,129.82,37.91,37.91,0,0,0,129.82,92Zm-59.5,0A21.64,21.64,0,1,1,92,113.59,21.65,21.65,0,0,1,70.32,92Z"/><path class="cls-1" d="M108.37,182.44a92.26,92.26,0,0,1-33.19-.07l-.06.18c-1.37,3.33-11.38,20.75-13.41,23.27l55.4-.21C111.5,198.66,109,189.6,108.37,182.44Z"/><path class="cls-1" d="M148.9,216.36h-8.26a35,35,0,0,1-5.56-.43,5.35,5.35,0,0,1-2.12.43H35a16.15,16.15,0,0,0-14.52,9l-.92,1.85H164.34l-.93-1.85A16.15,16.15,0,0,0,148.9,216.36Z"/><path class="cls-1" d="M111.54,171.7h.13c8.87-2.11,61.42-17.3,61.42-79.74a81.07,81.07,0,0,0-37.56-68.34L134.25,27a16,16,0,0,1-8.5,9.07,16.24,16.24,0,0,1-12.58.32,59.23,59.23,0,0,0-42.43,0,16.16,16.16,0,0,1-12.58-.32A16,16,0,0,1,49.66,27l-1.28-3.4A81.07,81.07,0,0,0,92,173.09C98.83,173.09,105,173.4,111.54,171.7ZM43.27,92A48.69,48.69,0,1,1,92,140.64,48.74,48.74,0,0,1,43.27,92Z"/><path class="cls-2" d="M140.64,92A48.69,48.69,0,1,0,92,140.64,48.74,48.74,0,0,0,140.64,92ZM54.09,92A37.87,37.87,0,1,1,92,129.82,37.91,37.91,0,0,1,54.09,92Z"/><path class="cls-2" d="M113.59,92A21.64,21.64,0,1,0,92,113.59,21.65,21.65,0,0,0,113.59,92ZM81.14,92A10.82,10.82,0,1,1,92,102.77,10.82,10.82,0,0,1,81.14,92Z"/><path class="cls-2" d="M173.09,220.5a26.89,26.89,0,0,0-24.19-14.95h-8.26c-18.84,0-21.26-19.79-21.57-25.06,11.26-1,64.15-23.57,64.84-88.53A92,92,0,1,0,64.56,179.74c-3.89,9.08-12.62,25.81-21.29,25.81H35A26.91,26.91,0,0,0,10.82,220.5L6,230.17A5.4,5.4,0,0,0,10.82,238H173.09a5.42,5.42,0,0,0,4.84-7.83ZM92,10.82a80.69,80.69,0,0,1,34,7.55l-1.81,4.85a5.32,5.32,0,0,1-2.81,3,5.45,5.45,0,0,1-4.25.11,70.12,70.12,0,0,0-50.22,0,5.47,5.47,0,0,1-4.26-.11,5.28,5.28,0,0,1-2.8-3L58,18.38A80.54,80.54,0,0,1,92,10.82ZM10.82,92A81.06,81.06,0,0,1,48.38,23.62L49.66,27a16,16,0,0,0,8.5,9.06,16.16,16.16,0,0,0,12.58.32,59.23,59.23,0,0,1,42.43,0,16.24,16.24,0,0,0,12.58-.32,16,16,0,0,0,8.5-9.07l1.28-3.39A81.07,81.07,0,0,1,173.09,92c0,62.44-52.55,77.63-61.42,79.74h-.13c-6.59,1.7-12.71,1.39-19.59,1.39A81.23,81.23,0,0,1,10.82,92Zm64.3,90.6.06-.18a92.26,92.26,0,0,0,33.19.07c.66,7.16,3.13,16.22,8.74,23.17l-55.4.21C63.74,203.3,73.75,185.88,75.12,182.55ZM19.57,227.18l.92-1.85a16.15,16.15,0,0,1,14.52-9H148.9a16.15,16.15,0,0,1,14.51,9l.93,1.85Z"/></g></g></svg>