<svg xmlns="http://www.w3.org/2000/svg" viewBox="0 0 347.77 230.67"><defs><style>.cls-1{fill:none;}.cls-2{fill:#fff;}</style></defs><title>Menuicon_Laptop</title><g id="Layer_2" data-name="Layer 2"><g id="Layer_1-2" data-name="Layer 1"><path class="cls-1" d="M26.35,208.83h123l-2-3.16H24.35v1.16A2,2,0,0,0,26.35,208.83Z"/><path class="cls-1" d="M200.88,208.83H321.35a2,2,0,0,0,2-2v-1.16H202.51Z"/><path class="cls-1" d="M336.74,193.17H324.69V15a5,5,0,0,0-5-5H28a5,5,0,0,0-5,5V193.17H12.77A2.77,2.77,0,0,0,10,196.05l.51,12.78a13.4,13.4,0,0,0,8.39,11.84H328.26l2.42-1.5a14.91,14.91,0,0,0,7-13.93ZM26,26.33a15,15,0,0,1,15-15H306.35a15,15,0,0,1,15,15V193.17H26Zm307.33,180.5a12,12,0,0,1-12,12h-295a12,12,0,0,1-12-12V195.67h319Z"/><path class="cls-1" d="M306.35,21.33H41a5,5,0,0,0-5,5V183.17H311.35V26.33A5,5,0,0,0,306.35,21.33Z"/><path class="cls-2" d="M321.35,26.33a15,15,0,0,0-15-15H41a15,15,0,0,0-15,15V193.17H321.35Zm-10,156.84H36V26.33a5,5,0,0,1,5-5H306.35a5,5,0,0,1,5,5Z"/><path class="cls-2" d="M347.68,204.44l-1.13-14a7.94,7.94,0,0,0-7.87-7.26h-4V15a15,15,0,0,0-15-15H28A15,15,0,0,0,13,15V183.17h-.25A12.76,12.76,0,0,0,0,196.45l.51,12.78a23.42,23.42,0,0,0,15.92,21.18l.77.26h313.9l4.83-3A24.83,24.83,0,0,0,347.68,204.44Zm-17,14.73-2.42,1.5H18.9a13.4,13.4,0,0,1-8.39-11.84L10,196.05a2.77,2.77,0,0,1,2.77-2.88H23V15a5,5,0,0,1,5-5H319.69a5,5,0,0,1,5,5V193.17h12.05l1,12.07A14.91,14.91,0,0,1,330.68,219.17Z"/><path class="cls-2" d="M14.35,206.83a12,12,0,0,0,12,12h295a12,12,0,0,0,12-12V195.67h-319Zm139.25-.66v-5.5h41.25v5.5a5,5,0,0,1-5,5H158.6A5,5,0,0,1,153.6,206.17Zm169.75.66a2,2,0,0,1-2,2H200.88l1.63-3.16H323.35Zm-299-1.16H147.42l2,3.16h-123a2,2,0,0,1-2-2Z"/></g></g></svg>