<svg xmlns="http://www.w3.org/2000/svg" viewBox="0 0 266.44 255.46"><defs><style>.cls-1{fill:none;}.cls-2{fill:#fff;}</style></defs><title>Menuicon_CCTV</title><g id="Layer_2" data-name="Layer 2"><g id="Layer_1-2" data-name="Layer 1"><path class="cls-1" d="M45.24,209a6.11,6.11,0,1,0,6.11,6.11A6.11,6.11,0,0,0,45.24,209Z"/><path class="cls-1" d="M15.33,186.13a2.67,2.67,0,1,0-5.33,0V242.8a2.67,2.67,0,0,0,5.33,0Z"/><path class="cls-1" d="M43.71,192H25.33v47.75H43.71a23.88,23.88,0,0,0,0-47.75Zm1.53,38.66a15.5,15.5,0,1,1,15.5-15.5A15.5,15.5,0,0,1,45.24,230.63Z"/><path class="cls-2" d="M265.63,71.15c-1.75-2.81-3.29-5.25-40.56,1.77l1.26-3.82a15.83,15.83,0,0,0-10.09-20L69.34.8a15.83,15.83,0,0,0-20,10.08L25.28,84.13a15.83,15.83,0,0,0,10.08,20l36.87,12.13a13.23,13.23,0,0,0-2.31,4.24,13.6,13.6,0,0,0,8.66,17.15L88.86,141l-33.1,43.2a33.75,33.75,0,0,0-12-2.23H24.62A12.66,12.66,0,0,0,0,186.13V242.8a12.66,12.66,0,0,0,23.26,6.92H43.71a33.86,33.86,0,0,0,20.84-60.55l34.37-44.86,11.56,3.81h0a13.56,13.56,0,0,0,17.82-13.44l54,17.75a16,16,0,0,0,5,.8,15.87,15.87,0,0,0,15-10.89l1.41-4.28c21.31,23,26.42,26,29.19,26a5.45,5.45,0,0,0,1.31-.19c2.88-.64,4.16-3,6.4-8.37,4.18-10,11.2-30.47,16.3-46.34C267.89,74.76,267,73.4,265.63,71.15Zm-58.41,56,14.27-43.4c12.89-2.49,27.09-4.8,34.14-5.4-3.69,14.8-18.47,59.34-24.34,73.37C226,147,216.06,136.79,207.22,127.19Zm6.6-52.09-17.93,54.52h0l-3.16,9.6a5.81,5.81,0,0,1-7.35,3.71L38.48,94.6a5.83,5.83,0,0,1-3.71-7.35L58.87,14a5.83,5.83,0,0,1,5.53-4,5.77,5.77,0,0,1,1.82.29l146.9,48.33A5.82,5.82,0,0,1,216.83,66l-3,9.13Zm-95.68,61.23a3.58,3.58,0,0,1-1.79,2.08,3.53,3.53,0,0,1-2.74.21L81.7,128.12a3.59,3.59,0,0,1-.49-6.61,3.62,3.62,0,0,1,2.74-.2l31.9,10.49a3.6,3.6,0,0,1,2.29,4.53ZM12.67,245.46A2.67,2.67,0,0,1,10,242.8V186.13a2.67,2.67,0,1,1,5.33,0V242.8A2.66,2.66,0,0,1,12.67,245.46Zm31-5.74H25.33V192H43.71a23.88,23.88,0,0,1,0,47.75Z"/><path class="cls-2" d="M45.24,199.63a15.5,15.5,0,1,0,15.5,15.5A15.5,15.5,0,0,0,45.24,199.63Zm0,21.61a6.11,6.11,0,1,1,6.11-6.11A6.12,6.12,0,0,1,45.24,221.24Z"/></g></g></svg>