<svg xmlns="http://www.w3.org/2000/svg" viewBox="1550 1303 29.587 26.731">
  <defs>
    <style>
      .cls-1 {
        fill: none;
      }

      .cls-2 {
        fill: #3d3d3d;
      }
    </style>
  </defs>
  <g id="Layer_1" data-name="Layer 1" transform="translate(1550 1303)">
    <path id="Path_1128" data-name="Path 1128" class="cls-1" d="M19.4,17.31l.162-.337a5.177,5.177,0,0,0-.621-5.114A4.907,4.907,0,0,0,14.934,10l3.3,3.516-1.123,3.7-3.922.939L9.979,14.718a5.093,5.093,0,0,0,1.073,3.61,5.2,5.2,0,0,0,4.987,1.5l.328-.1L30.48,34.28a.772.772,0,0,0,.536.2,1.926,1.926,0,0,0,2.151-1.534,1.673,1.673,0,0,0-.476-1.145Z" transform="translate(-8.856 -8.877)"/>
    <path id="Path_1129" data-name="Path 1129" class="cls-2" d="M148.413,16.169,148.2,15.2l-4.606,4.322-2.457-.746-.637-2.661,4.687-4.361-1.084-.21c-.153-.03-3.776-.7-5.8,1.258a6.3,6.3,0,0,0-1.876,5.772L134,20.935l.786.8,2.9-2.809-.1-.328a5.2,5.2,0,0,1,1.5-4.988,5.078,5.078,0,0,1,3.61-1.072l-3.442,3.206.939,3.932,3.7,1.123,3.519-3.3a4.876,4.876,0,0,1-1.856,4.014,5.172,5.172,0,0,1-5.114.621l-.343-.162-2.683,2.46.786.8,2.118-1.942a6.275,6.275,0,0,0,5.912-.883C149.243,20.127,148.447,16.33,148.413,16.169Z" transform="translate(-118.946 -10.129)"/>
    <path id="Path_1130" data-name="Path 1130" class="cls-2" d="M29.257,150.367a1.671,1.671,0,0,1-1.145.476,1.926,1.926,0,0,1-1.532-2.151.773.773,0,0,1,.2-.536l6.453-6.255-.786-.8-6.368,6.181a1.853,1.853,0,0,0-.619,1.366,3.041,3.041,0,0,0,2.406,3.292,1.658,1.658,0,0,0,.367.04,2.972,2.972,0,0,0,1.784-.786l6.495-5.954-.786-.8Z" transform="translate(-22.597 -125.248)"/>
    <path id="Path_1131" data-name="Path 1131" class="cls-2" d="M11.867,8.214A6.275,6.275,0,0,0,10.984,2.3C8.716-.709,4.916.087,4.757.123L3.791.338,8.113,4.945,7.369,7.4l-2.661.629L.346,3.347.136,4.431c-.03.154-.7,3.771,1.258,5.794A6.3,6.3,0,0,0,7.167,12.1L20.749,26.11a1.848,1.848,0,0,0,1.366.619H22.3a3.02,3.02,0,0,0,3.11-2.41,2.713,2.713,0,0,0-.743-2.151Zm12.444,15.86a1.928,1.928,0,0,1-2.151,1.533.772.772,0,0,1-.536-.2L7.512,10.848l-.328.1A5.2,5.2,0,0,1,2.2,9.447a5.112,5.112,0,0,1-1.077-3.6L4.331,9.279,8.263,8.34l1.123-3.7L6.078,1.125a4.9,4.9,0,0,1,4.008,1.85,5.171,5.171,0,0,1,.621,5.114l-.162.337L23.835,22.919C24.027,23.144,24.4,23.706,24.312,24.073Z" transform="translate(0 -0.002)"/>
  </g>
</svg>
