<svg xmlns="http://www.w3.org/2000/svg" viewBox="1557 1265 15.614 27">
  <defs>
    <style>
      .cls-1 {
        fill: none;
      }

      .cls-2 {
        fill: #3d3d3d;
      }
    </style>
  </defs>
  <g id="Layer_1" data-name="Layer 1" transform="translate(1557 1265)">
    <path id="Path_1126" data-name="Path 1126" class="cls-1" d="M10,58.565H23.657V38.81H10Zm.442-19.316h12.75V58.1H10.442Z" transform="translate(-9.022 -35.013)"/>
    <path id="Path_1127" data-name="Path 1127" class="cls-2" d="M13.676,0H1.937A1.939,1.939,0,0,0,0,1.938V25.062A1.939,1.939,0,0,0,1.938,27H13.677a1.939,1.939,0,0,0,1.937-1.938V1.938A1.939,1.939,0,0,0,13.676,0ZM5.87,1.2H9.75a.248.248,0,1,1,0,.5H5.87a.248.248,0,1,1,0-.5ZM7.807,26.364a1.138,1.138,0,1,1,1.138-1.137,1.138,1.138,0,0,1-1.138,1.137Zm6.828-2.813H.978V3.8H14.635Z"/>
  </g>
</svg>
