<svg xmlns="http://www.w3.org/2000/svg" viewBox="1550 1075 28.216 26.13">
  <defs>
    <style>
      .cls-1 {
        fill: none;
      }

      .cls-2 {
        fill: #3d3d3d;
      }

      .cls-3 {
        fill: #5b5b5b;
      }

      .cls-4 {
        fill: #474747;
      }
    </style>
  </defs>
  <g id="Layer_1" data-name="Layer 1" transform="translate(1550 1075)">
    <path id="Path_1094" data-name="Path 1094" class="cls-1" d="M36.153,10.549A.549.549,0,0,0,35.6,10H10.719a.549.549,0,0,0-.549.549v14.67H36.153ZM13.555,13.8a.449.449,0,1,1-.448-.448A.449.449,0,0,1,13.555,13.8Zm-2.767-.935,1.68-1.618a.549.549,0,0,1,.758.792L11.55,13.651a.549.549,0,1,1-.762-.79Zm1.675,2.364-.616.617a.549.549,0,1,1-.776-.776l.617-.617a.549.549,0,1,1,.776.776Zm3.113-.995-3.733,3.809a.549.549,0,1,1-.785-.769l3.733-3.809a.549.549,0,1,1,.785.769ZM14.653,13.1a.549.549,0,1,1-.776-.776l1.1-1.1a.549.549,0,1,1,.776.775Zm1.707.247a.448.448,0,1,1,.317-.13.449.449,0,0,1-.317.13Zm1.8-1.465-.28.28a.549.549,0,1,1-.776-.776l.28-.284a.549.549,0,1,1,.776.776Z" transform="translate(-9.053 -8.902)"/>
    <path id="Path_1095" data-name="Path 1095" class="cls-2" d="M28.2,16.866V1.647A1.647,1.647,0,0,0,26.551,0H1.666A1.647,1.647,0,0,0,.019,1.647V16.866H0v3.092a1.1,1.1,0,0,0,1.1,1.1h26.02a1.1,1.1,0,0,0,1.1-1.1V16.866ZM1.117,1.647A.549.549,0,0,1,1.666,1.1H26.551a.549.549,0,0,1,.549.549v14.67H1.117Z"/>
    <path id="Path_1096" data-name="Path 1096" class="cls-3" d="M78.33,195.4H89.163a3.8,3.8,0,0,1-2.2-3.623H80.526C80.893,193.826,78.33,195.4,78.33,195.4Z" transform="translate(-69.73 -170.724)"/>
    <path id="Path_1097" data-name="Path 1097" class="cls-4" d="M72.056,224.78a.726.726,0,0,0-.726.726h0a.726.726,0,0,0,.726.726H82.974a.726.726,0,0,0,.726-.726h0a.726.726,0,0,0-.726-.726Z" transform="translate(-63.499 -200.101)"/>
    <path id="Path_1098" data-name="Path 1098" class="cls-2" d="M15.2,22.477l1.675-1.617a.549.549,0,0,0-.761-.792l-1.676,1.618a.549.549,0,1,0,.762.79Z" transform="translate(-12.703 -17.728)"/>
    <path id="Path_1099" data-name="Path 1099" class="cls-2" d="M44.494,19.807a.549.549,0,0,0-.776,0l-1.1,1.1a.55.55,0,0,0,.776.778l1.1-1.1a.549.549,0,0,0,0-.778Z" transform="translate(-37.797 -17.489)"/>
    <path id="Path_1100" data-name="Path 1100" class="cls-2" d="M17.7,49.206l-.616.617a.549.549,0,1,0,.776.776l.616-.617a.549.549,0,1,0-.776-.776Z" transform="translate(-15.067 -43.66)"/>
    <path id="Path_1101" data-name="Path 1101" class="cls-2" d="M72.286,18.7l-.28.28a.549.549,0,1,0,.776.776l.28-.28a.549.549,0,1,0-.776-.776Z" transform="translate(-63.957 -16.5)"/>
    <path id="Path_1102" data-name="Path 1102" class="cls-2" d="M20.722,40.182l-3.733,3.809a.549.549,0,0,0,.785.769l3.733-3.809a.549.549,0,0,0-.785-.769Z" transform="translate(-14.984 -35.623)"/>
    <path id="Path_1103" data-name="Path 1103" class="cls-2" d="M32.79,40.938a.449.449,0,1,0,.449-.448A.449.449,0,0,0,32.79,40.938Z" transform="translate(-29.19 -36.045)"/>
    <path id="Path_1104" data-name="Path 1104" class="cls-2" d="M62.9,32.28a.449.449,0,1,0,.449.449A.449.449,0,0,0,62.9,32.28Z" transform="translate(-55.594 -28.736)"/>
  </g>
</svg>
