<svg xmlns="http://www.w3.org/2000/svg" viewBox="0 0 159.6 276"><defs><style>.cls-1{fill:none;}.cls-2{fill:#fff;}</style></defs><title>Menuicon_Smartphone</title><g id="Layer_2" data-name="Layer 2"><g id="Layer_1-2" data-name="Layer 1"><path class="cls-1" d="M10,240.75H149.6V38.81H10ZM14.52,43.3H144.85V236H14.52Z"/><path class="cls-2" d="M139.8,0h-120A19.82,19.82,0,0,0,0,19.81V256.19A19.82,19.82,0,0,0,19.81,276h120a19.82,19.82,0,0,0,19.8-19.81V19.81A19.82,19.82,0,0,0,139.8,0ZM60,12.25H99.67a2.54,2.54,0,0,1,0,5.08H60a2.54,2.54,0,0,1,0-5.08ZM79.8,269.5a11.63,11.63,0,1,1,11.63-11.62A11.62,11.62,0,0,1,79.8,269.5Zm69.8-28.75H10V38.81H149.6Z"/></g></g></svg>