<svg xmlns="http://www.w3.org/2000/svg" viewBox="1549 1188 30.587 27.04">
  <defs>
    <style>
      .cls-1 {
        fill: none;
      }

      .cls-2 {
        fill: #3d3d3d;
      }
    </style>
  </defs>
  <g id="Layer_1" data-name="Layer 1" transform="translate(1549 1188)">
    <rect id="Rectangle_1176" data-name="Rectangle 1176" class="cls-1" width="18.669" height="4.148" transform="translate(5.936 16.78)"/>
    <path id="Path_1117" data-name="Path 1117" class="cls-1" d="M72.089,10.556A.556.556,0,0,0,71.533,10H53.976a.556.556,0,0,0-.556.556v2.556H72.089Z" transform="translate(-47.484 -8.889)"/>
    <path id="Path_1118" data-name="Path 1118" class="cls-1" d="M53.42,201.664a.556.556,0,0,0,.556.556H71.533a.556.556,0,0,0,.556-.556V198.33H53.42Z" transform="translate(-47.484 -176.291)"/>
    <path id="Path_1119" data-name="Path 1119" class="cls-1" d="M37.809,48H10.556a.556.556,0,0,0-.556.556V61a.556.556,0,0,0,.556.556h3.158V58.335H34.605v3.223h3.2A.556.556,0,0,0,38.365,61V48.556A.556.556,0,0,0,37.809,48ZM11.986,51.787a1.069,1.069,0,1,1,.757-.313A1.07,1.07,0,0,1,11.986,51.787Z" transform="translate(-8.889 -42.666)"/>
    <path id="Path_1120" data-name="Path 1120" class="cls-2" d="M28.92,4.223h-3.2V1.667A1.667,1.667,0,0,0,24.05,0H6.492A1.667,1.667,0,0,0,4.825,1.667V4.223H1.667A1.667,1.667,0,0,0,0,5.89V18.336A1.667,1.667,0,0,0,1.667,20H4.825v5.371A1.667,1.667,0,0,0,6.492,27.04H24.05a1.667,1.667,0,0,0,1.667-1.667V20h3.2a1.667,1.667,0,0,0,1.667-1.667V5.89A1.667,1.667,0,0,0,28.92,4.223ZM5.936,1.667a.556.556,0,0,1,.556-.556H24.05a.556.556,0,0,1,.556.556V4.223H5.936ZM24.605,25.373a.556.556,0,0,1-.556.556H6.492a.556.556,0,0,1-.556-.556V22.039H24.605Zm0-4.445H5.936V16.78H24.605Zm4.871-2.593a.556.556,0,0,1-.556.556h-3.2V15.669H4.825v3.223H1.667a.556.556,0,0,1-.556-.556V5.89a.556.556,0,0,1,.556-.556H28.92a.556.556,0,0,1,.556.556Z" transform="translate(0)"/>
    <circle id="Ellipse_239" data-name="Ellipse 239" class="cls-2" cx="1.07" cy="1.07" r="1.07" transform="translate(2.027 6.982)"/>
  </g>
</svg>
