<svg xmlns="http://www.w3.org/2000/svg" viewBox="0 0 263.36 237.94"><defs><style>.cls-1{fill:none;}.cls-2{fill:#fff;}</style></defs><title>Menuicon_RepairService</title><g id="Layer_2" data-name="Layer 2"><g id="Layer_1-2" data-name="Layer 1"><path class="cls-1" d="M93.87,75.07l1.44-3c.45-.94,10.83-23.8-5.53-45.52C79.37,12.67,64,10.08,54.1,10L83.46,41.3l-10,32.92L38.55,82.58,10,52c-.23,9.57,1.12,23.45,9.55,32.13A46.26,46.26,0,0,0,63.94,97.44l2.92-.89L192.48,226.12a6.87,6.87,0,0,0,4.77,1.8c14.34.59,18.17-9.35,19.15-13.65.76-3.32-2.53-8.29-4.24-10.19Z"/><path class="cls-2" d="M262.29,53.77l-1.89-8.6-41,38.47L197.53,77l-5.67-23.69,41.72-38.82-9.65-1.87c-1.36-.27-33.61-6.27-51.61,11.2-20.48,19.88-18.31,43.1-16.7,51.38L134,96.19l7,7.13,25.82-25-.9-2.92A46.28,46.28,0,0,1,179.29,31c8.67-8.43,22.55-9.79,32.13-9.54L180.78,50l8.36,35,32.92,10,31.32-29.41c0,9.86-2.55,25.21-16.52,35.73-21.71,16.36-44.57,6-45.52,5.53l-3.05-1.44-23.88,21.9,7,7.15,18.85-17.29c8.25,2.93,30.88,8.51,52.62-7.86C269.68,89,262.6,55.2,262.29,53.77Z"/><path class="cls-2" d="M59.28,223.59c-1.89,1.71-6.87,5-10.19,4.24-4.3-1-14.23-4.8-13.64-19.15a6.88,6.88,0,0,1,1.79-4.77l57.44-55.68-7-7.13L31,196.12a16.49,16.49,0,0,0-5.51,12.16c-.72,17.85,10.59,26.84,21.42,29.3a14.76,14.76,0,0,0,3.27.36c8,0,15-6.17,15.88-7l57.81-53-7-7.14Z"/><path class="cls-2" d="M105.63,73.1c2.93-8.25,8.51-30.88-7.86-52.62C77.58-6.32,43.76.76,42.34,1.08L33.74,3l38.47,41-6.62,21.9L41.9,71.5,3.08,29.78,1.21,39.43C.94,40.8-5.06,73,12.41,91c19.88,20.48,43.1,18.31,51.38,16.7L184.69,232.4c1.12,1.35,4.94,5.21,12.16,5.51l1.62,0c16.78,0,25.3-10.95,27.68-21.45,2.12-9.3-5.71-18.17-6.61-19.15ZM216.4,214.27c-1,4.3-4.81,14.24-19.15,13.65a6.87,6.87,0,0,1-4.77-1.8L66.86,96.55l-2.92.89A46.26,46.26,0,0,1,19.59,84.08C11.16,75.4,9.81,61.52,10,52L38.55,82.58l35-8.36,10-32.92L54.1,10c9.88.05,25.27,2.64,35.68,16.47,16.36,21.72,6,44.58,5.53,45.52l-1.44,3,118.29,129C213.87,206,217.16,211,216.4,214.27Z"/></g></g></svg>