<svg xmlns="http://www.w3.org/2000/svg" viewBox="1554 1113 21.571 25.63">
  <defs>
    <style>
      .cls-1 {
        fill: none;
      }

      .cls-2 {
        fill: #3d3d3d;
      }
    </style>
  </defs>
  <g id="Layer_1" data-name="Layer 1" transform="translate(1554 1113)">
    <path id="Path_1105" data-name="Path 1105" class="cls-1" d="M140.684,14.372a4.769,4.769,0,0,0,.9-2.952,4.54,4.54,0,0,0-2.959,1.668,4.461,4.461,0,0,0-.764,2.8A4.309,4.309,0,0,0,140.684,14.372Z" transform="translate(-126.568 -10.485)"/>
    <path id="Path_1106" data-name="Path 1106" class="cls-1" d="M26.424,92.332c-.38-2.626,1.679-4.409,2.557-5.04a5.121,5.121,0,0,0-4.5-2.041,11.534,11.534,0,0,0-4.234,1.056l-.135.065L19,86.085l-.043-.023a5.782,5.782,0,0,0-6.391.292l-.027.024-.03.018c-.106.064-2.619,1.657-2.5,6.384a14.989,14.989,0,0,0,4.391,9.552,3,3,0,0,0,3.028.538,9.312,9.312,0,0,1,2.9-.809,10.368,10.368,0,0,1,2.067.417,2.03,2.03,0,0,1,.35.17,2.954,2.954,0,0,0,2.93.117c1.509-.615,3.286-4.145,4.019-5.846A5.915,5.915,0,0,1,26.424,92.332Z" transform="translate(-9.187 -78.272)"/>
    <path id="Path_1107" data-name="Path 1107" class="cls-2" d="M127.949,6.309l.377-.039a5.285,5.285,0,0,0,3.8-1.878A5.757,5.757,0,0,0,133.158.4L133.1,0l-.4.054a5.538,5.538,0,0,0-3.951,2.074,5.371,5.371,0,0,0-.866,3.808ZM129.413,2.6A4.54,4.54,0,0,1,132.372.935a4.769,4.769,0,0,1-.9,2.952A4.323,4.323,0,0,1,128.649,5.4,4.467,4.467,0,0,1,129.413,2.6Z" transform="translate(-117.361)"/>
    <path id="Path_1108" data-name="Path 1108" class="cls-2" d="M21.21,87.162a5.085,5.085,0,0,1-3.162-4.128c-.391-2.7,2.509-4.449,2.537-4.468l.381-.224-.254-.363a5.983,5.983,0,0,0-5.425-2.726,12.1,12.1,0,0,0-4.445,1.073l-.737-.189a6.859,6.859,0,0,0-5.184-.63,6.057,6.057,0,0,0-2.054,1.026C2.538,76.746-.128,78.61.006,83.62c.159,5.817,4.465,9.952,4.648,10.126a3.8,3.8,0,0,0,3.951.679A8.831,8.831,0,0,1,11.15,93.7a10,10,0,0,1,1.814.377,2.252,2.252,0,0,1,.2.106,3.6,3.6,0,0,0,1.874.543,4.67,4.67,0,0,0,1.767-.381c2.276-.927,4.523-6.419,4.617-6.652l.149-.367ZM16.5,93.584a2.965,2.965,0,0,1-2.93-.117,2.03,2.03,0,0,0-.35-.17,10.451,10.451,0,0,0-2.067-.417,9.353,9.353,0,0,0-2.9.809,3,3,0,0,1-3.028-.538A14.969,14.969,0,0,1,.824,83.6c-.126-4.724,2.39-6.318,2.5-6.384l.03-.018.027-.024a5.787,5.787,0,0,1,6.391-.292l.043.023,1.118.293.135-.065A11.534,11.534,0,0,1,15.3,76.075a5.125,5.125,0,0,1,4.5,2.041c-.878.631-2.937,2.415-2.557,5.04a5.9,5.9,0,0,0,3.274,4.584C19.783,89.44,18.008,92.97,16.5,93.584Z" transform="translate(-0.001 -69.093)"/>
  </g>
</svg>
