<svg xmlns="http://www.w3.org/2000/svg" viewBox="0 0 200.43 298.57"><defs><style>.cls-1{fill:#3d3d3d;}.cls-2{fill:#fff;}</style></defs><title>Black_GamingGear</title><g id="Layer_2" data-name="Layer 2"><g id="Layer_1-2" data-name="Layer 1"><path class="cls-1" d="M190.78,28.53C177.71-3.38,114.28-.21,105.63.37a5.11,5.11,0,0,1,4.52,5.15V37.84a16.65,16.65,0,0,1,12,16v37a16.65,16.65,0,0,1-12,16v23.72a5,5,0,1,1-10,0v-24A16.63,16.63,0,0,1,88.9,90.8v-37a16.63,16.63,0,0,1,11.25-15.72V5.52a5.1,5.1,0,0,1,4.5-5.14C97.43-.1,51-2.45,31.81,14.7c-9.38,8.39-19.36,26-13.68,62.47l.23,1.52c3.62,23,4.58,42.7,2.87,57-1.91,7.49-4.27,15.62-6.74,23.61-.86,2.11-1.75,4.24-2.67,6.42C7.44,176.16,2.73,187.4.92,199.51L0,202l.53.57a61.1,61.1,0,0,0,2.34,24.82c7.41,23.86,27.42,64.75,78.22,70.48a106.76,106.76,0,0,0,12,.68c38.31,0,69.45-20.77,83.25-41.91,1.22-1.89,2.49-3.71,3.83-5.65,12.27-17.73,26.16-37.81,12.61-102C195.19,139.23,209.84,75.11,190.78,28.53ZM41.19,202.15c-2.37,4.66-5.23,7.17-8.75,7.66-7.09,1-16.13-5.8-20.89-10.23,4-11.16,16-45.13,21.46-70.16C40.63,153.73,48.54,187.74,41.19,202.15Zm138.09,25.6c-6.33,1.6-18.91,3.45-24.67-1.6-2.67-2.35-4.26-6.41-4.59-11.75-1.08-17.56,11.06-43.41,33-70.93-.61,8.49-.69,18.44,1.23,25.39C190.81,192.68,183.48,218.72,179.28,227.75Z"/><path class="cls-2" d="M11.55,199.58c4.76,4.43,13.8,11.23,20.89,10.23,3.52-.49,6.38-3,8.75-7.66,7.35-14.41-.56-48.42-8.18-72.73C27.57,154.45,15.59,188.42,11.55,199.58Z"/><path class="cls-2" d="M183,143.47c-21.9,27.52-34,53.37-33,70.93.33,5.34,1.92,9.4,4.59,11.75,5.76,5,18.34,3.2,24.67,1.6,4.2-9,11.53-35.07,4.93-58.89C182.29,161.91,182.37,152,183,143.47Z"/><path class="cls-2" d="M100.15,5.52V38.08A16.63,16.63,0,0,0,88.9,53.8v37a16.63,16.63,0,0,0,11.25,15.71v24a5,5,0,1,0,10,0V106.76a16.65,16.65,0,0,0,12-16v-37a16.65,16.65,0,0,0-12-16V5.52A5.11,5.11,0,0,0,105.63.37c-.16,0-.32,0-.48,0a4.26,4.26,0,0,0-.5.06A5.1,5.1,0,0,0,100.15,5.52Zm5.37,41.65a6.64,6.64,0,0,1,6.63,6.63v37a6.63,6.63,0,0,1-13.25,0v-37A6.64,6.64,0,0,1,105.52,47.17Z"/><path class="cls-1" d="M98.9,53.8v37a6.63,6.63,0,0,0,13.25,0v-37a6.63,6.63,0,1,0-13.25,0Z"/></g></g></svg>