<svg xmlns="http://www.w3.org/2000/svg" viewBox="0 0 257.42 238"><defs><style>.cls-1{fill:none;}.cls-2{fill:#3d3d3d;}.cls-3{fill:#5b5b5b;}.cls-4{fill:#474747;}.cls-5{fill:#fff;}</style></defs><title>Black_Monitor</title><g id="Layer_2" data-name="Layer 2"><g id="Layer_1-2" data-name="Layer 1"><path class="cls-1" d="M242.25,10H15a5,5,0,0,0-5,5V160.59H247.25V15A5,5,0,0,0,242.25,10Zm-.12,145H16V20a5,5,0,0,1,5-5H237.13a5,5,0,0,1,5,5Z"/><path class="cls-2" d="M237.13,15H21a5,5,0,0,0-5,5V155H242.13V20A5,5,0,0,0,237.13,15ZM46.05,44.57A4.09,4.09,0,1,1,42,40.49,4.09,4.09,0,0,1,46.05,44.57ZM20.89,36.05l15.3-14.74a5,5,0,0,1,6.93,7.21L27.82,43.25a5,5,0,0,1-6.93-7.2ZM36.15,57.58,30.53,63.2a5,5,0,1,1-7.07-7.07l5.62-5.62a5,5,0,0,1,7.07,7.07ZM64.5,48.52l-34,34.69a5,5,0,0,1-7.14-7l34-34.69a5,5,0,0,1,7.07-.07h0A5,5,0,0,1,64.5,48.52ZM56.08,38.2A5,5,0,0,1,49,31.13l10-10a5,5,0,0,1,7.07,7.08Zm15.55,2.25a4.09,4.09,0,1,1,4.08-4.08A4.08,4.08,0,0,1,71.63,40.45ZM88,27.11l-2.55,2.55a5,5,0,0,1-7.07-7.07L81,20A5,5,0,0,1,88,27.11Z"/><path class="cls-2" d="M257.25,153.62V15a15,15,0,0,0-15-15H15A15,15,0,0,0,0,15V158.62H.42v23.16a10,10,0,0,0,10,10h237a10,10,0,0,0,10-10V153.62Zm-10,7H10V15a5,5,0,0,1,5-5H242.25a5,5,0,0,1,5,5Z"/><path class="cls-3" d="M78.76,224.78h98.66c-22-10.48-20-33-20-33H98.76C102.09,210.42,78.76,224.78,78.76,224.78Z"/><path class="cls-4" d="M78.36,224.78a6.61,6.61,0,0,0,0,13.22h99.45a6.61,6.61,0,1,0,0-13.22H78.36Z"/><path class="cls-5" d="M27.82,43.25l15.3-14.73a5,5,0,0,0-6.93-7.21L20.89,36.05a5,5,0,0,0,6.93,7.2Z"/><path class="cls-5" d="M66.09,21.12a5,5,0,0,0-7.07,0l-10,10a5,5,0,0,0,7.07,7.07l10-10A5,5,0,0,0,66.09,21.12Z"/><path class="cls-5" d="M29.08,50.51l-5.62,5.62a5,5,0,1,0,7.07,7.07l5.62-5.62a5,5,0,0,0-7.07-7.07Z"/><path class="cls-5" d="M81,20,78.4,22.59a5,5,0,0,0,7.07,7.07L88,27.11A5,5,0,0,0,81,20Z"/><path class="cls-5" d="M64.42,41.45a5,5,0,0,0-7.07.07l-34,34.69a5,5,0,0,0,7.14,7l34-34.69a5,5,0,0,0-.08-7.07Z"/><path class="cls-5" d="M37.88,44.57A4.09,4.09,0,1,0,42,40.49,4.09,4.09,0,0,0,37.88,44.57Z"/><circle class="cls-5" cx="71.63" cy="36.37" r="4.08"/></g></g></svg>