<svg xmlns="http://www.w3.org/2000/svg" viewBox="0 0 263.54 313.13"><defs><style>.cls-1{fill:none;}.cls-2{fill:#fff;}</style></defs><title>Menuicon_Apple</title><g id="Layer_2" data-name="Layer 2"><g id="Layer_1-2" data-name="Layer 1"><path class="cls-1" d="M172.46,47.49c9.85-12.6,11.06-28.17,10.94-36.07-16.35,3.08-28.49,9.93-36.15,20.38-9,12.29-9.68,26.85-9.33,34.2C153.17,63.53,164.77,57.31,172.46,47.49Z"/><path class="cls-1" d="M210.59,171.77c-4.64-32.08,20.51-53.87,31.24-61.58C224.37,88,204.39,85.05,186.9,85.26c-25.51.26-51.47,12.77-51.73,12.9l-1.65.8-13.66-3.51-.53-.28c-45.25-24-77.76,3.3-78.08,3.57l-.33.29-.37.22c-1.29.78-32,20.25-30.49,78,1.42,53.57,35.72,99.76,53.65,116.7,10.12,9.55,27.64,11.13,37,6.57,11.6-5.64,29.51-9.88,35.46-9.88s20.61,3.58,25.25,5.1a24.8,24.8,0,0,1,4.28,2.08c6.17,3.48,16.5,9.29,35.8,1.43,18.44-7.51,40.15-50.64,49.1-71.42C222.28,213.36,213.17,189.59,210.59,171.77Z"/><path class="cls-2" d="M129.36,77.08l4.6-.48c20.53-2.14,36.13-9.86,46.38-22.95C196.67,32.77,193.15,6,193,4.92L192.3,0l-4.92.66C165.47,3.57,149.23,12.1,139.11,26c-15.06,20.68-10.77,45.48-10.58,46.52ZM147.25,31.8c7.66-10.45,19.8-17.3,36.15-20.38.12,7.9-1.09,23.47-10.94,36.07-7.69,9.82-19.29,16-34.54,18.51C137.57,58.65,138.26,44.09,147.25,31.8Z"/><path class="cls-2" d="M259.12,220.76c-22.22-9.86-35.22-26.83-38.63-50.43-4.78-33,30.65-54.36,31-54.59l4.66-2.74-3.1-4.43c-20.94-29.91-46.42-33.51-66.28-33.31-24.14.25-47.81,10.17-54.31,13.11l-9-2.31c-26.46-13.83-49-11.84-63.34-7.7a74,74,0,0,0-25.1,12.53C31,93.5-1.57,116.27.06,177.48,2,248.55,54.61,299.07,56.85,301.19c13.7,12.94,35.73,14.38,48.27,8.29,11-5.33,27.39-8.87,31.09-8.87,4,0,17.09,2.95,22.16,4.6a27.53,27.53,0,0,1,2.46,1.29c4.36,2.46,11.76,6.63,22.89,6.63a57.06,57.06,0,0,0,21.59-4.65c27.81-11.33,55.26-78.42,56.41-81.27l1.82-4.48Zm-57.58,78.46c-19.3,7.86-29.63,2-35.8-1.43a24.8,24.8,0,0,0-4.28-2.08c-4.64-1.52-19.37-5.1-25.25-5.1s-23.86,4.24-35.46,9.88c-9.4,4.56-26.92,3-37-6.57C45.78,277,11.48,230.79,10.06,177.22c-1.54-57.72,29.2-77.19,30.49-78l.37-.22.33-.29c.32-.27,32.83-27.54,78.08-3.57l.53.28L133.52,99l1.65-.8c.26-.13,26.22-12.64,51.73-12.9,17.49-.21,37.47,2.76,54.93,24.93-10.73,7.71-35.88,29.5-31.24,61.58,2.58,17.82,11.69,41.59,40,56C241.69,248.58,220,291.71,201.54,299.22Z"/></g></g></svg>