<svg xmlns="http://www.w3.org/2000/svg" viewBox="0 0 203.33 249"><defs><style>.cls-1{fill:none;}.cls-2{fill:#fff;}</style></defs><title>Menuicon_ComputerComponent</title><g id="Layer_2" data-name="Layer 2"><g id="Layer_1-2" data-name="Layer 1"><path class="cls-1" d="M30.39,210.67a7.92,7.92,0,1,0,7.91,7.91A7.92,7.92,0,0,0,30.39,210.67Z"/><rect class="cls-1" x="70.42" y="91.75" width="65.25" height="61" rx="5" ry="5"/><path class="cls-1" d="M30.83,39.46a7.92,7.92,0,1,0-7.91-7.91A7.92,7.92,0,0,0,30.83,39.46Z"/><path class="cls-1" d="M172.94,210.67a7.92,7.92,0,1,0,7.92,7.91A7.92,7.92,0,0,0,172.94,210.67Z"/><path class="cls-1" d="M188.33,10H15a5,5,0,0,0-5,5V234a5,5,0,0,0,5,5H188.33a5,5,0,0,0,5-5V15A5,5,0,0,0,188.33,10ZM30.83,13.63A17.92,17.92,0,1,1,12.92,31.55,17.94,17.94,0,0,1,30.83,13.63ZM30.39,236.5A17.92,17.92,0,1,1,48.3,218.58,17.94,17.94,0,0,1,30.39,236.5Zm123.78-17.75H65.42v-10h78.75V173l-8.84-11a15,15,0,0,1-4.66.75h-2.55v29.46h-10V162.75H107.37v29.46h-10V162.75H84.71v29.46h-10v-29.5a15,15,0,0,1-14.07-12.5H30.58v-10H60.42V127.54H30.58v-10H60.42V106.79H30.58v-10H60.42v0a15,15,0,0,1,14.33-15V54.17h10V81.75H97.42V54.17h10V81.75h10.75V54.17h10V81.75h2.5a15,15,0,0,1,15,14.79H175v10H145.67v10.75H175v10H145.67V140H175v10H145.48a14.9,14.9,0,0,1-2.23,5.93l10.92,13.6Zm18.77,17.75a17.92,17.92,0,1,1,17.92-17.92A17.93,17.93,0,0,1,172.94,236.5Zm.45-187A17.92,17.92,0,1,1,191.3,31.55,17.94,17.94,0,0,1,173.39,49.46Z"/><path class="cls-1" d="M173.39,23.63a7.92,7.92,0,1,0,7.91,7.92A7.93,7.93,0,0,0,173.39,23.63Z"/><path class="cls-2" d="M188.33,0H15A15,15,0,0,0,0,15V234a15,15,0,0,0,15,15H188.33a15,15,0,0,0,15-15V15A15,15,0,0,0,188.33,0Zm5,234a5,5,0,0,1-5,5H15a5,5,0,0,1-5-5V15a5,5,0,0,1,5-5H188.33a5,5,0,0,1,5,5Z"/><path class="cls-2" d="M30.83,49.46A17.92,17.92,0,1,0,12.92,31.55,17.94,17.94,0,0,0,30.83,49.46Zm0-25.83a7.92,7.92,0,1,1-7.91,7.92A7.93,7.93,0,0,1,30.83,23.63Z"/><path class="cls-2" d="M173.39,13.63A17.92,17.92,0,1,0,191.3,31.55,17.94,17.94,0,0,0,173.39,13.63Zm0,25.83a7.92,7.92,0,1,1,7.91-7.91A7.92,7.92,0,0,1,173.39,39.46Z"/><path class="cls-2" d="M30.39,200.67A17.92,17.92,0,1,0,48.3,218.58,17.93,17.93,0,0,0,30.39,200.67Zm0,25.83a7.92,7.92,0,1,1,7.91-7.92A7.93,7.93,0,0,1,30.39,226.5Z"/><path class="cls-2" d="M172.94,200.67a17.92,17.92,0,1,0,17.92,17.91A17.92,17.92,0,0,0,172.94,200.67Zm0,25.83a7.92,7.92,0,1,1,7.92-7.92A7.92,7.92,0,0,1,172.94,226.5Z"/><path class="cls-2" d="M145.48,150H175V140H145.67V127.29H175v-10H145.67V106.54H175v-10H145.66a15,15,0,0,0-15-14.79h-2.5V54.17h-10V81.75H107.42V54.17h-10V81.75H84.75V54.17h-10V81.78a15,15,0,0,0-14.33,15v0H30.58v10H60.42v10.75H30.58v10H60.42v12.67H30.58v10H60.64a15,15,0,0,0,14.07,12.5v29.5h10V162.75H97.37v29.46h10V162.75h10.75v29.46h10V162.75h2.55a15,15,0,0,0,4.66-.75l8.84,11v35.74H65.42v10h88.75V169.49l-10.92-13.6A14.9,14.9,0,0,0,145.48,150Zm-9.81-2.21a5,5,0,0,1-5,5H75.42a5,5,0,0,1-5-5v-51a5,5,0,0,1,5-5h55.25a5,5,0,0,1,5,5Z"/></g></g></svg>