<svg xmlns="http://www.w3.org/2000/svg" viewBox="0 0 156.28 255.07"><defs><style>.cls-1{fill:none;}.cls-2{fill:#fff;}</style></defs><title>Menuicon_Branding</title><g id="Layer_2" data-name="Layer 2"><g id="Layer_1-2" data-name="Layer 1"><path class="cls-1" d="M78.14,10a68.11,68.11,0,1,0,68.14,68.14A68.22,68.22,0,0,0,78.14,10Zm23.11,79.27,5.37,31.3L78.51,105.79,50.4,120.57l5.37-31.3L33,67.11l31.43-4.57L78.51,34.06l14,28.48L124,67.11Z"/><polygon class="cls-1" points="78.51 56.66 71.1 71.68 54.52 74.09 66.52 85.78 63.68 102.29 78.51 94.5 93.34 102.29 90.5 85.78 102.5 74.09 85.92 71.68 78.51 56.66"/><path class="cls-1" d="M36.69,144.33v86.6l39.48-39.48,38.47,38.46V147.2a77.88,77.88,0,0,1-77.95-2.87Z"/><path class="cls-2" d="M78.14,0A78.09,78.09,0,0,0,26.69,136.88V255.07l49.48-49.48,48.47,48.47V140.89A78.11,78.11,0,0,0,78.14,0Zm41.17,132.39a68.11,68.11,0,1,1,27-54.25A68.47,68.47,0,0,1,119.31,132.39Zm-4.67,97.52L76.17,191.45,36.69,230.93v-86.6a77.88,77.88,0,0,0,78,2.87Z"/><path class="cls-2" d="M78.51,34.06,64.46,62.54,33,67.11,55.77,89.27l-5.37,31.3,28.11-14.78,28.11,14.78-5.37-31.3L124,67.11,92.56,62.54Zm12,51.72,2.84,16.51L78.51,94.5l-14.83,7.79,2.84-16.51-12-11.69L71.1,71.68l7.41-15,7.41,15,16.58,2.41Z"/></g></g></svg>