<svg xmlns="http://www.w3.org/2000/svg" viewBox="0 0 263.36 237.94"><defs><style>.cls-1{fill:#3d3d3d;}</style></defs><title>Black_RepairService</title><g id="Layer_2" data-name="Layer 2"><g id="Layer_1-2" data-name="Layer 1"><path class="cls-1" d="M262.29,53.77l-1.89-8.6-41,38.47L197.53,77l-5.67-23.69,41.72-38.82-9.65-1.87c-1.36-.27-33.61-6.27-51.61,11.2-20.48,19.88-18.31,43.1-16.7,51.38L134,96.19l2.91,3h0l.07.07,4,4.1h0l27.25,27.8h0l3.16,3.23,18.85-17.29c8.25,2.93,30.88,8.51,52.62-7.86C269.68,89,262.6,55.2,262.29,53.77Z"/><path class="cls-1" d="M120.2,174.27,91.36,144.85h0l-3.67-3.75L31,196.12a16.49,16.49,0,0,0-5.51,12.16c-.72,17.85,10.59,26.84,21.42,29.3a14.76,14.76,0,0,0,3.27.36c8,0,15-6.17,15.88-7l57.81-53-3.63-3.7Z"/><path class="cls-1" d="M105.63,73.1c2.93-8.25,8.51-30.88-7.86-52.62C77.58-6.32,43.76.76,42.34,1.08L33.74,3l38.47,41-6.62,21.9L41.9,71.5,3.08,29.78,1.21,39.43C.94,40.8-5.06,73,12.41,91c19.88,20.48,43.1,18.31,51.38,16.7L184.69,232.4c1.12,1.35,4.94,5.21,12.16,5.51l1.62,0c16.78,0,25.3-10.95,27.68-21.45,2.12-9.3-5.71-18.17-6.61-19.15Z"/></g></g></svg>