<svg xmlns="http://www.w3.org/2000/svg" viewBox="0 0 213.8 235.41"><defs><style>.cls-1{fill:none;}.cls-2{fill:#fff;}</style></defs><title>Menuicon_Software_2</title><g id="Layer_2" data-name="Layer 2"><g id="Layer_1-2" data-name="Layer 1"><path class="cls-1" d="M142.68,22.1c35.62,1.88,56,25.45,56,64.68V87l-4.9,112,4.22,1.56L203.8,69.45c0-19-5.85-51.07-45-53.08l-.21,0L101.43,11l.18,7.24Z"/><path class="cls-2" d="M159.44,6.39,91.16,0,72.36,15.51l1.87,72.75a60.63,60.63,0,0,0-9.48-.75C29.05,87.51,0,118.36,0,156.26S29.05,225,64.75,225a62.68,62.68,0,0,0,45.47-19.86l82,30.26,14.86-20.8.33.12L213.8,69.78v-.21C213.85,31.23,194,8.21,159.44,6.39Zm-.83,10,.21,0c39.13,2,45,34.06,45,53.08L198,200.58,193.79,199l4.9-112v-.21c0-39.23-20.39-62.8-56-64.68l-41.07-3.85L101.43,11ZM64.75,215C34.56,215,10,188.66,10,156.26S34.56,97.51,64.75,97.51s54.75,26.36,54.75,58.75S94.94,215,64.75,215Zm64.75-58.75c0-30.67-19-56.72-45.2-65.54l-1.66-64.2,59.21,5.54.21,0c40.52,2.09,46.62,35.05,46.63,54.58L182.8,221.29,116.9,197A71.26,71.26,0,0,0,129.5,156.26Z"/><path class="cls-2" d="M87.07,157.76c0-14.52-11.21-26.33-25-26.33s-25,11.81-25,26.33,11.21,26.32,25,26.32S87.07,172.27,87.07,157.76Zm-25,16.32c-8.26,0-15-7.32-15-16.32s6.72-16.33,15-16.33,15,7.33,15,16.33S70.35,174.08,62.08,174.08Z"/><polygon class="cls-2" points="166.25 81.11 149.93 81.11 149.93 96.69 166.25 94.44 166.25 81.11"/><polygon class="cls-2" points="166.25 65.58 149.93 63.33 149.93 79.1 166.25 79.1 166.25 65.58"/><polygon class="cls-2" points="148.13 81.11 126.43 81.11 126.43 81.11 126.43 99.92 148.13 96.93 148.13 81.11"/><polygon class="cls-2" points="148.13 63.09 126.43 60.1 126.43 79.1 148.13 79.1 148.13 63.09"/></g></g></svg>