<svg xmlns="http://www.w3.org/2000/svg" viewBox="0 0 325 212.22"><defs><style>.cls-1{fill:none;}.cls-2{fill:#fff;}</style></defs><title>Menuicon_Network</title><g id="Layer_2" data-name="Layer 2"><g id="Layer_1-2" data-name="Layer 1"><path class="cls-1" d="M310,109.85H15a5,5,0,0,0-5,5v72a5,5,0,0,0,5,5H310a5,5,0,0,0,5-5v-72A5,5,0,0,0,310,109.85ZM62.63,159.1H44.71a8.88,8.88,0,1,1,0-17.75H62.63a8.88,8.88,0,0,1,0,17.75Zm41.75,0H86.46a8.88,8.88,0,1,1,0-17.75h17.92a8.88,8.88,0,0,1,0,17.75Zm182.25,0H268.71a8.88,8.88,0,1,1,0-17.75h17.92a8.88,8.88,0,0,1,0,17.75Z"/><path class="cls-2" d="M310,99.85H265.26L295.2,44a5,5,0,1,0-8.81-4.72L253.92,99.85H15a15,15,0,0,0-15,15v72a15,15,0,0,0,15,15H43.77c0,.11,0,.22,0,.33v1.21a8.84,8.84,0,0,0,17.67,0v-1.21c0-.11,0-.22,0-.33H264.77c0,.11,0,.22,0,.33v1.21a8.84,8.84,0,0,0,17.67,0v-1.21c0-.11,0-.22,0-.33H310a15,15,0,0,0,15-15v-72A15,15,0,0,0,310,99.85Zm5,87a5,5,0,0,1-5,5H15a5,5,0,0,1-5-5v-72a5,5,0,0,1,5-5H310a5,5,0,0,1,5,5Z"/><path class="cls-2" d="M62.63,141.35H44.71a8.88,8.88,0,1,0,0,17.75H62.63a8.88,8.88,0,0,0,0-17.75Z"/><path class="cls-2" d="M104.38,141.35H86.46a8.88,8.88,0,1,0,0,17.75h17.92a8.88,8.88,0,0,0,0-17.75Z"/><path class="cls-2" d="M286.63,141.35H268.71a8.88,8.88,0,1,0,0,17.75h17.92a8.88,8.88,0,0,0,0-17.75Z"/><path class="cls-2" d="M163.15,52.57h0a24.67,24.67,0,0,0-13,4,5,5,0,1,0,5.35,8.42,14.77,14.77,0,0,1,7.64-2.37h0a14.08,14.08,0,0,1,8.55,3.22,5,5,0,0,0,6.51-.29l0,0a5,5,0,0,0-.32-7.54A23.85,23.85,0,0,0,163.15,52.57Z"/><path class="cls-2" d="M189,44.2l0,0a5,5,0,0,0-.37-7.41c-13.92-11.52-27.8-10.89-37.35-8.08A51.85,51.85,0,0,0,137,35.53a5,5,0,0,0,5.62,8.24c6.88-4.72,23.21-12.89,39.75.77A5,5,0,0,0,189,44.2Z"/><path class="cls-2" d="M123.09,22.6a5,5,0,0,0,6.65.33C135.44,18.34,147.91,10,163.2,10h.16c11.59,0,22.74,4.93,33.19,14.55a5,5,0,1,0,6.73-7.4C191,5.82,177.56.05,163.4,0h-.2c-18.35,0-32.94,9.65-39.76,15.15a5,5,0,0,0-.35,7.45Z"/></g></g></svg>