<svg xmlns="http://www.w3.org/2000/svg" viewBox="0 0 327.6 327.63"><defs><style>.cls-1{fill:none;}.cls-2{fill:#3d3d3d;}</style></defs><title>Black_Promotion</title><g id="Layer_2" data-name="Layer 2"><g id="Layer_1-2" data-name="Layer 1"><path class="cls-1" d="M10.14,184.85l-.08.08.09-.09Z"/><path class="cls-2" d="M133.34,199.49l12.82-12.56L129.34,178c-1.16-.57-2.91-1.53-5.27-2.88s-4.07-2.36-5.12-3a109.22,109.22,0,0,1,6.2,11.09Z"/><path class="cls-2" d="M312.08,35,279.15,67.73l-.38,1.08a12.73,12.73,0,0,0-.37,4.77c.2,5.07.54,13.57-9,21.81-7,6-22.26,5.91-29.05,1.51-10.78-7-14.23-17.29-10.25-30.67.08-.27.14-.49.19-.67,1.74-6.3,11.7-17.48,26.84-14.72l2.64.47,32.71-34-10.19-1.05C236.52,11.49,181.31,6,177.91,6.51a14.42,14.42,0,0,0-8.41,4.83c-.16.17-.3.32-.43.44-1.13,1.05-138.4,138.38-166,166A10.61,10.61,0,0,0,0,185.08a12.94,12.94,0,0,0,4.18,9.29l128,128c.9,1,4.95,5.06,10.66,5.23h.36a13.47,13.47,0,0,0,9.78-4.45c2.07-2.12,18.48-18.47,39.26-39.18C312.46,164.23,318.17,158.23,319,156.8l.4-.71c1.4-2.41,2.49-4.65,2.74-9.76s-7.46-84.86-9-100.82ZM172,200.7l-17.35-8.92-16.82,16.48,8.65,17.44-7.58,7.43L108.49,169.2l7.82-7.67,63.31,31.68ZM68.46,214.17q.56-7.26,7.15-13.71a40.38,40.38,0,0,1,15.51-9.33l3.94,8.59q-8.49,3.09-13.09,7.59c-2.33,2.28-3.55,4.56-3.68,6.84a7.84,7.84,0,0,0,2.45,6.11,9.16,9.16,0,0,0,3.84,2.47,10.69,10.69,0,0,0,4.81.16,54.39,54.39,0,0,0,9-2.74,44.93,44.93,0,0,1,11.09-2.89,16.67,16.67,0,0,1,7.49,1,19.2,19.2,0,0,1,6.54,4.58q6.23,6.34,5.53,14.12t-8.16,15.08q-7.47,7.32-14.68,9.46L99,254.16a44,44,0,0,0,8.76-3.85,35.4,35.4,0,0,0,7.16-5.3q4.27-4.19,4.58-7.94a8.29,8.29,0,0,0-2.6-6.71,8.59,8.59,0,0,0-6.3-2.7q-3.67,0-12,3.16-8.59,3.26-14.38,2.29a18.88,18.88,0,0,1-10.45-5.73Q67.91,221.43,68.46,214.17Zm70.31-74.26,7.19-7,40.11,40.94,18.63-18.25,6.54,6.68-25.81,25.29Zm64.72-50.53L185.8,106.72l12.7,13,16.58-16.25,6.38,6.52-16.57,16.24,14.65,14.95,17.69-17.34,6.47,6.61L218.82,154.8l-46.65-47.62L197.05,82.8ZM10.14,184.85h0l-.09.09Z"/><path class="cls-2" d="M325.4,2.2h0a7.51,7.51,0,0,0-10.62,0l-66,66a7.5,7.5,0,0,0,10.61,10.61l66-66A7.5,7.5,0,0,0,325.4,2.2Z"/></g></g></svg>