<svg xmlns="http://www.w3.org/2000/svg" viewBox="0 0 275 243.33"><defs><style>.cls-1{fill:none;}.cls-2{fill:#3d3d3d;}.cls-3{fill:#fff;}</style></defs><title>Black_Office</title><g id="Layer_2" data-name="Layer 2"><g id="Layer_1-2" data-name="Layer 1"><path class="cls-1" d="M53.67,228.33a5,5,0,0,0,5,5h158a5,5,0,0,0,5-5v-30h-168Z"/><path class="cls-1" d="M216.67,10h-158a5,5,0,0,0-5,5V43h168V15A5,5,0,0,0,216.67,10Z"/><path class="cls-2" d="M265,43H231.67V15a15,15,0,0,0-15-15h-158a15,15,0,0,0-15,15V43H10A10,10,0,0,0,0,53V165a10,10,0,0,0,10,10H43.67v53.33a15,15,0,0,0,15,15h158a15,15,0,0,0,15-15V175H265a10,10,0,0,0,10-10V53A10,10,0,0,0,265,43ZM28.13,82.08a9.63,9.63,0,1,1,9.62-9.62A9.63,9.63,0,0,1,28.13,82.08ZM221.67,228.33a5,5,0,0,1-5,5h-158a5,5,0,0,1-5-5v-30h168Zm0-40h-168V151h168Zm0-145.33h-168V15a5,5,0,0,1,5-5h158a5,5,0,0,1,5,5Z"/><rect class="cls-3" x="53.67" y="151" width="168" height="37.33"/><circle class="cls-3" cx="28.13" cy="72.46" r="9.63"/></g></g></svg>