<svg xmlns="http://www.w3.org/2000/svg" viewBox="0 0 183.91 238"><defs><style>.cls-1{fill:#3d3d3d;}</style></defs><title>Black_Webcam</title><g id="Layer_2" data-name="Layer 2"><g id="Layer_1-2" data-name="Layer 1"><path class="cls-1" d="M92,129.82A37.87,37.87,0,1,0,54.09,92,37.91,37.91,0,0,0,92,129.82ZM102.77,92A10.82,10.82,0,1,1,92,81.14,10.83,10.83,0,0,1,102.77,92Z"/><path class="cls-1" d="M173.09,220.5a26.89,26.89,0,0,0-24.19-14.95h-8.26c-21.26,0-21.63-26-21.64-27.05,9.21.16,64.91-25.34,64.91-86.54A92,92,0,1,0,64.56,179.74c-3.89,9.08-12.62,25.81-21.29,25.81H35A26.89,26.89,0,0,0,10.82,220.5L6,230.17A5.4,5.4,0,0,0,10.82,238H173.09a5.42,5.42,0,0,0,4.84-7.83ZM92,43.27A48.69,48.69,0,1,1,43.27,92,48.74,48.74,0,0,1,92,43.27Zm0-32.45a80.69,80.69,0,0,1,34,7.55l-1.81,4.85a5.32,5.32,0,0,1-2.81,3,5.45,5.45,0,0,1-4.25.11,70.12,70.12,0,0,0-50.22,0,5.47,5.47,0,0,1-4.26-.11,5.28,5.28,0,0,1-2.8-3L58,18.38A80.54,80.54,0,0,1,92,10.82ZM75.12,182.55l.06-.18a92.26,92.26,0,0,0,33.19.07c.66,7.16,3.13,16.22,8.74,23.17l-55.4.21C63.74,203.3,73.75,185.88,75.12,182.55Z"/></g></g></svg>