<svg xmlns="http://www.w3.org/2000/svg" viewBox="0 0 268.25 266.32"><defs><style>.cls-1{fill:none;}.cls-2{fill:#fff;}</style></defs><title>Menuicon_Accessories</title><g id="Layer_2" data-name="Layer 2"><g id="Layer_1-2" data-name="Layer 1"><path class="cls-1" d="M254.11,57.83,210.42,14.14,179.3,45.25,223,89ZM194,35.31l16.46-16.46,18.23,18.23L212.23,53.54Zm37.33,4.41,18.22,18.22L233.09,74.4,214.87,56.18Z"/><rect class="cls-1" x="230.57" y="54.17" width="3.28" height="5.77" transform="translate(27.67 180.91) rotate(-45)"/><rect class="cls-1" x="209.71" y="33.31" width="3.28" height="5.78" transform="translate(36.31 160.05) rotate(-45)"/><path class="cls-1" d="M11.46,185.05a5,5,0,0,0,0,7.07l62.73,62.74a5,5,0,0,0,7.07,0L211.7,124.42,141.9,54.61Z"/><path class="cls-2" d="M268.25,57.83,210.42,0,165.16,45.25,223,103.09ZM210.42,14.14l43.69,43.69L223,89l-43.7-43.7Z"/><path class="cls-2" d="M210.46,18.85,194,35.31l18.23,18.23,16.46-16.46Zm-2.31,16.46L210.46,33l4.09,4.08-2.32,2.32Z"/><path class="cls-2" d="M249.55,57.94,231.33,39.72,214.87,56.18,233.09,74.4Zm-18.22-4.08,4.08,4.08-2.32,2.32L229,56.18Z"/><path class="cls-2" d="M4.39,178a15,15,0,0,0,0,21.21l62.73,62.74a15,15,0,0,0,21.21,0L225.85,124.42,141.9,40.47Zm76.87,76.88a5,5,0,0,1-7.07,0L11.46,192.12a5,5,0,0,1,0-7.07L141.9,54.61l69.8,69.81Z"/></g></g></svg>