<svg xmlns="http://www.w3.org/2000/svg" viewBox="0 0 257 238"><defs><style>.cls-1{fill:none;}.cls-2{fill:#fff;}</style></defs><title>Menuicon_Monitor</title><g id="Layer_2" data-name="Layer 2"><g id="Layer_1-2" data-name="Layer 1"><path class="cls-1" d="M246.83,15a5,5,0,0,0-5-5H15.17a5,5,0,0,0-5,5V148.62H246.83ZM41,44.57a4.09,4.09,0,1,1-4.08-4.08A4.09,4.09,0,0,1,41,44.57ZM15.8,36.05,31.1,21.31A5,5,0,0,1,38,28.52L22.74,43.25a5,5,0,0,1-6.94-7.2ZM31.06,57.58,25.45,63.2a5,5,0,1,1-7.07-7.07L24,50.51a5,5,0,0,1,7.07,7.07Zm28.35-9.06-34,34.69a5,5,0,0,1-7.15-7l34-34.69a5,5,0,0,1,7.15,7ZM51,38.2a5,5,0,1,1-7.07-7.07l10-10A5,5,0,1,1,61,28.19Zm15.55,2.25a4.09,4.09,0,1,1,4.09-4.08A4.08,4.08,0,0,1,66.54,40.45ZM82.93,27.11l-2.55,2.55a5,5,0,0,1-7.07-7.07L75.86,20a5,5,0,1,1,7.07,7.07Z"/><path class="cls-2" d="M256.83,153.62V15a15,15,0,0,0-15-15H15.17a15,15,0,0,0-15,15V153.62H0v28.16a10,10,0,0,0,10,10H247a10,10,0,0,0,10-10V153.62ZM10.17,15a5,5,0,0,1,5-5H241.83a5,5,0,0,1,5,5V148.62H10.17Z"/><path class="cls-2" d="M78.33,224.78H177c-22-10.48-20-33-20-33H98.33C101.67,210.42,78.33,224.78,78.33,224.78Z"/><path class="cls-2" d="M77.94,224.78a6.61,6.61,0,0,0-6.61,6.61h0A6.61,6.61,0,0,0,77.94,238h99.45a6.61,6.61,0,0,0,6.61-6.61h0a6.61,6.61,0,0,0-6.61-6.61H77.94Z"/><path class="cls-2" d="M22.74,43.25,38,28.52a5,5,0,0,0-6.93-7.21L15.8,36.05a5,5,0,0,0,6.94,7.2Z"/><path class="cls-2" d="M61,21.11a5,5,0,0,0-7.07,0l-10,10A5,5,0,1,0,51,38.2l10-10A5,5,0,0,0,61,21.11Z"/><path class="cls-2" d="M24,50.51l-5.61,5.62a5,5,0,1,0,7.07,7.07l5.61-5.62A5,5,0,0,0,24,50.51Z"/><path class="cls-2" d="M75.86,20l-2.55,2.55a5,5,0,0,0,7.07,7.07l2.55-2.55A5,5,0,1,0,75.86,20Z"/><path class="cls-2" d="M52.26,41.52l-34,34.69a5,5,0,0,0,7.15,7l34-34.69a5,5,0,0,0-7.15-7Z"/><path class="cls-2" d="M32.79,44.57a4.09,4.09,0,1,0,4.09-4.08A4.09,4.09,0,0,0,32.79,44.57Z"/><path class="cls-2" d="M66.54,32.28a4.09,4.09,0,1,0,4.09,4.09A4.09,4.09,0,0,0,66.54,32.28Z"/></g></g></svg>