<svg xmlns="http://www.w3.org/2000/svg" viewBox="-2751.431 21861.5 159.959 95.975">
  <defs>
    <style>
      .cls-1 {
        fill: #fff;
      }

      .cls-2 {
        fill: #3d3d3d;
        font-size: 40px;
        font-family: OpenSans-Bold, Open Sans;
        font-weight: 700;
      }

      .cls-3, .cls-4 {
        stroke: none;
      }

      .cls-4 {
        fill: #95989a;
      }
    </style>
  </defs>
  <g id="ATM" transform="translate(-3225 21452)">
    <g id="Path_2069" data-name="Path 2069" class="cls-1" transform="translate(473.569 409.5)">
      <path class="cls-3" d="M 134.9580993652344 93.47547149658203 L 25.00100898742676 93.47547149658203 C 21.9622917175293 93.47547149658203 19.01579284667969 92.88088226318359 16.24337959289551 91.708251953125 C 13.56427097320557 90.57508087158203 11.1576623916626 88.95233917236328 9.090400695800781 86.88507843017578 C 7.023139953613281 84.81781768798828 5.400379180908203 82.41120910644531 4.267227172851563 79.73210144042969 C 3.09459662437439 76.95966339111328 2.500009775161743 74.01316833496094 2.500009775161743 70.97444915771484 L 2.500009775161743 25.00101470947266 C 2.500009775161743 21.9622974395752 3.09459662437439 19.01579666137695 4.267227172851563 16.24336242675781 C 5.400379180908203 13.56425380706787 7.023139953613281 11.1576452255249 9.090400695800781 9.090384483337402 C 11.1576623916626 7.023123264312744 13.56427097320557 5.400383949279785 16.24337959289551 4.267210006713867 C 19.01579284667969 3.094579696655273 21.9622917175293 2.499992847442627 25.00100898742676 2.499992847442627 L 134.9580993652344 2.499992847442627 C 137.9968109130859 2.499992847442627 140.9433135986328 3.094579696655273 143.7157440185547 4.267210006713867 C 146.3948364257813 5.400383949279785 148.8014678955078 7.023123264312744 150.8687286376953 9.090384483337402 C 152.9359893798828 11.1576452255249 154.5587310791016 13.56427574157715 155.69189453125 16.24336242675781 C 156.8645324707031 19.01579666137695 157.4591217041016 21.9622974395752 157.4591217041016 25.00101470947266 L 157.4591217041016 70.97444915771484 C 157.4591217041016 74.01316833496094 156.8645324707031 76.95966339111328 155.69189453125 79.73210144042969 C 154.5587310791016 82.41118621826172 152.9359893798828 84.81781768798828 150.8687286376953 86.88507843017578 C 148.8014678955078 88.95233917236328 146.3948364257813 90.57508087158203 143.7157440185547 91.708251953125 C 140.9433135986328 92.88088226318359 137.9968109130859 93.47547149658203 134.9580993652344 93.47547149658203 Z"/>
      <path class="cls-4" d="M 134.9580841064453 90.97545623779297 C 140.3005523681641 90.97545623779297 145.3232574462891 88.89498138427734 149.1009216308594 85.1173095703125 C 152.8786315917969 81.33960723876953 154.9591064453125 76.31690979003906 154.9591064453125 70.97445678710938 L 154.9591064453125 25.00100708007813 C 154.9591064453125 19.65855598449707 152.8786315917969 14.63585662841797 149.1009216308594 10.85815715789795 C 145.3232574462891 7.080482006072998 140.3005523681641 5.000007152557373 134.9580841064453 5.000007152557373 L 25.00102806091309 5.000007152557373 C 19.65855407714844 5.000007152557373 14.6358528137207 7.080482006072998 10.85815334320068 10.85815715789795 C 7.080478191375732 14.63585662841797 5.000003337860107 19.65853118896484 5.000003337860107 25.00100708007813 L 5.000003337860107 70.97445678710938 C 5.000003337860107 76.31693267822266 7.080478191375732 81.33960723876953 10.85815334320068 85.1173095703125 C 14.6358528137207 88.89498138427734 19.65855407714844 90.97545623779297 25.00102806091309 90.97545623779297 L 134.9580841064453 90.97545623779297 M 134.9580841064453 95.97545623779297 L 25.00102806091309 95.97545623779297 C 11.19332790374756 95.97545623779297 3.222656232537702e-06 84.78213500976563 3.222656232537702e-06 70.97445678710938 L 3.222656232537702e-06 25.00100708007813 C 3.222656232537702e-06 11.19333171844482 11.19332790374756 6.933593795110937e-06 25.00102806091309 6.933593795110937e-06 L 134.9580841064453 6.933593795110937e-06 C 148.7657470703125 6.933593795110937e-06 159.9591064453125 11.19333171844482 159.9591064453125 25.00100708007813 L 159.9591064453125 70.97445678710938 C 159.9591064453125 84.78213500976563 148.7657470703125 95.97545623779297 134.9580841064453 95.97545623779297 Z"/>
    </g>
    <text id="ATM-2" data-name="ATM" class="cls-2" transform="translate(508.227 471.163)"><tspan x="0" y="0">ATM</tspan></text>
  </g>
</svg>
