<svg xmlns="http://www.w3.org/2000/svg" viewBox="-2951 21469 85 85">
  <g id="Coupon" transform="translate(-2951 21469)">
    <g id="Group_2292" data-name="Group 2292" transform="translate(0 0)">
      <g id="Group_2291" data-name="Group 2291" transform="translate(0 0)">
        <path id="Path_1479" data-name="Path 1479" d="M64.4,67.289l-6.36-6.526,6.586-6.746L85,54.02,84.976,5.906,23.454,5.9,0,29.966,23.454,54.02H34.891l6.563,6.743-6.361,6.526a11.469,11.469,0,0,0-11.284,3.074,12.255,12.255,0,0,0,0,17.014,11.516,11.516,0,0,0,16.581,0,12.194,12.194,0,0,0,3-11.579l6.36-6.526L56.105,75.8a12.2,12.2,0,0,0,3,11.579,11.516,11.516,0,0,0,16.581,0,12.255,12.255,0,0,0,0-17.014A11.469,11.469,0,0,0,64.4,67.289ZM24.668,51.022,4.145,29.963,24.668,8.908,49.828,8.9V17.93h2.931V8.9l29.31,0V51.013l-14.547.015,3.951-4.054V29.96l-18.8,19.29V42.005H49.828v9.02Zm48.94,34.232a8.645,8.645,0,0,1-12.437,0,9.086,9.086,0,0,1-2.233-8.686l.431-1.672-9.626-9.877L40.117,74.9l.431,1.672a9.088,9.088,0,0,1-2.233,8.686,8.645,8.645,0,0,1-12.437,0,9.2,9.2,0,0,1,0-12.761A8.549,8.549,0,0,1,34.343,70.2l1.629.442L45.6,60.766l-6.563-6.734h8.292l2.418,2.481,18.8-19.29v8.505L53.89,60.766l9.622,9.877,1.63-.442a8.551,8.551,0,0,1,8.465,2.292A9.2,9.2,0,0,1,73.607,85.253Z" transform="translate(0 -5.9)"/>
      </g>
    </g>
    <g id="Group_2294" data-name="Group 2294" transform="translate(18.407 19.549)">
      <g id="Group_2293" data-name="Group 2293">
        <ellipse id="Ellipse_352" data-name="Ellipse 352" cx="4.397" cy="4.511" rx="4.397" ry="4.511"/>
      </g>
    </g>
    <g id="Group_2296" data-name="Group 2296" transform="translate(61.529 66.96)">
      <g id="Group_2295" data-name="Group 2295" transform="translate(0 0)">
        <path id="Path_1480" data-name="Path 1480" d="M345.882,363.89a5.755,5.755,0,0,0-8.289,0,6.125,6.125,0,0,0,0,8.505,5.756,5.756,0,0,0,8.289,0A6.125,6.125,0,0,0,345.882,363.89Zm-2.075,6.376a2.881,2.881,0,0,1-4.145,0,3.069,3.069,0,0,1,0-4.253,2.881,2.881,0,0,1,4.145,0A3.066,3.066,0,0,1,343.807,370.266Z" transform="translate(-335.876 -362.128)"/>
      </g>
    </g>
    <g id="Group_2298" data-name="Group 2298" transform="translate(26.233 66.957)">
      <g id="Group_2297" data-name="Group 2297" transform="translate(0 0)">
        <path id="Path_1481" data-name="Path 1481" d="M153.21,363.874a5.756,5.756,0,0,0-8.289,0,6.125,6.125,0,0,0,0,8.505,5.756,5.756,0,0,0,8.289,0A6.125,6.125,0,0,0,153.21,363.874Zm-2.072,6.382a2.881,2.881,0,0,1-4.145,0,3.066,3.066,0,0,1,0-4.253,2.881,2.881,0,0,1,4.145,0A3.065,3.065,0,0,1,151.138,370.256Z" transform="translate(-143.204 -362.112)"/>
      </g>
    </g>
    <g id="Group_2300" data-name="Group 2300" transform="translate(49.828 18.045)">
      <g id="Group_2299" data-name="Group 2299">
        <rect id="Rectangle_1262" data-name="Rectangle 1262" width="2.931" height="12.03"/>
      </g>
    </g>
  </g>
</svg>
