<svg xmlns="http://www.w3.org/2000/svg" viewBox="-2950.999 21792.729 90 55">
  <g id="Guarantee" transform="translate(-2950.999 21792.728)">
    <g id="Group_2316" data-name="Group 2316" transform="translate(0 0)">
      <g id="Group_2315" data-name="Group 2315" transform="translate(0)">
        <path id="Path_1492" data-name="Path 1492" d="M89.572,215.561,79.335,198.638A1.819,1.819,0,0,0,77.7,197.58H12.182a1.819,1.819,0,0,0-1.638,1.058L.307,215.561a1.975,1.975,0,0,0,0,2.115,1.62,1.62,0,0,0,1.638,1.058h8.19v27.5a6.135,6.135,0,0,0,6.142,6.346H73.6a6.135,6.135,0,0,0,6.142-6.346V225.08a2.048,2.048,0,1,0-4.095,0v21.154a1.967,1.967,0,0,1-2.047,2.115H51.082V212.388a2.048,2.048,0,1,0-4.095,0v35.962H16.276a1.967,1.967,0,0,1-2.047-2.115V216.618a1.967,1.967,0,0,0-2.047-2.115H5.63l7.78-12.692H45.349l-7.166,11.635a2.08,2.08,0,0,1-1.638,1.058H20.371a2.116,2.116,0,0,0,0,4.231H36.545a5.8,5.8,0,0,0,5.118-2.962l7.371-12.058L56.4,215.772a6.045,6.045,0,0,0,5.118,2.962H87.934a2.136,2.136,0,0,0,1.843-1.058A2,2,0,0,0,89.572,215.561ZM61.523,214.5a1.819,1.819,0,0,1-1.638-1.058l-7.166-11.635H76.469l7.78,12.692Z" transform="translate(0 -197.58)"/>
      </g>
    </g>
    <g id="Group_2318" data-name="Group 2318" transform="translate(18.324 35.962)">
      <g id="Group_2317" data-name="Group 2317">
        <path id="Path_1493" data-name="Path 1493" d="M118.477,395.4H106.193a2.116,2.116,0,0,0,0,4.231h12.284a2.116,2.116,0,0,0,0-4.231Z" transform="translate(-104.146 -395.398)"/>
      </g>
    </g>
    <g id="Group_2320" data-name="Group 2320" transform="translate(18.324 42.308)">
      <g id="Group_2319" data-name="Group 2319">
        <path id="Path_1494" data-name="Path 1494" d="M112.335,430.307h-6.142a2.116,2.116,0,0,0,0,4.23h6.142a2.116,2.116,0,0,0,0-4.23Z" transform="translate(-104.146 -430.307)"/>
      </g>
    </g>
  </g>
</svg>
