<svg xmlns="http://www.w3.org/2000/svg" viewBox="-2956.712 21861.5 159.959 95.975">
  <defs>
    <style>
      .cls-1, .cls-6 {
        fill: #fff;
      }

      .cls-2 {
        fill: #931b1d;
      }

      .cls-3 {
        fill: #f16622;
      }

      .cls-4 {
        fill: #f7981d;
      }

      .cls-5 {
        fill: #cb2026;
      }

      .cls-7, .cls-8 {
        stroke: none;
      }

      .cls-8 {
        fill: #95989a;
      }
    </style>
  </defs>
  <g id="Master_Card" data-name="Master Card" transform="translate(-3225 21452)">
    <g id="Path_2068" data-name="Path 2068" class="cls-1" transform="translate(268.288 409.5)">
      <path class="cls-7" d="M 134.9580993652344 93.47547149658203 L 25.00100898742676 93.47547149658203 C 21.9622917175293 93.47547149658203 19.01579284667969 92.88088226318359 16.24337959289551 91.708251953125 C 13.56427097320557 90.57508087158203 11.1576623916626 88.95233917236328 9.090400695800781 86.88507843017578 C 7.023139953613281 84.81781768798828 5.400379180908203 82.41120910644531 4.267227172851563 79.73210144042969 C 3.09459662437439 76.95966339111328 2.500009775161743 74.01316833496094 2.500009775161743 70.97444915771484 L 2.500009775161743 25.00101470947266 C 2.500009775161743 21.9622974395752 3.09459662437439 19.01579666137695 4.267227172851563 16.24336242675781 C 5.400379180908203 13.56425380706787 7.023139953613281 11.1576452255249 9.090400695800781 9.090384483337402 C 11.1576623916626 7.023123264312744 13.56427097320557 5.400383949279785 16.24337959289551 4.267210006713867 C 19.01579284667969 3.094579696655273 21.9622917175293 2.499992847442627 25.00100898742676 2.499992847442627 L 134.9580993652344 2.499992847442627 C 137.9968109130859 2.499992847442627 140.9433135986328 3.094579696655273 143.7157440185547 4.267210006713867 C 146.3948364257813 5.400383949279785 148.8014678955078 7.023123264312744 150.8687286376953 9.090384483337402 C 152.9359893798828 11.1576452255249 154.5587310791016 13.56427574157715 155.69189453125 16.24336242675781 C 156.8645324707031 19.01579666137695 157.4591217041016 21.9622974395752 157.4591217041016 25.00101470947266 L 157.4591217041016 70.97444915771484 C 157.4591217041016 74.01316833496094 156.8645324707031 76.95966339111328 155.69189453125 79.73210144042969 C 154.5587310791016 82.41118621826172 152.9359893798828 84.81781768798828 150.8687286376953 86.88507843017578 C 148.8014678955078 88.95233917236328 146.3948364257813 90.57508087158203 143.7157440185547 91.708251953125 C 140.9433135986328 92.88088226318359 137.9968109130859 93.47547149658203 134.9580993652344 93.47547149658203 Z"/>
      <path class="cls-8" d="M 134.9580841064453 90.97545623779297 C 140.3005523681641 90.97545623779297 145.3232574462891 88.89498138427734 149.1009216308594 85.1173095703125 C 152.8786315917969 81.33960723876953 154.9591064453125 76.31690979003906 154.9591064453125 70.97445678710938 L 154.9591064453125 25.00100708007813 C 154.9591064453125 19.65855598449707 152.8786315917969 14.63585662841797 149.1009216308594 10.85815715789795 C 145.3232574462891 7.080482006072998 140.3005523681641 5.000007152557373 134.9580841064453 5.000007152557373 L 25.00102806091309 5.000007152557373 C 19.65855407714844 5.000007152557373 14.6358528137207 7.080482006072998 10.85815334320068 10.85815715789795 C 7.080478191375732 14.63585662841797 5.000003337860107 19.65853118896484 5.000003337860107 25.00100708007813 L 5.000003337860107 70.97445678710938 C 5.000003337860107 76.31693267822266 7.080478191375732 81.33960723876953 10.85815334320068 85.1173095703125 C 14.6358528137207 88.89498138427734 19.65855407714844 90.97545623779297 25.00102806091309 90.97545623779297 L 134.9580841064453 90.97545623779297 M 134.9580841064453 95.97545623779297 L 25.00102806091309 95.97545623779297 C 11.19332790374756 95.97545623779297 3.222656232537702e-06 84.78213500976563 3.222656232537702e-06 70.97445678710938 L 3.222656232537702e-06 25.00100708007813 C 3.222656232537702e-06 11.19333171844482 11.19332790374756 6.933593795110937e-06 25.00102806091309 6.933593795110937e-06 L 134.9580841064453 6.933593795110937e-06 C 148.7657470703125 6.933593795110937e-06 159.9591064453125 11.19333171844482 159.9591064453125 25.00100708007813 L 159.9591064453125 70.97445678710938 C 159.9591064453125 84.78213500976563 148.7657470703125 95.97545623779297 134.9580841064453 95.97545623779297 Z"/>
    </g>
    <g id="mastercard" transform="translate(293.447 425.497)">
      <path id="Path_1227" data-name="Path 1227" class="cls-2" d="M84.309,121.955a33.3,33.3,0,1,0,22.573,57.93h0a33.447,33.447,0,0,0,3.375-3.567h-6.807a32.26,32.26,0,0,1-2.479-3.432h11.741a33.307,33.307,0,0,0,1.938-3.564H99.038a32.442,32.442,0,0,1-1.39-3.5h18.394a33.236,33.236,0,0,0,1.71-10.563,33.6,33.6,0,0,0-.765-7.134H96.672a33.909,33.909,0,0,1,.947-3.5h18.4a33.392,33.392,0,0,0-1.433-3.566H99.036a32.145,32.145,0,0,1,1.906-3.5h11.734A33.091,33.091,0,0,0,110.1,134h-6.542a30.447,30.447,0,0,1,3.332-3.362,33.052,33.052,0,0,0-22.363-8.682Z" transform="translate(-51.288 -121.955)"/>
      <path id="Path_1228" data-name="Path 1228" class="cls-3" d="M263.843,155.27a33.232,33.232,0,1,1-66.465.014v-.014a33.233,33.233,0,1,1,66.465-.018A.162.162,0,0,0,263.843,155.27Z" transform="translate(-152.799 -121.955)"/>
      <path id="Path_1229" data-name="Path 1229" class="cls-4" d="M263.843,156.48a33.232,33.232,0,1,1-66.465.017v-.017a33.233,33.233,0,1,1,66.465-.017S263.843,156.473,263.843,156.48Z" transform="translate(-152.799 -122.797)"/>
      <path id="Path_1230" data-name="Path 1230" class="cls-5" d="M84.309,123.193a33.3,33.3,0,1,0,22.573,57.931v0h0a32.915,32.915,0,0,0,3.375-3.567h-6.807a31.972,31.972,0,0,1-2.479-3.428h11.741a33.593,33.593,0,0,0,1.938-3.567H99.038a32.7,32.7,0,0,1-1.39-3.5h18.394a33.254,33.254,0,0,0,1.71-10.564,33.588,33.588,0,0,0-.765-7.133H96.672a33.909,33.909,0,0,1,.947-3.5h18.4a33.427,33.427,0,0,0-1.433-3.568H99.036a32.443,32.443,0,0,1,1.906-3.5h11.734a33.708,33.708,0,0,0-2.578-3.566h-6.542a30.856,30.856,0,0,1,3.332-3.362,33.055,33.055,0,0,0-22.363-8.681Z" transform="translate(-51.288 -122.815)"/>
      <g id="Group_1577" data-name="Group 1577" transform="translate(3.152 25.081)">
        <path id="Path_1231" data-name="Path 1231" class="cls-6" d="M186.9,224.581l.444-3.013c-.242,0-.6.1-.912.1-1.231,0-1.368-.655-1.288-1.141l.994-6.151h1.871l.452-3.335H186.7l.36-2.071h-3.539c-.077.078-2.089,11.661-2.089,13.069,0,2.089,1.168,3.019,2.819,3.005A9.3,9.3,0,0,0,186.9,224.581Z" transform="translate(-144.868 -207.5)"/>
        <path id="Path_1232" data-name="Path 1232" class="cls-6" d="M203.035,222.658c0,5.011,3.3,6.2,6.111,6.2a8.952,8.952,0,0,0,3.737-.583l.625-3.421a10.943,10.943,0,0,1-3.758.877c-3.8,0-3.133-2.841-3.133-2.841h7.192a25.714,25.714,0,0,0,.462-3.236c0-2.335-1.162-5.183-5.045-5.183C205.667,214.476,203.035,218.316,203.035,222.658Zm6.206-5.009c2,0,1.627,2.249,1.627,2.431H206.94C206.939,219.848,207.31,217.649,209.241,217.649Z" transform="translate(-159.882 -211.324)"/>
        <path id="Path_1233" data-name="Path 1233" class="cls-6" d="M275.245,221.229l.634-3.87a8.47,8.47,0,0,1-2.928.877c-2.509,0-3.516-1.925-3.516-3.985,0-4.188,2.159-6.492,4.565-6.492a6.288,6.288,0,0,1,3.25,1.016l.577-3.754a12.653,12.653,0,0,0-3.984-.872c-4.085,0-8.061,3.548-8.061,10.223,0,4.419,2.148,7.343,6.37,7.343A16.263,16.263,0,0,0,275.245,221.229Z" transform="translate(-203.482 -204.149)"/>
        <path id="Path_1234" data-name="Path 1234" class="cls-6" d="M120.612,214.654a12.222,12.222,0,0,0-4.286.78l-.513,3.055a11.186,11.186,0,0,1,3.856-.623c1.318,0,2.28.147,2.28,1.222a2.282,2.282,0,0,1-.117.892s-1.038-.088-1.52-.088c-3.059,0-6.274,1.308-6.274,5.257,0,3.108,2.108,3.823,3.415,3.823a4.6,4.6,0,0,0,3.63-1.63l-.117,1.356h3.115l1.391-9.768C125.472,214.787,121.865,214.654,120.612,214.654Zm.759,7.949c.067.6-.374,3.394-2.5,3.394a1.292,1.292,0,0,1-1.385-1.341c0-.969.526-2.135,3.12-2.135A2.306,2.306,0,0,1,121.372,222.6Z" transform="translate(-98.042 -211.448)"/>
        <path id="Path_1235" data-name="Path 1235" class="cls-6" d="M153.322,228.948c.8,0,5.352.2,5.352-4.507,0-4.405-4.216-3.536-4.216-5.306,0-.878.687-1.159,1.943-1.159.5,0,2.418.161,2.418.161l.448-3.133a16.546,16.546,0,0,0-3.263-.276c-2.62,0-5.275,1.044-5.275,4.628,0,4.064,4.43,3.653,4.43,5.363,0,1.142-1.239,1.236-2.193,1.236a11.509,11.509,0,0,1-3.141-.541l-.471,3.1A11.06,11.06,0,0,0,153.322,228.948Z" transform="translate(-122.58 -211.5)"/>
        <path id="Path_1236" data-name="Path 1236" class="cls-6" d="M369.789,205.428l-.762,4.745a4.676,4.676,0,0,0-3.416-1.842c-3.244,0-5.945,3.916-5.945,8.418,0,2.906,1.44,5.75,4.388,5.75a4.414,4.414,0,0,0,3.293-1.481l-.154,1.264h3.441l2.7-16.863Zm-1.642,9.257c0,1.871-.927,4.371-2.844,4.371-1.274,0-1.869-1.071-1.869-2.752,0-2.747,1.231-4.565,2.783-4.565C367.493,211.738,368.147,212.618,368.147,214.684Z" transform="translate(-268.717 -205.032)"/>
        <path id="Path_1237" data-name="Path 1237" class="cls-6" d="M65.028,222.289l2.157-12.731.314,12.731h2.439l4.548-12.731L72.47,222.289h3.622l2.792-16.881h-5.6l-3.488,10.356-.182-10.356H64.45l-2.831,16.881Z" transform="translate(-61.619 -205.024)"/>
        <path id="Path_1238" data-name="Path 1238" class="cls-6" d="M243.18,229.1c1.03-5.868,1.221-10.635,3.68-9.766a13.742,13.742,0,0,1,1.313-4.11,3.683,3.683,0,0,0-.683-.047c-1.581,0-2.756,2.169-2.756,2.169l.313-1.991h-3.3l-2.2,13.745Z" transform="translate(-185.253 -211.815)"/>
        <path id="Path_1239" data-name="Path 1239" class="cls-6" d="M308.575,214.654a12.211,12.211,0,0,0-4.285.78l-.511,3.055a11.159,11.159,0,0,1,3.855-.623c1.316,0,2.281.147,2.281,1.222a2.264,2.264,0,0,1-.119.892s-1.038-.088-1.523-.088c-3.06,0-6.272,1.308-6.272,5.257,0,3.108,2.109,3.823,3.415,3.823a4.587,4.587,0,0,0,3.629-1.63l-.115,1.356h3.117l1.39-9.768C313.437,214.787,309.831,214.654,308.575,214.654Zm.76,7.949c.067.6-.372,3.394-2.506,3.394a1.29,1.29,0,0,1-1.382-1.341c0-.969.526-2.135,3.116-2.135A2.313,2.313,0,0,1,309.336,222.6Z" transform="translate(-228.649 -211.448)"/>
        <path id="Path_1240" data-name="Path 1240" class="cls-6" d="M340.527,229.1c1.031-5.868,1.222-10.635,3.681-9.766a13.666,13.666,0,0,1,1.315-4.11,3.734,3.734,0,0,0-.684-.047c-1.586,0-2.757,2.169-2.757,2.169l.315-1.991h-3.3L336.894,229.1h3.633Z" transform="translate(-252.894 -211.815)"/>
      </g>
    </g>
  </g>
</svg>
