<svg xmlns="http://www.w3.org/2000/svg" viewBox="-3220.001 21519.318 85 85">
  <g id="Sales_Policy" data-name="Sales Policy" transform="translate(-3220.001 21519.318)">
    <g id="Group_2304" data-name="Group 2304" transform="translate(0)">
      <g id="Group_2303" data-name="Group 2303" transform="translate(0)">
        <path id="Path_1486" data-name="Path 1486" d="M89.213,40.943a7.505,7.505,0,0,0-3.133-6.066,7.506,7.506,0,0,0,3.133-6.066,7.656,7.656,0,0,0-7.727-7.582H79.94V6.066A6.142,6.142,0,0,0,73.758,0H36.668a6.142,6.142,0,0,0-6.182,6.066v5.8L14.932,21.059a6.041,6.041,0,0,0-2.992,5.2V43.976a13.268,13.268,0,0,0,2.075,7.142l-9.8,9.619L28.94,85l2.7-2.649a6.21,6.21,0,0,0,5.028,2.568H73.758a6.143,6.143,0,0,0,6.182-6.066V72.788h1.545a7.656,7.656,0,0,0,7.727-7.582A7.506,7.506,0,0,0,86.08,59.14a7.438,7.438,0,0,0,0-12.131A7.507,7.507,0,0,0,89.213,40.943ZM81.486,24.263a4.55,4.55,0,1,1,0,9.1H72.213a4.55,4.55,0,1,1,0-9.1ZM32.333,22.272c-.636.487-3.4,2.571-5.515,4.167a1.5,1.5,0,0,0-.352,2.03l.012.019a1.546,1.546,0,0,0,1.038.666,1.568,1.568,0,0,0,1.2-.3l1.766-1.343v51.34c0,.106.026.205.032.31L28.94,80.711,8.585,60.737l6.005-5.893,1.387-1.361A14.017,14.017,0,0,0,24.3,57.47V54.438a10.667,10.667,0,0,1-9.273-10.462V26.254a3.036,3.036,0,0,1,1.5-2.6L34.74,12.891a6.38,6.38,0,0,1,1.194,4.424C35.641,19.449,34.146,20.88,32.333,22.272ZM76.849,78.854a3.066,3.066,0,0,1-3.091,3.033H36.668a3.066,3.066,0,0,1-3.091-3.033V25.163l.58-.441C39.73,21.007,40.747,15,36.272,9.857c-.836-.96-1.734-.388-2.7.18V6.066a3.065,3.065,0,0,1,3.091-3.033H73.758a3.065,3.065,0,0,1,3.091,3.033V21.23H72.213a7.755,7.755,0,0,0-4.636,1.551V18.2H60.365V12.131h-10.3V27.3H42.849v18.2H66.1a7.785,7.785,0,0,0,1.518,1.516,7.569,7.569,0,0,0-2.945,4.549H42.849v3.033H64.674A7.378,7.378,0,0,0,66.1,57.624H42.849v3.033H66.1a7.376,7.376,0,0,0-1.427,3.033H42.849v3.033H64.641a7.7,7.7,0,0,0,7.572,6.066h4.636ZM64.486,21.23V42.46H60.365V21.23Zm-7.212-6.066v27.3H53.152v-27.3ZM50.061,30.328V42.46H45.94V30.328ZM86.122,65.206a4.6,4.6,0,0,1-4.636,4.549H72.213a4.55,4.55,0,1,1,0-9.1h9.273A4.6,4.6,0,0,1,86.122,65.206Zm0-12.131a4.6,4.6,0,0,1-4.636,4.549H72.213a4.55,4.55,0,1,1,0-9.1h9.273A4.6,4.6,0,0,1,86.122,53.075Zm-4.636-7.582H72.213a4.55,4.55,0,1,1,0-9.1h9.273a4.55,4.55,0,1,1,0,9.1Z" transform="translate(-4.213)"/>
      </g>
    </g>
    <g id="Group_2306" data-name="Group 2306" transform="translate(48.682 70.513)">
      <g id="Group_2305" data-name="Group 2305" transform="translate(0)">
        <ellipse id="Ellipse_353" data-name="Ellipse 353" cx="2.318" cy="2.275" rx="2.318" ry="2.275"/>
      </g>
    </g>
  </g>
</svg>
