<svg xmlns="http://www.w3.org/2000/svg" viewBox="-3153.995 21861.5 159.959 95.975">
  <defs>
    <style>
      .cls-1 {
        fill: #fff;
      }

      .cls-2 {
        fill: #3c58bf;
      }

      .cls-3 {
        fill: #293688;
      }

      .cls-4 {
        fill: #ffbc00;
      }

      .cls-5 {
        fill: #f7981d;
      }

      .cls-6 {
        fill: #ed7c00;
      }

      .cls-7 {
        fill: #051244;
      }

      .cls-8, .cls-9 {
        stroke: none;
      }

      .cls-9 {
        fill: #95989a;
      }
    </style>
  </defs>
  <g id="Visa" transform="translate(-3225 21452)">
    <g id="Path_2067" data-name="Path 2067" class="cls-1" transform="translate(71.005 409.5)">
      <path class="cls-8" d="M 134.9580993652344 93.47547149658203 L 25.00100898742676 93.47547149658203 C 21.9622917175293 93.47547149658203 19.01579284667969 92.88088226318359 16.24337959289551 91.708251953125 C 13.56427097320557 90.57508087158203 11.1576623916626 88.95233917236328 9.090400695800781 86.88507843017578 C 7.023139953613281 84.81781768798828 5.400379180908203 82.41120910644531 4.267227172851563 79.73210144042969 C 3.09459662437439 76.95966339111328 2.500009775161743 74.01316833496094 2.500009775161743 70.97444915771484 L 2.500009775161743 25.00101470947266 C 2.500009775161743 21.9622974395752 3.09459662437439 19.01579666137695 4.267227172851563 16.24336242675781 C 5.400379180908203 13.56425380706787 7.023139953613281 11.1576452255249 9.090400695800781 9.090384483337402 C 11.1576623916626 7.023123264312744 13.56427097320557 5.400383949279785 16.24337959289551 4.267210006713867 C 19.01579284667969 3.094579696655273 21.9622917175293 2.499992847442627 25.00100898742676 2.499992847442627 L 134.9580993652344 2.499992847442627 C 137.9968109130859 2.499992847442627 140.9433135986328 3.094579696655273 143.7157440185547 4.267210006713867 C 146.3948364257813 5.400383949279785 148.8014678955078 7.023123264312744 150.8687286376953 9.090384483337402 C 152.9359893798828 11.1576452255249 154.5587310791016 13.56427574157715 155.69189453125 16.24336242675781 C 156.8645324707031 19.01579666137695 157.4591217041016 21.9622974395752 157.4591217041016 25.00101470947266 L 157.4591217041016 70.97444915771484 C 157.4591217041016 74.01316833496094 156.8645324707031 76.95966339111328 155.69189453125 79.73210144042969 C 154.5587310791016 82.41118621826172 152.9359893798828 84.81781768798828 150.8687286376953 86.88507843017578 C 148.8014678955078 88.95233917236328 146.3948364257813 90.57508087158203 143.7157440185547 91.708251953125 C 140.9433135986328 92.88088226318359 137.9968109130859 93.47547149658203 134.9580993652344 93.47547149658203 Z"/>
      <path class="cls-9" d="M 134.9580841064453 90.97545623779297 C 140.3005523681641 90.97545623779297 145.3232574462891 88.89498138427734 149.1009216308594 85.1173095703125 C 152.8786315917969 81.33960723876953 154.9591064453125 76.31690979003906 154.9591064453125 70.97445678710938 L 154.9591064453125 25.00100708007813 C 154.9591064453125 19.65855598449707 152.8786315917969 14.63585662841797 149.1009216308594 10.85815715789795 C 145.3232574462891 7.080482006072998 140.3005523681641 5.000007152557373 134.9580841064453 5.000007152557373 L 25.00102806091309 5.000007152557373 C 19.65855407714844 5.000007152557373 14.6358528137207 7.080482006072998 10.85815334320068 10.85815715789795 C 7.080478191375732 14.63585662841797 5.000003337860107 19.65853118896484 5.000003337860107 25.00100708007813 L 5.000003337860107 70.97445678710938 C 5.000003337860107 76.31693267822266 7.080478191375732 81.33960723876953 10.85815334320068 85.1173095703125 C 14.6358528137207 88.89498138427734 19.65855407714844 90.97545623779297 25.00102806091309 90.97545623779297 L 134.9580841064453 90.97545623779297 M 134.9580841064453 95.97545623779297 L 25.00102806091309 95.97545623779297 C 11.19332790374756 95.97545623779297 3.222656232537702e-06 84.78213500976563 3.222656232537702e-06 70.97445678710938 L 3.222656232537702e-06 25.00100708007813 C 3.222656232537702e-06 11.19333171844482 11.19332790374756 6.933593795110937e-06 25.00102806091309 6.933593795110937e-06 L 134.9580841064453 6.933593795110937e-06 C 148.7657470703125 6.933593795110937e-06 159.9591064453125 11.19333171844482 159.9591064453125 25.00100708007813 L 159.9591064453125 70.97445678710938 C 159.9591064453125 84.78213500976563 148.7657470703125 95.97545623779297 134.9580841064453 95.97545623779297 Z"/>
    </g>
    <g id="visa-2" data-name="visa" transform="translate(100.331 441.493)">
      <path id="Path_1241" data-name="Path 1241" class="cls-2" d="M184.8,209.649,190,180.4h8.125l-5.037,29.249Z" transform="translate(-147.264 -179.425)"/>
      <path id="Path_1242" data-name="Path 1242" class="cls-3" d="M184.8,209.649l6.662-29.249h6.662l-5.037,29.249Z" transform="translate(-147.264 -179.425)"/>
      <path id="Path_1243" data-name="Path 1243" class="cls-2" d="M272.862,176.9a20.61,20.61,0,0,0-7.475-1.3c-8.125,0-13.974,4.062-13.974,9.912,0,4.387,4.062,6.662,7.312,8.125s4.225,2.437,4.225,3.737c0,1.95-2.6,2.925-4.875,2.925a17.662,17.662,0,0,1-7.8-1.625l-1.137-.487L248,204.849a26.345,26.345,0,0,0,9.262,1.625c8.612,0,14.3-4.062,14.3-10.237,0-3.412-2.112-6.012-6.987-8.125-2.925-1.462-4.712-2.275-4.712-3.737,0-1.3,1.463-2.6,4.712-2.6a14.9,14.9,0,0,1,6.175,1.137l.813.325,1.3-6.337Z" transform="translate(-197.627 -175.6)"/>
      <path id="Path_1244" data-name="Path 1244" class="cls-3" d="M272.862,176.9a20.61,20.61,0,0,0-7.475-1.3c-8.125,0-12.512,4.062-12.512,9.912,0,4.387,2.6,6.662,5.85,8.125s4.225,2.437,4.225,3.737c0,1.95-2.6,2.925-4.875,2.925a17.662,17.662,0,0,1-7.8-1.625l-1.137-.487L248,204.849a26.345,26.345,0,0,0,9.262,1.625c8.612,0,14.3-4.062,14.3-10.237,0-3.412-2.112-6.012-6.987-8.125-2.925-1.462-4.712-2.275-4.712-3.737,0-1.3,1.463-2.6,4.712-2.6a14.9,14.9,0,0,1,6.175,1.137l.813.325,1.3-6.337Z" transform="translate(-197.627 -175.6)"/>
      <path id="Path_1245" data-name="Path 1245" class="cls-2" d="M374.812,180.4c-1.95,0-3.412.162-4.225,2.112L358.4,209.649h8.775l1.625-4.875h10.4l.975,4.875h7.8L381.149,180.4Zm-3.737,19.5c.487-1.462,3.25-8.612,3.25-8.612s.65-1.788,1.137-2.925l.487,2.762s1.625,7.312,1.95,8.937h-6.825Z" transform="translate(-285.603 -179.425)"/>
      <path id="Path_1246" data-name="Path 1246" class="cls-3" d="M376.762,180.4c-1.95,0-3.413.162-4.225,2.112L358.4,209.649h8.775l1.625-4.875h10.4l.975,4.875h7.8L381.149,180.4Zm-5.687,19.5c.65-1.625,3.25-8.612,3.25-8.612s.65-1.788,1.138-2.925l.487,2.762s1.625,7.312,1.95,8.937h-6.825Z" transform="translate(-285.602 -179.425)"/>
      <path id="Path_1247" data-name="Path 1247" class="cls-2" d="M63.387,201.512l-.812-4.225C61.112,192.412,56.4,187.05,51.2,184.45l7.312,26h8.775L80.449,181.2H71.674Z" transform="translate(-40.8 -180.063)"/>
      <path id="Path_1248" data-name="Path 1248" class="cls-3" d="M63.387,201.512l-.812-4.225C61.112,192.412,56.4,187.05,51.2,184.45l7.312,26h8.775L80.449,181.2H73.3Z" transform="translate(-40.8 -180.063)"/>
      <path id="Path_1249" data-name="Path 1249" class="cls-4" d="M0,180.4l1.462.325c10.4,2.437,17.549,8.612,20.312,15.924l-2.925-13.812c-.487-1.95-1.95-2.437-3.737-2.437Z" transform="translate(0 -179.425)"/>
      <path id="Path_1250" data-name="Path 1250" class="cls-5" d="M0,180.4H0c10.4,2.437,19.012,8.775,21.774,16.087L19.012,184.95a3.966,3.966,0,0,0-3.9-3.087Z" transform="translate(0 -179.425)"/>
      <path id="Path_1251" data-name="Path 1251" class="cls-6" d="M0,180.4H0c10.4,2.437,19.012,8.775,21.774,16.087l-1.95-6.337c-.487-1.95-1.137-3.9-3.412-4.712Z" transform="translate(0 -179.425)"/>
      <g id="Group_1578" data-name="Group 1578" transform="translate(10.562 4.225)">
        <path id="Path_1252" data-name="Path 1252" class="cls-7" d="M72.149,212.649l-5.525-5.525-2.6,6.175-.65-4.062C61.912,204.362,57.2,199,52,196.4l7.312,26h8.775Z" transform="translate(-52 -196.4)"/>
        <path id="Path_1253" data-name="Path 1253" class="cls-7" d="M193.087,296.35,186.1,289.2l-1.3,7.15Z" transform="translate(-157.826 -270.351)"/>
        <path id="Path_1254" data-name="Path 1254" class="cls-7" d="M262.137,274.8h0c.65.65.975,1.137.813,1.787,0,1.95-2.6,2.925-4.875,2.925a17.663,17.663,0,0,1-7.8-1.625l-1.137-.488L248,284.062a26.341,26.341,0,0,0,9.262,1.625c5.2,0,9.425-1.462,11.862-4.062Z" transform="translate(-208.189 -258.876)"/>
        <path id="Path_1255" data-name="Path 1255" class="cls-7" d="M364,240.887h7.637l1.625-4.875h10.4l.975,4.875h7.8l-2.763-11.862-9.75-9.425.487,2.6s1.625,7.312,1.95,8.937h-6.825c.65-1.625,3.25-8.612,3.25-8.612s.65-1.787,1.137-2.925" transform="translate(-300.627 -214.888)"/>
      </g>
    </g>
  </g>
</svg>
