<svg id="Layer_1" data-name="Layer 1" xmlns="http://www.w3.org/2000/svg" viewBox="0 0 493.88 173.83"><defs><style>.cls-1{fill:#fff;}.cls-2{fill:#ff4a56;}</style></defs><title>Call 1</title><path id="Path_2074" data-name="Path 2074" class="cls-1" d="M114.49,54.46h-5.9l3.47-15.68H98L94.58,54.46H88.71l7.66-34.79h5.87L99.09,33.9h14l3.15-14.23h5.87Zm42.68-21.94a28.32,28.32,0,0,1-2.35,11.83,18,18,0,0,1-6.48,7.89,17.1,17.1,0,0,1-9.58,2.7q-6.42,0-9.94-3.56t-3.52-9.84a27.16,27.16,0,0,1,2.44-11.6,18.8,18.8,0,0,1,6.68-8A17.12,17.12,0,0,1,144,19.13q6.22,0,9.68,3.55T157.17,32.52ZM143.56,24a9.51,9.51,0,0,0-6.2,2.28A15,15,0,0,0,133,32.63a24.31,24.31,0,0,0-1.57,8.86,9.16,9.16,0,0,0,2,6.35,7.21,7.21,0,0,0,5.64,2.24,9.4,9.4,0,0,0,6.16-2.27,14.75,14.75,0,0,0,4.26-6.31A25.1,25.1,0,0,0,151,32.57a9.33,9.33,0,0,0-2-6.31A6.92,6.92,0,0,0,143.56,24Zm6.27-15.11a5.8,5.8,0,0,1-1.93-.32q-.92-.32-1.77-.71l-1.64-.73A3.87,3.87,0,0,0,143,6.8a2,2,0,0,0-1.56.58,4.71,4.71,0,0,0-.92,1.56h-2.95a7.91,7.91,0,0,1,2.07-4.13,5,5,0,0,1,3.56-1.37,5.48,5.48,0,0,1,1.88.33q.92.33,1.77.74t1.66.74a4,4,0,0,0,1.55.33,2.16,2.16,0,0,0,1.5-.52,4.8,4.8,0,0,0,1.08-1.67h2.85Q154,8.89,149.83,8.89Zm-7.16,1.17h6.1a28.67,28.67,0,0,0,4,6.28l-.12.55h-3a25.29,25.29,0,0,1-4.39-3.61,50.44,50.44,0,0,1-5.82,3.62H136l.1-.6,1.59-1.4A42.48,42.48,0,0,0,142.67,10.06ZM185,54.46h-5.87l6.54-29.91H176.3l1.11-4.88h24.74l-1.07,4.88h-9.44Zm23.67-13.9-3,13.9h-5.87l7.66-34.79h8.38q5.53,0,8.48,2.25t2.95,6.91a10.33,10.33,0,0,1-2.14,6.63,12.23,12.23,0,0,1-6.38,3.94l6.17,15.06h-6.45l-5.13-13.9Zm1.07-4.71h3q4.21,0,6.3-1.78a6.12,6.12,0,0,0,2.08-4.9,4.2,4.2,0,0,0-1.47-3.59,7.59,7.59,0,0,0-4.54-1.1h-2.95Zm53.39-3.33a28.32,28.32,0,0,1-2.35,11.83,18,18,0,0,1-6.49,7.89,17.1,17.1,0,0,1-9.58,2.7q-6.42,0-9.94-3.56t-3.52-9.84a27.16,27.16,0,0,1,2.44-11.6,18.8,18.8,0,0,1,6.68-8A17.12,17.12,0,0,1,250,19.12q7.49,0,10.91,5.07a6.25,6.25,0,0,0,2.74-2.56,12,12,0,0,0,1.33-4.2h6.1l.2.57a13.23,13.23,0,0,1-3.21,5.84,15.68,15.68,0,0,1-5.71,3.56,16.37,16.37,0,0,1,.79,5.12ZM249.55,24a9.51,9.51,0,0,0-6.2,2.28A15,15,0,0,0,239,32.63a24.31,24.31,0,0,0-1.57,8.86,9.16,9.16,0,0,0,2,6.35,7.21,7.21,0,0,0,5.64,2.24,9.4,9.4,0,0,0,6.16-2.27,14.75,14.75,0,0,0,4.26-6.31A25.1,25.1,0,0,0,257,32.57a9.33,9.33,0,0,0-2-6.31A6.92,6.92,0,0,0,249.55,24ZM239.26,61.2a3.39,3.39,0,0,1,3.67-3.62,3.33,3.33,0,0,1,2.13.63,2.3,2.3,0,0,1,.79,1.92,3.59,3.59,0,0,1-1,2.67,4,4,0,0,1-4.75.36A2.23,2.23,0,0,1,239.26,61.2Zm52.67-6.74h-5.87l6.54-29.91h-9.39l1.11-4.88h24.74L308,24.55h-9.44Zm48.18-34.79-1,4.57A5.43,5.43,0,0,0,342.32,22a11.31,11.31,0,0,0,1.61-4.59h6l.25.57A13.22,13.22,0,0,1,346,24.78a14.26,14.26,0,0,1-7.68,3.13l-3.2,14.52q-1.41,6.4-5.17,9.46T320,54.94q-5.4,0-8.35-2.57a9.11,9.11,0,0,1-2.95-7.26,19.18,19.18,0,0,1,.5-4L314,19.67h5.87l-4.76,21.58a15.49,15.49,0,0,0-.52,3.5q0,5.33,5.95,5.33a8,8,0,0,0,5.75-2,11.72,11.72,0,0,0,3-6.16l4.93-22.27Zm28.53,28.89a80.52,80.52,0,0,1,3.4-7.35l11.28-21.54h6.3L370.68,54.46h-6.4l-3.57-34.79h5.75l1.83,21.54q.22,2.45.27,5.54l0,1.81Zm36.83-3.76h-12l-5.18,9.66H382l19.41-34.84h6.79l4.12,34.84h-5.8Zm-.4-4.95q-1-9.9-1.13-12t-.14-3.32a79,79,0,0,1-3.52,7.31l-4.26,8Zm-1.93-30h6.1a27.8,27.8,0,0,0,3.92,6.47l-.12.55h-3A20.68,20.68,0,0,1,405.8,13a40.51,40.51,0,0,1-6,3.86h-3.4l.1-.6A70.58,70.58,0,0,0,403.15,9.87Zm8.73,1.9a41.52,41.52,0,0,0,4.26-4.93h5.18v.43a26.76,26.76,0,0,1-2.78,2.44A37.6,37.6,0,0,1,415,12.25h-3.1Zm32.64,42.7h-6.44L427.91,26.79h-.15l-.25,1.64q-.6,3.55-.88,5.06t-4.55,21h-5.43l7.66-34.79H431L440.85,47H441q.15-1.28.77-4.58t1-4.84l4-17.92h5.43Z"/><g id="phone-receiver"><g id="Group_1555" data-name="Group 1555"><path id="Path_988" data-name="Path 988" class="cls-2" d="M99,161.9a3.68,3.68,0,0,1-2.36,2.49l-14.38,5.52a6.4,6.4,0,0,1-2.34.51,8.35,8.35,0,0,1-2.46-.23L77,170q-.4-.12-1-.37a36.61,36.61,0,0,1-11.35-7.95,69.82,69.82,0,0,1-8.14-9.92,81.36,81.36,0,0,1-8.11-15.38,84.56,84.56,0,0,1-4.56-13.24,71.92,71.92,0,0,1-1.87-10.8,47.83,47.83,0,0,1-.06-8.38,39.34,39.34,0,0,1,1-6.07,19.12,19.12,0,0,1,1.29-3.74l.72-1.43a7.8,7.8,0,0,1,1.6-1.8,6.25,6.25,0,0,1,2.05-1.19l14.42-5.59a3.78,3.78,0,0,1,2.89,0,3,3,0,0,1,1.51,1.26,5.38,5.38,0,0,1,.7,1.88l1.58,18.15a3.75,3.75,0,0,1-.75,2.71A5.12,5.12,0,0,1,66.53,110L61.21,112a1.37,1.37,0,0,0-.48.36,2,2,0,0,0-.36.5,13.77,13.77,0,0,0-.18,4.07,33.69,33.69,0,0,0,.93,5.42,50.15,50.15,0,0,0,2.84,8,51.67,51.67,0,0,0,3.78,7.71A36.66,36.66,0,0,0,71,142.64a12.62,12.62,0,0,0,2.27,2.18l.87.57a2,2,0,0,0,.54.09,1.43,1.43,0,0,0,.61-.05L81.48,143a5.26,5.26,0,0,1,3.71.13,4.32,4.32,0,0,1,1.86,1.28l.08,0,11,14.32A3.87,3.87,0,0,1,99,161.9Z"/></g></g><path class="cls-2" d="M149.35,106.79h-.15l-8.47,4.27-.69-5,11.29-5.64h5.34L147.29,150h-6.18Z"/><path class="cls-2" d="M169.87,145.32a27.6,27.6,0,0,0,4.73-.31,21.69,21.69,0,0,0,10.53-4.88,29,29,0,0,0,9.08-13.2H194a15.18,15.18,0,0,1-11.29,5.42c-8.16,0-12.05-6.33-12.05-12.89,0-10.07,8.09-19.91,18.38-19.91,9.38,0,13.35,7.17,13.35,15.64,0,12.36-7,23.57-12.81,28.53a30,30,0,0,1-14.87,6.71,37.47,37.47,0,0,1-5.57.31Zm7.25-26.54c0,5,2.52,8.54,7.48,8.54a11.94,11.94,0,0,0,9.84-5.64,5.92,5.92,0,0,0,1-2.21,23.88,23.88,0,0,0,.53-5.11c0-5.57-2.14-9.69-7.55-9.69C182.15,104.66,177.11,111.52,177.11,118.77Z"/><path class="cls-2" d="M239.59,115.11c0,16.17-7.7,35.7-21.51,35.7-9.15,0-12.43-7.55-12.43-17,0-16.48,8.62-34.25,21.66-34.25C236.76,99.55,239.59,107.48,239.59,115.11ZM212,134.1c0,5.19,1,11.59,6.94,11.59,9.31,0,14.34-20.21,14.34-30.21,0-3.89-.61-10.83-6.64-10.83C218,104.66,212,122.05,212,134.1Z"/><path class="cls-2" d="M277.11,115.11c0,16.17-7.7,35.7-21.51,35.7-9.15,0-12.43-7.55-12.43-17,0-16.48,8.62-34.25,21.66-34.25C274.29,99.55,277.11,107.48,277.11,115.11Zm-27.61,19c0,5.19,1,11.59,6.94,11.59,9.31,0,14.34-20.21,14.34-30.21,0-3.89-.61-10.83-6.64-10.83C255.53,104.66,249.5,122.05,249.5,134.1Z"/><path class="cls-2" d="M313.35,106.79h-.15l-8.47,4.27-.69-5,11.29-5.64h5.34L311.29,150h-6.18Z"/><path class="cls-2" d="M365.37,110.76c0,5.87-4,10.22-9.76,12.89v.23a13.07,13.07,0,0,1,7.32,11.75c0,9.69-8.77,15.18-17.39,15.18-9.31,0-14.87-5.26-14.87-12.36,0-7.55,5.49-12.51,11.59-14.87l.08-.23c-4-2.82-5.42-6.18-5.42-9.76,0-8,7.17-14,15.87-14C360.11,99.55,365.37,103.9,365.37,110.76Zm-9,25.4c0-5-2.82-8-8.7-10.07-5.11,1.3-10.45,5.19-10.45,11.67,0,4.27,2.9,8.24,8.7,8.24S356.37,142,356.37,136.16Zm-13.35-23c0,3.89,2.36,6.64,7.25,8.39,4.88-1.6,8.85-5.19,8.85-10,0-3.36-1.68-7.17-7.17-7.17A8.86,8.86,0,0,0,343,113.13Z"/><path class="cls-2" d="M369.72,142.65a17.93,17.93,0,0,0,9.53,2.75c8.47,0,12.36-5.8,12.36-10.91,0-6.18-4.81-8.77-10.6-8.77h-2.52l1-5H382c4.65,0,12.28-3.05,12.28-9.61,0-3.81-2.29-6.18-7-6.18a16.48,16.48,0,0,0-9.38,2.75l-1.37-4.81a23.6,23.6,0,0,1,11.82-3.36c8.31,0,12.66,5,12.66,10.68,0,6.48-5.26,11.21-11,12.81v.15c5.42,1.3,8.31,6,8.31,11.21,0,9.38-8.54,16.4-19.3,16.4-5.34,0-9.76-1.6-11.44-3.13Z"/><path class="cls-2" d="M440,105.88H423l-3.89,12.59a13.1,13.1,0,0,1,2.44-.15,16.21,16.21,0,0,1,8.62,2.36c4.12,2.29,5.95,6.64,5.95,10.91,0,12.05-9.61,19.22-20.37,19.22-4.81,0-9.08-1.45-10.68-2.75l2-5a18.19,18.19,0,0,0,9.23,2.36c7.09,0,13.27-5.57,13.27-12.43,0-5.34-2.75-9.61-12-9.61-2.06,0-3.58.15-5.57.31l6.87-23.27H441Z"/></svg>