<svg xmlns="http://www.w3.org/2000/svg" viewBox="4839 10619 30 30">
  <defs>
    <style>
      .cls-1, .cls-5 {
        fill: none;
      }

      .cls-1 {
        stroke: #95989a;
        stroke-width: 0.5px;
      }

      .cls-2 {
        fill: #95989a;
      }

      .cls-3 {
        fill: #fff;
      }

      .cls-4 {
        stroke: none;
      }
    </style>
  </defs>
  <g id="Group_2725" data-name="Group 2725" transform="translate(4674 10553)">
    <g id="Ellipse_514" data-name="Ellipse 514" class="cls-1" transform="translate(165 66)">
      <circle class="cls-4" cx="15" cy="15" r="15"/>
      <circle class="cls-5" cx="15" cy="15" r="14.75"/>
    </g>
    <circle id="Ellipse_512" data-name="Ellipse 512" class="cls-2" cx="12" cy="12" r="12" transform="translate(168 69)"/>
    <g id="black-and-white-credit-cards" transform="translate(171.909 72)">
      <g id="Group_1407" data-name="Group 1407" transform="translate(1.091 -1)">
        <path id="Path_901" data-name="Path 901" class="cls-3" d="M19.529,8.134,11.85.454a1.548,1.548,0,0,0-2.191,0l-4.205,4.2a1.572,1.572,0,0,0,0,2.21l.7.716H7.759l-1.5-1.52a.43.43,0,0,1-.121-.3.42.42,0,0,1,.121-.3l.555-.538L9.453,7.585h2.531l-3.9-3.924,2.384-2.394a.419.419,0,0,1,.292-.125.407.407,0,0,1,.292.118l7.679,7.679a.409.409,0,0,1,.121.291.435.435,0,0,1-.133.292l-.435.425v1.608l1.24-1.229A1.55,1.55,0,0,0,19.529,8.134Z" transform="translate(-3.478)"/>
        <path id="Path_902" data-name="Path 902" class="cls-3" d="M13.539,21.328H2.678a1.578,1.578,0,0,0-1.587,1.545v4.108H15.069V22.873A1.529,1.529,0,0,0,13.539,21.328ZM4.887,25.582a1.122,1.122,0,0,1-.78-.315,1.127,1.127,0,1,1,0-1.625,1.127,1.127,0,1,1,.78,1.94Z" transform="translate(-1.091 -13.023)"/>
        <path id="Path_903" data-name="Path 903" class="cls-3" d="M1.091,40.423a1.586,1.586,0,0,0,1.587,1.554H13.539a1.537,1.537,0,0,0,1.53-1.554v-.091H1.091Z" transform="translate(-1.091 -24.627)"/>
      </g>
    </g>
  </g>
</svg>
