<svg xmlns="http://www.w3.org/2000/svg" viewBox="8731 170.999 129.896 110.001">
  <defs>
    <style>
      .cls-1 {
        fill: none;
      }

      .cls-2 {
        fill: #fff;
      }
    </style>
  </defs>
  <g id="Compare" transform="translate(8730.351 150.141)">
    <g id="Group_941" data-name="Group 941" transform="translate(0.649 20.859)">
      <g id="Compare-2" data-name="Compare" transform="translate(0 0)">
        <g id="Layer_1" data-name="Layer 1" transform="translate(0 0)">
          <path id="Path_2217" data-name="Path 2217" class="cls-1" d="M15.34,33.959H48.359L31.85,4.3Z" transform="translate(75.11 20.439)"/>
          <path id="Path_2218" data-name="Path 2218" class="cls-1" d="M17.59,4.3,1.08,33.9H34.041Z" transform="translate(5.288 20.439)"/>
          <circle id="Ellipse_524" data-name="Ellipse 524" class="cls-2" cx="1.592" cy="1.592" r="1.592" transform="translate(63.386 17.604)"/>
          <path id="Subtraction_1" data-name="Subtraction 1" class="cls-2" d="M-8660.656-73.206h-15.389v-76.24h-32.137l18.457,32.785h-4.129l-16.508-29.482-16.511,29.482H-8731l18.456-32.96h-8.905a3.081,3.081,0,0,1-2.222-2.949,3.075,3.075,0,0,1,2.222-2.947h45.4v-8.432a7.7,7.7,0,0,1,2.476-5.022,7.706,7.706,0,0,1,5.218-2.029,7.707,7.707,0,0,1,5.219,2.029,7.706,7.706,0,0,1,2.477,5.022v8.607h45.342a3.081,3.081,0,0,1,2.225,2.949,3.076,3.076,0,0,1-2.225,2.947h-8.784l18.514,32.666h-4.186l-16.511-29.483-16.511,29.66h-4.185l18.513-32.844h-32.192Zm-7.725-74.058h.057a4.454,4.454,0,0,0,3.171-1.313,4.5,4.5,0,0,0,1.313-3.228,4.575,4.575,0,0,0-1.308-3.25,4.579,4.579,0,0,0-3.232-1.35,4.565,4.565,0,0,0-3.231,1.352,4.571,4.571,0,0,0-1.309,3.247,4.492,4.492,0,0,0,1.313,3.228,4.455,4.455,0,0,0,3.171,1.313Z" transform="translate(8733.24 171)"/>
          <path id="Path_2220" data-name="Path 2220" class="cls-2" d="M6.368,9.32H0a23,23,0,0,0,45.991,0Z" transform="translate(0 45.019)"/>
          <path id="Path_2221" data-name="Path 2221" class="cls-2" d="M58.03,9.33H14.22a23.055,23.055,0,0,0,46.05,0Z" transform="translate(69.626 45.068)"/>
          <path id="Path_2222" data-name="Path 2222" class="cls-2" d="M26.9,16.69v3.184H11.506A7.665,7.665,0,0,0,3.9,27.539V28.9H87.8V27.539a7.665,7.665,0,0,0-7.665-7.665H64.75V16.69Z" transform="translate(19.096 81.105)"/>
        </g>
      </g>
    </g>
  </g>
</svg>
