<svg xmlns="http://www.w3.org/2000/svg" viewBox="-11503 -6484 115 87.517">
  <g id="envelope" transform="translate(-11503 -6484)">
    <g id="Group_2600" data-name="Group 2600">
      <path id="Path_2194" data-name="Path 2194" d="M100.961,57.75h-86.9A14.075,14.075,0,0,0,0,71.813V131.2a14.075,14.075,0,0,0,14.063,14.063h86.875A14.075,14.075,0,0,0,115,131.2V71.836A14.06,14.06,0,0,0,100.961,57.75ZM108.6,131.2a7.647,7.647,0,0,1-7.638,7.638h-86.9A7.647,7.647,0,0,1,6.425,131.2V71.836A7.647,7.647,0,0,1,14.063,64.2h86.875a7.647,7.647,0,0,1,7.638,7.638V131.2Z" transform="translate(0 -57.75)"/>
      <path id="Path_2195" data-name="Path 2195" d="M115.013,139.752l28.125-25.222a3.218,3.218,0,1,0-4.307-4.783l-38.785,34.812L92.479,137.8c-.024-.024-.048-.048-.048-.071a4.75,4.75,0,0,0-.523-.452l-30.79-27.554a3.219,3.219,0,1,0-4.283,4.807l28.458,25.437L56.953,166.5a3.225,3.225,0,0,0-.143,4.545,3.287,3.287,0,0,0,2.356,1.023,3.219,3.219,0,0,0,2.189-.857L90.123,144.3l7.8,6.972a3.2,3.2,0,0,0,4.283-.024l8.019-7.186,28.6,27.174a3.221,3.221,0,0,0,4.545-.119,3.225,3.225,0,0,0-.119-4.545Z" transform="translate(-42.486 -96.731)"/>
    </g>
  </g>
</svg>
