<svg xmlns="http://www.w3.org/2000/svg" viewBox="3187 4945.001 23.2 21.067">
  <defs>
    <style>
      .cls-1 {
        fill: #9e9e9e;
      }
    </style>
  </defs>
  <g id="filter" transform="translate(3187 4921.469)">
    <g id="Group_1118" data-name="Group 1118" transform="translate(0 23.532)">
      <path id="Path_834" data-name="Path 834" class="cls-1" d="M23.113,24.075a.937.937,0,0,0-.85-.543H.937a.937.937,0,0,0-.716,1.542L8.53,34.9v6.63a.937.937,0,0,0,.518.838L13.313,44.5a.937.937,0,0,0,1.356-.838V34.9l8.309-9.825A.937.937,0,0,0,23.113,24.075Zm-10.1,9.876a.937.937,0,0,0-.222.605v7.59L10.4,40.95V34.556a.937.937,0,0,0-.222-.605L2.957,25.406H20.243Z" transform="translate(0 -23.532)"/>
    </g>
  </g>
</svg>
