<?xml version="1.0" encoding="utf-8"?>
<!-- Generator: Adobe Illustrator 22.0.1, SVG Export Plug-In . SVG Version: 6.00 Build 0)  -->
<svg version="1.1" id="Layer_1" xmlns="http://www.w3.org/2000/svg" xmlns:xlink="http://www.w3.org/1999/xlink" x="0px" y="0px"
	 viewBox="0 0 90 45" style="enable-background:new 0 0 90 45;" xml:space="preserve">
<style type="text/css">
	.st0{fill:#50545F;}
	.st1{fill:#626571;}
	.st2{fill:#EF4825;}
	.st3{fill:#F08F2F;}
	.st4{fill:#CF2E27;}
	.st5{fill:#221F1F;}
	.st6{fill:#F9AD2D;}
	.st7{fill:#353D4A;}
	.st8{fill:#5E5F5F;}
	.st9{fill:#FFFFFF;}
	.st10{fill:#434343;}
	.st11{fill:#6E757F;}
	.st12{fill:#5D606B;}
	.st13{fill:#4F535A;}
	.st14{fill:#3051A3;}
	.st15{fill:#CB444E;}
	.st16{fill:#263C91;}
	.st17{fill:#B2293A;}
	.st18{font-family:'Roboto-Bold';}
	.st19{font-size:9.3687px;}
	.st20{font-family:'Roboto-Black';}
	.st21{font-size:6.1127px;}
</style>
<polygon class="st0" points="79.1,34.8 9.2,34.8 11.4,29.4 79.1,29.4 "/>
<polygon class="st1" points="79.4,34.8 9.2,34.8 10.4,32.1 79.4,32.1 "/>
<path class="st14" d="M60.3,30h12.7c3.2,0,5.9-0.3,5.9,2.8v2.8h10.5V19.7L84.6,9.1c-0.6-1.2-1.8-2-3.2-2H60.3V30z"/>
<path class="st1" d="M88.2,36.6h-7.7v-5.3H90v3.5C90,35.8,89.2,36.6,88.2,36.6z"/>
<path class="st15" d="M82.4,28h7v-5.3h-8.7v3.6C80.6,27.2,81.4,28,82.4,28z"/>
<path class="st16" d="M84.8,9.7H60.3V7.1h21.1C83.1,7.1,84.5,8.4,84.8,9.7L84.8,9.7z"/>
<rect x="68.7" y="7.9" class="st16" width="0.6" height="21.9"/>
<path class="st5" d="M67.2,19.4h-5c-0.4,0-0.7-0.3-0.7-0.7v-6.8c0-0.4,0.3-0.7,0.7-0.7h5c0.4,0,0.7,0.3,0.7,0.7v6.8
	C67.9,19.1,67.6,19.4,67.2,19.4z"/>
<path class="st5" d="M83.4,19.4H71.3c-0.4,0-0.7-0.3-0.7-0.7v-6.8c0-0.4,0.3-0.7,0.7-0.7h9.2c0.3,0,0.5,0.2,0.6,0.4l2.9,6.8
	C84.2,18.9,83.9,19.4,83.4,19.4z"/>
<rect x="12.8" y="3.2" class="st17" width="46.7" height="26.2"/>
<rect x="14.6" y="3.2" class="st15" width="44.9" height="25.4"/>
<g>
	<circle class="st7" cx="70.5" cy="36.1" r="4.3"/>
	<circle class="st8" cx="70.5" cy="36.1" r="4.3"/>
	<circle class="st9" cx="70.5" cy="36.1" r="3"/>
	<circle class="st10" cx="70.5" cy="36.1" r="1.6"/>
</g>
<path class="st7" d="M70.5,31.8c1.9,0,3.5,1.3,4.1,3h1.2c-0.6-2.4-2.7-4.1-5.3-4.1c-2.6,0-4.7,1.8-5.3,4.1h1.2
	C66.9,33.1,68.6,31.8,70.5,31.8z"/>
<g>
	<circle class="st7" cx="19.4" cy="36.2" r="4.3"/>
	<circle class="st8" cx="19.4" cy="36.2" r="4.3"/>
	<circle class="st9" cx="19.4" cy="36.2" r="3"/>
	<circle class="st10" cx="19.4" cy="36.2" r="1.6"/>
</g>
<path class="st7" d="M19.4,31.9c1.9,0,3.5,1.3,4.1,3h1.2c-0.6-2.4-2.7-4.1-5.3-4.1c-2.6,0-4.7,1.8-5.3,4.1h1.2
	C15.9,33.1,17.5,31.9,19.4,31.9z"/>
<g>
	<circle class="st7" cx="32.8" cy="36.2" r="4.3"/>
	<circle class="st8" cx="32.8" cy="36.2" r="4.3"/>
	<circle class="st9" cx="32.8" cy="36.2" r="3"/>
	<circle class="st10" cx="32.8" cy="36.2" r="1.6"/>
</g>
<path class="st7" d="M32.8,31.9c1.9,0,3.5,1.3,4.1,3h1.2c-0.6-2.4-2.7-4.1-5.3-4.1c-2.6,0-4.7,1.8-5.3,4.1h1.2
	C29.2,33.1,30.9,31.9,32.8,31.9z"/>
<rect x="47.1" y="31.3" class="st11" width="13.3" height="1.6"/>
<rect x="47.1" y="32.9" class="st12" width="13.3" height="1.6"/>
<rect x="47.1" y="34.5" class="st13" width="13.3" height="1.6"/>
<rect x="49.6" y="31.3" class="st7" width="1" height="4.8"/>
<rect x="56.2" y="31.3" class="st7" width="1" height="4.8"/>
<path class="st17" d="M13.1,5.7h-6c-0.4,0-0.7-0.3-0.7-0.7v0c0-0.4,0.3-0.7,0.7-0.7h6c0.4,0,0.7,0.3,0.7,0.7v0
	C13.8,5.4,13.5,5.7,13.1,5.7z"/>
<path class="st17" d="M13.1,7.9H4.4C4,7.9,3.7,7.5,3.7,7.2v0c0-0.4,0.3-0.7,0.7-0.7h8.7c0.4,0,0.7,0.3,0.7,0.7v0
	C13.8,7.5,13.5,7.9,13.1,7.9z"/>
<path class="st17" d="M13.1,14.9H5.8c-0.4,0-0.7,0.3-0.7,0.7v0c0,0.4,0.3,0.7,0.7,0.7h7.3c0.4,0,0.7-0.3,0.7-0.7v0
	C13.8,15.2,13.5,14.9,13.1,14.9z"/>
<path class="st17" d="M13.1,25.9H4.3c-0.4,0-0.7,0.3-0.7,0.7v0.2c0,0.4,0.3,0.7,0.7,0.7h8.7c0.4,0,0.7-0.3,0.7-0.7v-0.2
	C13.8,26.2,13.5,25.9,13.1,25.9z"/>
<path class="st17" d="M13.1,12.7H2.7c-0.4,0-0.7,0.3-0.7,0.7v0c0,0.4,0.3,0.7,0.7,0.7h10.4c0.4,0,0.7-0.3,0.7-0.7v0
	C13.8,13.1,13.5,12.7,13.1,12.7z"/>
<path class="st17" d="M12.9,17.5H0.8c-0.4,0-0.7,0.3-0.7,0.7v0c0,0.4,0.3,0.7,0.7,0.7h12.1c0.4,0,0.7-0.3,0.7-0.7v0
	C13.6,17.8,13.3,17.5,12.9,17.5z"/>
<path class="st17" d="M13.1,23.3H0.7C0.3,23.3,0,23.6,0,24v0.2c0,0.4,0.3,0.7,0.7,0.7h12.4c0.4,0,0.7-0.3,0.7-0.7V24
	C13.8,23.6,13.5,23.3,13.1,23.3z"/>
<text transform="matrix(1 0 0 1 16.3589 15.6337)" class="st9 st18 st19">MIỄN PHÍ</text>
<text transform="matrix(1 0 0 1 18.271 24.1229)" class="st9 st20 st21">VẬN CHUYỂN</text>
</svg>
