<svg xmlns="http://www.w3.org/2000/svg" viewBox="0 0 76 76"><defs><style>.cls-1{fill:#d61818;}.cls-2{fill:#fff;}</style></defs><title>icon</title><g id="Layer_3" data-name="Layer 3"><circle class="cls-1" cx="38" cy="38" r="34.5"/><path class="cls-2" d="M42,39.17,39.09,52.45q-1,4.13.27,4.13a5,5,0,0,0,2.06-.91,12.48,12.48,0,0,0,2.69-2.26,1.59,1.59,0,0,1,1.17.64,3.52,3.52,0,0,1,.78,1.24,15.92,15.92,0,0,1-5.61,4.59,15.54,15.54,0,0,1-6.91,1.62,3.18,3.18,0,0,1-3.3-2.21q-.52-1.49.46-6.25l3-13.9a14.69,14.69,0,0,0,.4-2.78A1.17,1.17,0,0,0,32.88,35l-2.71-.2a2.59,2.59,0,0,1-.23-1.32,2,2,0,0,1,.37-1.25,92.35,92.35,0,0,1,11.62-.9,1.24,1.24,0,0,1,1.39,1.42,7.69,7.69,0,0,1-.2,1.47c-.13.63-.32,1.46-.58,2.48S42.1,38.56,42,39.17ZM35.59,20.51a4,4,0,0,1,1.24-2.94,4.67,4.67,0,0,1,3.48-1.25,4,4,0,0,1,3.17,1.38,4.58,4.58,0,0,1,1.23,3.11,4,4,0,0,1-1.36,2.84A4.66,4.66,0,0,1,39.92,25a3.93,3.93,0,0,1-3.14-1.37A4.63,4.63,0,0,1,35.59,20.51Z"/></g></svg>