<svg xmlns="http://www.w3.org/2000/svg" viewBox="0 0 193.56 193.56"><defs><style>.cls-1{fill:#f78c1b;}</style></defs><title>icon_Cartmini</title><g id="Layer_2" data-name="Layer 2"><g id="Layer_1-2" data-name="Layer 1"><path class="cls-1" d="M40.92,55.87H53.81l18.36,66.4a4.49,4.49,0,0,0,4.35,3.3H133a4.5,4.5,0,0,0,4.12-2.7l20.54-47.22a4.53,4.53,0,0,0-.38-4.27,4.47,4.47,0,0,0-3.75-2H91.13a4.5,4.5,0,1,0,0,9h55.46L130,116.57H79.89L61.53,50.17a4.49,4.49,0,0,0-4.35-3.29H40.92a4.5,4.5,0,1,0,0,9Z"/><path class="cls-1" d="M85.61,157.19A10.19,10.19,0,1,0,75.42,147,10.2,10.2,0,0,0,85.61,157.19Z"/><path class="cls-1" d="M122.39,157.19h.75a10.53,10.53,0,1,0-.75,0Z"/><polygon class="cls-1" points="132.6 120.11 78.35 118.79 65.17 68.9 150.82 68.9 132.6 120.11"/><path class="cls-1" d="M96.78,0a96.78,96.78,0,1,0,96.78,96.78A96.78,96.78,0,0,0,96.78,0Zm.42,181.51a84.73,84.73,0,1,1,84.73-84.73A84.72,84.72,0,0,1,97.2,181.51Z"/></g></g></svg>