<svg xmlns="http://www.w3.org/2000/svg" viewBox="0 0 237.41 215.47"><defs><style>.cls-1{fill:#2B383A;}</style></defs><title>icon_ShoppingCartWhite</title><g id="Layer_2" data-name="Layer 2"><g id="Layer_1-2" data-name="Layer 1"><path class="cls-1" d="M8.78,17.57H34L69.82,147.26a8.79,8.79,0,0,0,8.49,6.44H188.54a8.8,8.8,0,0,0,8.05-5.27L236.7,56.21a8.88,8.88,0,0,0-.73-8.34,8.73,8.73,0,0,0-7.32-4H106.86a8.79,8.79,0,0,0,0,17.57H215.18l-32.5,74.65H84.9L49,6.44A8.79,8.79,0,0,0,40.55,0H8.78a8.79,8.79,0,0,0,0,17.57Z"/><path class="cls-1" d="M70,215.47a19.91,19.91,0,1,0-19.91-19.91A19.93,19.93,0,0,0,70,215.47Z"/><path class="cls-1" d="M194.39,215.47h1.47a20.59,20.59,0,1,0-1.47,0Z"/></g></g></svg>