<?xml version="1.0" encoding="utf-8"?>
<!-- Generator: Adobe Illustrator 22.0.0, SVG Export Plug-In . SVG Version: 6.00 Build 0)  -->
<svg version="1.1" id="Layer_1" xmlns="http://www.w3.org/2000/svg" xmlns:xlink="http://www.w3.org/1999/xlink" x="0px" y="0px"
	 viewBox="0 0 47.6 38.5" style="enable-background:new 0 0 47.6 38.5;" xml:space="preserve">
<style type="text/css">
	.st0{fill:#3D3D3D;}
</style>
<title>Asset 105</title>
<path class="st0" d="M45.9,7.7H21.4c-0.9-0.1-1.7,0.6-1.8,1.5c0.1,0.9,0.8,1.6,1.8,1.5h21.7l-6.5,13.1H17L9.8,1.1
	C9.6,0.4,8.9,0,8.1,0H1.8C0.8-0.1,0.1,0.6,0,1.5C0.1,2.4,0.8,3.1,1.8,3h5.1L14,25.8c0.3,0.7,0.9,1.2,1.7,1.2h22.1
	c0.7,0,1.3-0.4,1.6-1l8-16.2c0.2-0.5,0.2-1-0.2-1.5C47,7.9,46.4,7.7,45.9,7.7z"/>
<path class="st0" d="M18.4,27.7c-3,0-5.4,2.4-5.4,5.4s2.4,5.4,5.4,5.4s5.4-2.4,5.4-5.4l0,0C23.8,30.1,21.4,27.7,18.4,27.7z
	 M21.1,35.4c-0.6,0.7-1.5,1.2-2.4,1.2h-0.3c-2,0-3.6-1.6-3.6-3.6s1.6-3.6,3.6-3.6S22,31,22,33C21.9,34,21.6,34.8,21.1,35.4z"/>
<path class="st0" d="M34.5,27.7c-3,0-5.4,2.4-5.4,5.4s2.4,5.4,5.4,5.4s5.4-2.4,5.4-5.4l0,0C39.9,30.1,37.5,27.7,34.5,27.7z
	 M37.2,35.4c-0.6,0.7-1.5,1.2-2.4,1.2h-0.3c-2,0-3.6-1.6-3.6-3.6s1.6-3.6,3.6-3.6s3.6,1.6,3.6,3.6C38,34,37.7,34.8,37.2,35.4z"/>
<polygon class="st0" points="28.2,16 27.8,16 27.8,16 27.8,12.5 25.9,12.5 25.9,16 22.4,16 22.4,17.9 25.9,17.9 25.9,21.5 
	27.8,21.5 27.8,17.9 27.8,17.9 28.2,17.9 31.4,17.9 31.4,16 "/>
</svg>
