<svg xmlns="http://www.w3.org/2000/svg" viewBox="274 -17 340 340">
  <defs>
    <style>
      .cls-1 {
        fill: #f1f1f1;
      }

      .cls-2 {
        fill: #0b496b;
      }

      .cls-3 {
        fill: #ae1922;
      }
    </style>
  </defs>
  <g id="time-is-money" transform="translate(277.534 -31.858)">
    <g id="Group_941" data-name="Group 941" transform="translate(-3.534 14.858)">
      <circle id="Ellipse_169" data-name="Ellipse 169" class="cls-1" cx="170" cy="170" r="170"/>
      <path id="Path_596" data-name="Path 596" class="cls-2" d="M134.561,79.161a7.436,7.436,0,0,0-7.436,7.436v59.864H89.417a7.436,7.436,0,0,0-7.436,7.436v3.718a7.437,7.437,0,0,0,7.436,7.436h48.862a7.437,7.437,0,0,0,7.437-7.436V86.6a7.436,7.436,0,0,0-7.437-7.436Z" transform="translate(14.324 7.13)"/>
      <path id="Path_597" data-name="Path 597" class="cls-3" d="M146.5,234.635l.039-.292c0-.019,0-.037,0-.056v-7.67A97.035,97.035,0,1,1,211.72,121.2a156.356,156.356,0,0,1,18.9,1.372,115.608,115.608,0,1,0-81.324,122.676,12.793,12.793,0,0,1-2.8-7.752Z" transform="translate(35.341 22.548)"/>
      <path id="Path_598" data-name="Path 598" class="cls-3" d="M207.054,184.157c0,7.415,21.027,17.756,55.272,17.756S317.6,191.572,317.6,184.157,296.572,166.4,262.326,166.4,207.054,176.744,207.054,184.157Zm56.461-8.1.517,1a59.25,59.25,0,0,1,8.68.8c.719.13,1.056.424.758.66l-2.169,1.7a2.833,2.833,0,0,1-1.843.192,39.025,39.025,0,0,0-6.888-.449c-2.389.06-6.31.4-5.854,1.277s1.895,1.159,8.145,1.638c5.337.407,13.4,1.025,14.9,4.074.993,1.921-2.328,3.481-8.526,4.059l.542,1.051c.138.267-.371.5-1.136.518l-5.542.138c-.765.018-1.5-.182-1.637-.45l-.568-1.1a48.074,48.074,0,0,1-10.284-1.567c-.625-.181-.759-.487-.3-.685l3.339-1.428a2.577,2.577,0,0,1,.921-.157,3.748,3.748,0,0,1,1.046.126,30.923,30.923,0,0,0,8.214.879c2.281-.056,6.031-.37,5.608-1.187-.362-.738-1.634-.979-7.558-1.431-5.508-.422-13.827-1.06-15.485-4.267-.945-1.829,1.874-3.34,7.4-4.017l-.6-1.158c-.137-.267.371-.5,1.135-.518l5.543-.138C262.645,175.589,263.376,175.789,263.515,176.056Z" transform="translate(-17.739 -15.235)"/>
      <path id="Path_599" data-name="Path 599" class="cls-3" d="M207.054,206.938v18.47c.894,7.37,21.731,17.264,55.229,17.264,34.246,0,55.275-10.341,55.275-17.756l.026-17.964c-11.306,8.374-33.757,12.791-55.257,12.791S218.354,215.32,207.054,206.938Z" transform="translate(-17.739 -25.627)"/>
      <path id="Path_600" data-name="Path 600" class="cls-3" d="M207.039,288.643v15.091c0,.063-.016.123-.019.185,0,.1-.01.208-.024.31v2.378c0,7.414,21.027,17.755,55.271,17.755s55.274-10.341,55.274-17.756l.026-18.013c-11.292,8.393-33.773,12.821-55.3,12.821C240.786,301.415,218.353,297,207.039,288.643Z" transform="translate(-17.723 -46.56)"/>
      <path id="Path_601" data-name="Path 601" class="cls-3" d="M207.054,247.8v18.445c.894,7.371,21.731,17.264,55.229,17.264,34.246,0,55.275-10.341,55.275-17.755l.026-18c-11.292,8.393-33.773,12.821-55.3,12.821C240.8,260.569,218.368,256.159,207.054,247.8Z" transform="translate(-17.739 -36.088)"/>
    </g>
  </g>
</svg>
