<svg xmlns="http://www.w3.org/2000/svg" viewBox="3920 1112 18.106 17.76">
  <defs>
    <style>
      .cls-1 {
        fill: #8d8d8d;
      }
    </style>
  </defs>
  <g id="placeholder" transform="translate(3920 1111.415)">
    <path id="Path_938" data-name="Path 938" class="cls-1" d="M26.01,16.728a2.072,2.072,0,1,0-2.072-2.072A2.075,2.075,0,0,0,26.01,16.728Zm0-3.552a1.48,1.48,0,1,1-1.48,1.48A1.482,1.482,0,0,1,26.01,13.176Z" transform="translate(-16.852 -8.447)"/>
    <path id="Path_939" data-name="Path 939" class="cls-1" d="M14.864,11.537h-2.12l.9-1.3a6.467,6.467,0,0,0-.527-7.987,5.676,5.676,0,0,0-8.028,0,6.466,6.466,0,0,0-.534,7.978l.908,1.312H3.242L0,18.345H18.106ZM5.038,9.879A5.842,5.842,0,0,1,5.51,2.666a5.084,5.084,0,0,1,7.191,0,5.844,5.844,0,0,1,.466,7.222L9.105,15.753,6.186,11.537h0Zm-1.422,2.25h2.26l3.23,4.664,3.229-4.664H14.49l2.678,5.624H.938Z"/>
  </g>
</svg>
