<svg xmlns="http://www.w3.org/2000/svg" viewBox="3902 853 40 40">
  <defs>
    <style>
      .cls-1 {
        fill: #7b7b7b;
      }

      .cls-2 {
        fill: #fff;
      }
    </style>
  </defs>
  <g id="Group_1971" data-name="Group 1971" transform="translate(3902 853)">
    <path id="Path_1132" data-name="Path 1132" class="cls-1" d="M20,0A20,20,0,1,0,40,20,19.989,19.989,0,0,0,20,0Zm0,8.448a7.037,7.037,0,1,1-7.037,7.037A7.041,7.041,0,0,1,20,8.448Zm.515,29.012c-8.05,0-11.336-2.705-13.627-5.809,0,0,3.2-9.461,13.012-9.129s13.212,9.129,13.212,9.129A17.042,17.042,0,0,1,20.515,37.461Z"/>
    <circle id="Ellipse_240" data-name="Ellipse 240" class="cls-2" cx="7.037" cy="7.037" r="7.037" transform="translate(12.963 8.448)"/>
    <path id="Path_1133" data-name="Path 1133" class="cls-2" d="M54.512,135.657c-9.809-.332-13.012,9.129-13.012,9.129,2.29,3.1,5.577,5.809,13.627,5.809a17.042,17.042,0,0,0,12.6-5.809S64.322,135.989,54.512,135.657Z" transform="translate(-34.612 -113.134)"/>
  </g>
</svg>
