<svg xmlns="http://www.w3.org/2000/svg" xmlns:xlink="http://www.w3.org/1999/xlink" viewBox="-19228 -17337 24 24">
  <defs>
    <style>
      .cls-1 {
        fill: #e0e0e0;
      }

      .cls-2 {
        clip-path: url(#clip-path);
      }

      .cls-3 {
        fill: #8d8d8d;
      }
    </style>
    <clipPath id="clip-path">
      <path id="Path_2308" data-name="Path 2308" class="cls-1" d="M0,0H24V24H0Z"/>
    </clipPath>
  </defs>
  <g id="ic_lock_outline_black_48px" class="cls-2" transform="translate(-19228 -17337)">
    <path id="Path_2307" data-name="Path 2307" class="cls-3" d="M12,17a2,2,0,1,0-2-2A2.006,2.006,0,0,0,12,17Zm6-9H17V6A5,5,0,0,0,7,6V8H6a2.006,2.006,0,0,0-2,2V20a2.006,2.006,0,0,0,2,2H18a2.006,2.006,0,0,0,2-2V10A2.006,2.006,0,0,0,18,8ZM8.9,6a3.1,3.1,0,0,1,6.2,0V8H8.9ZM18,20H6V10H18Z"/>
  </g>
</svg>
