<svg xmlns="http://www.w3.org/2000/svg" viewBox="1546 879 36.846 27.142">
  <defs>
    <style>
      .cls-1, .cls-3 {
        fill: none;
      }

      .cls-2 {
        fill: #3d3d3d;
      }

      .cls-3 {
        stroke: #fcfcfc;
        stroke-linecap: round;
        stroke-linejoin: round;
      }
    </style>
  </defs>
  <g id="Layer_1" data-name="Layer 1" transform="translate(1546 879)">
    <rect id="Rectangle_1170" data-name="Rectangle 1170" class="cls-1" width="6.656" height="2.532" transform="translate(10.82 19.2)"/>
    <path id="Path_1054" data-name="Path 1054" class="cls-1" d="M10.558,46.67a.558.558,0,0,0-.558.558V58.494a.558.558,0,0,0,.558.558H32.234V46.67Zm.135,3.2a.558.558,0,0,1,0-.789l1.293-1.293a.558.558,0,0,1,.79.789l-1.294,1.293A.558.558,0,0,1,10.693,49.867Zm1.829,2.473a.558.558,0,0,1-.763-.814L15.524,48a.558.558,0,0,1,.787.026h0a.558.558,0,0,1-.026.789Z" transform="translate(-8.885 -41.464)"/>
    <path id="Path_1055" data-name="Path 1055" class="cls-1" d="M73.28,204.83a1.45,1.45,0,0,0-1.45,1.45v1.729H84.157V206.28a1.45,1.45,0,0,0-1.45-1.45Z" transform="translate(-63.818 -181.983)"/>
    <path id="Path_1056" data-name="Path 1056" class="cls-1" d="M222.007,58.494V47.228a.558.558,0,0,0-.558-.558H219.33V59.051h2.119A.558.558,0,0,0,222.007,58.494Z" transform="translate(-194.865 -41.464)"/>
    <path id="Path_1057" data-name="Path 1057" class="cls-1" d="M230.038,10h-10.15a.558.558,0,0,0-.558.558v2.417h2.119a1.673,1.673,0,0,1,1.673,1.673V25.914a1.673,1.673,0,0,1-1.673,1.673H219.33v6.766a.558.558,0,0,0,.558.558h10.15a.558.558,0,0,0,.558-.558v-23.8A.558.558,0,0,0,230.038,10Zm-6.378,6.172a1.115,1.115,0,0,1,1.115-1.115h3.408a1.115,1.115,0,0,1,1.115,1.115v.92a1.115,1.115,0,0,1-1.115,1.115h-3.408a1.115,1.115,0,0,1-1.115-1.115Zm-1.1,17.475a.6.6,0,0,1-.6.6h0a.6.6,0,0,1-.6-.6v-.669a.6.6,0,0,1,.6-.6h0a.6.6,0,0,1,.6.6Zm3.681.6a1.868,1.868,0,1,1,1.868-1.868,1.868,1.868,0,0,1-1.868,1.868Zm2.477-5.382h-6.381a.53.53,0,0,1,0-1.06h6.381a.53.53,0,0,1,0,1.06Zm.03-2.37H224.19a.53.53,0,0,1,0-1.06h4.563a.53.53,0,0,1,0,1.06Zm.639-5.466a1.115,1.115,0,0,1-1.115,1.115H224.87a1.115,1.115,0,0,1-1.115-1.115v-.92a1.115,1.115,0,0,1,1.115-1.115h3.408a1.115,1.115,0,0,1,1.115,1.115Z" transform="translate(-194.865 -8.885)"/>
    <path id="Path_1058" data-name="Path 1058" class="cls-2" d="M263.243,148.33H258.68a.53.53,0,1,0,0,1.06h4.563a.53.53,0,0,0,0-1.06Z" transform="translate(-229.355 -131.785)"/>
    <rect id="Rectangle_1171" data-name="Rectangle 1171" class="cls-2" width="5.64" height="3.151" rx="1.576" transform="translate(28.795 6.172)"/>
    <rect id="Rectangle_1172" data-name="Rectangle 1172" class="cls-2" width="5.64" height="3.151" rx="1.576" transform="translate(28.889 10.104)"/>
    <path id="Path_1059" data-name="Path 1059" class="cls-2" d="M35.173,0H25.022a1.673,1.673,0,0,0-1.673,1.673V4.09H1.673A1.673,1.673,0,0,0,0,5.763V17.029A1.673,1.673,0,0,0,1.673,18.7H9.7v3.03H9.462A2.565,2.565,0,0,0,6.9,24.3v1.729a1.115,1.115,0,0,0,1.115,1.115H20.338a1.115,1.115,0,0,0,1.115-1.115V24.3a2.565,2.565,0,0,0-2.565-2.565h-.3V18.7h4.758v6.766a1.673,1.673,0,0,0,1.673,1.673h10.15a1.673,1.673,0,0,0,1.673-1.673V1.673A1.673,1.673,0,0,0,35.173,0ZM18.888,22.847a1.45,1.45,0,0,1,1.45,1.45v1.729H8.012V24.3a1.45,1.45,0,0,1,1.45-1.45ZM10.82,21.732V19.2h6.656v2.532ZM1.673,17.587a.558.558,0,0,1-.558-.558V5.763a.558.558,0,0,1,.558-.558H23.349V17.587ZM24.465,5.206h2.119a.558.558,0,0,1,.558.558V17.029a.558.558,0,0,1-.558.558H24.465ZM35.731,25.469a.558.558,0,0,1-.558.558H25.022a.558.558,0,0,1-.558-.558V18.7h2.119a1.673,1.673,0,0,0,1.673-1.673V5.763A1.673,1.673,0,0,0,26.584,4.09H24.465V1.673a.558.558,0,0,1,.558-.558h10.15a.558.558,0,0,1,.558.558Z"/>
    <path id="Path_1060" data-name="Path 1060" class="cls-2" d="M16.99,55.369a.558.558,0,0,0-.789,0l-1.293,1.293a.558.558,0,1,0,.789.789l1.294-1.293A.558.558,0,0,0,16.99,55.369Z" transform="translate(-13.1 -49.048)"/>
    <line id="Line_856" data-name="Line 856" class="cls-3" transform="translate(7.427 6.562)"/>
    <path id="Path_1061" data-name="Path 1061" class="cls-2" d="M28.917,57.428h0a.558.558,0,0,0-.787-.026l-3.765,3.525a.558.558,0,1,0,.763.814l3.763-3.525A.558.558,0,0,0,28.917,57.428Z" transform="translate(-21.49 -50.866)"/>
    <path id="Path_1062" data-name="Path 1062" class="cls-2" d="M248.491,169.58H242.11a.53.53,0,0,0,0,1.06h6.381a.53.53,0,0,0,0-1.06Z" transform="translate(-214.633 -150.665)"/>
    <path id="Path_1063" data-name="Path 1063" class="cls-2" d="M238.229,210.58h0a.6.6,0,0,1,.6.6v.669a.6.6,0,0,1-.6.6h0a.6.6,0,0,1-.6-.6v-.669A.6.6,0,0,1,238.229,210.58Z" transform="translate(-211.124 -187.091)"/>
    <circle id="Ellipse_238" data-name="Ellipse 238" class="cls-2" cx="1.868" cy="1.868" r="1.868" transform="translate(29.512 21.62)"/>
  </g>
</svg>
