<svg xmlns="http://www.w3.org/2000/svg" viewBox="2994 4946 20 18.646">
  <defs>
    <style>
      .cls-1 {
        fill: #9e9e9e;
      }
    </style>
  </defs>
  <g id="arrows" transform="translate(2994 4929.77)">
    <g id="Group_1115" data-name="Group 1115" transform="translate(10.694 16.907)">
      <g id="Group_1114" data-name="Group 1114">
        <path id="Path_832" data-name="Path 832" class="cls-1" d="M265.412,44.829a1.333,1.333,0,0,0-.127-.108,1.381,1.381,0,0,0-1.768.193l-.42.42a2,2,0,0,0-.36.494l-.26.5V33.894a1.381,1.381,0,0,0-1.107-1.408,1.334,1.334,0,0,0-1.528,1.334V46.308l-.18-.394a2,2,0,0,0-.394-.567l-.44-.44a1.381,1.381,0,0,0-1.768-.193,1.334,1.334,0,0,0-.173,2l3.335,3.335a1.334,1.334,0,0,0,1.887,0h0l3.335-3.335A1.334,1.334,0,0,0,265.412,44.829Z" transform="translate(-256.514 -32.472)"/>
      </g>
    </g>
    <g id="Group_1117" data-name="Group 1117" transform="translate(0 16.23)">
      <g id="Group_1116" data-name="Group 1116" transform="translate(0 0)">
        <path id="Path_833" data-name="Path 833" class="cls-1" d="M8.939,19.916l-3.289-3.3a1.334,1.334,0,0,0-1.887,0h0L.427,19.956a1.381,1.381,0,0,0-.193,1.768,1.334,1.334,0,0,0,2,.173l.454-.454a2,2,0,0,0,.48-.774l.18-.414v12.6A1.381,1.381,0,0,0,4.47,34.265a1.334,1.334,0,0,0,1.548-1.334V20.257l.133.38a2,2,0,0,0,.474.747l.48.48a1.334,1.334,0,0,0,1.887,0q.039-.039.074-.081A1.387,1.387,0,0,0,8.939,19.916Z" transform="translate(0 -16.23)"/>
      </g>
    </g>
  </g>
</svg>
